<svg xmlns="http://www.w3.org/2000/svg" xmlns:xlink="http://www.w3.org/1999/xlink" width="500" zoomAndPan="magnify" viewBox="0 0 375 374.999991" height="500" preserveAspectRatio="xMidYMid meet" version="1.0"><defs><clipPath id="c8d8549f3c"><path d="M 0 0.726562 L 373.546875 0.726562 L 373.546875 374.273438 L 0 374.273438 Z M 0 0.726562 " clip-rule="nonzero"/></clipPath><clipPath id="b3d162ed4c"><path d="M 186.773438 0.726562 C 83.621094 0.726562 0 84.347656 0 187.5 C 0 290.652344 83.621094 374.273438 186.773438 374.273438 C 289.925781 374.273438 373.546875 290.652344 373.546875 187.5 C 373.546875 84.347656 289.925781 0.726562 186.773438 0.726562 Z M 186.773438 0.726562 " clip-rule="nonzero"/></clipPath><radialGradient gradientTransform="matrix(1, 0, 0, 1, 0.0000045, 0.72608)" gradientUnits="userSpaceOnUse" r="528.276862" cx="0" id="07e6d35670" cy="0" fx="0" fy="0"><stop stop-opacity="1" stop-color="rgb(100%, 19.345093%, 19.241333%)" offset="0"/><stop stop-opacity="1" stop-color="rgb(100%, 19.566345%, 19.306946%)" offset="0.0078125"/><stop stop-opacity="1" stop-color="rgb(100%, 19.714355%, 19.34967%)" offset="0.0117188"/><stop stop-opacity="1" stop-color="rgb(100%, 19.86084%, 19.392395%)" offset="0.015625"/><stop stop-opacity="1" stop-color="rgb(100%, 20.00885%, 19.43512%)" offset="0.0195312"/><stop stop-opacity="1" stop-color="rgb(100%, 20.155334%, 19.477844%)" offset="0.0234375"/><stop stop-opacity="1" stop-color="rgb(100%, 20.303345%, 19.522095%)" offset="0.0273438"/><stop stop-opacity="1" stop-color="rgb(100%, 20.451355%, 19.564819%)" offset="0.03125"/><stop stop-opacity="1" stop-color="rgb(100%, 20.597839%, 19.607544%)" offset="0.0351562"/><stop stop-opacity="1" stop-color="rgb(100%, 20.74585%, 19.650269%)" offset="0.0390625"/><stop stop-opacity="1" stop-color="rgb(100%, 20.892334%, 19.692993%)" offset="0.0429688"/><stop stop-opacity="1" stop-color="rgb(100%, 21.040344%, 19.735718%)" offset="0.046875"/><stop stop-opacity="1" stop-color="rgb(100%, 21.186829%, 19.778442%)" offset="0.0507812"/><stop stop-opacity="1" stop-color="rgb(100%, 21.334839%, 19.822693%)" offset="0.0546875"/><stop stop-opacity="1" stop-color="rgb(100%, 21.481323%, 19.865417%)" offset="0.0585938"/><stop stop-opacity="1" stop-color="rgb(100%, 21.629333%, 19.908142%)" offset="0.0625"/><stop stop-opacity="1" stop-color="rgb(100%, 21.775818%, 19.950867%)" offset="0.0664062"/><stop stop-opacity="1" stop-color="rgb(100%, 21.923828%, 19.993591%)" offset="0.0703125"/><stop stop-opacity="1" stop-color="rgb(100%, 22.070312%, 20.036316%)" offset="0.0742188"/><stop stop-opacity="1" stop-color="rgb(100%, 22.218323%, 20.080566%)" offset="0.078125"/><stop stop-opacity="1" stop-color="rgb(100%, 22.364807%, 20.123291%)" offset="0.0820312"/><stop stop-opacity="1" stop-color="rgb(100%, 22.512817%, 20.166016%)" offset="0.0859375"/><stop stop-opacity="1" stop-color="rgb(100%, 22.659302%, 20.20874%)" offset="0.0898438"/><stop stop-opacity="1" stop-color="rgb(100%, 22.807312%, 20.251465%)" offset="0.09375"/><stop stop-opacity="1" stop-color="rgb(100%, 22.953796%, 20.294189%)" offset="0.0976562"/><stop stop-opacity="1" stop-color="rgb(100%, 23.101807%, 20.33844%)" offset="0.101562"/><stop stop-opacity="1" stop-color="rgb(100%, 23.248291%, 20.381165%)" offset="0.105469"/><stop stop-opacity="1" stop-color="rgb(100%, 23.396301%, 20.423889%)" offset="0.109375"/><stop stop-opacity="1" stop-color="rgb(100%, 23.542786%, 20.466614%)" offset="0.113281"/><stop stop-opacity="1" stop-color="rgb(100%, 23.690796%, 20.509338%)" offset="0.117188"/><stop stop-opacity="1" stop-color="rgb(100%, 23.83728%, 20.552063%)" offset="0.121094"/><stop stop-opacity="1" stop-color="rgb(100%, 23.985291%, 20.596313%)" offset="0.125"/><stop stop-opacity="1" stop-color="rgb(100%, 24.131775%, 20.639038%)" offset="0.128906"/><stop stop-opacity="1" stop-color="rgb(100%, 24.279785%, 20.681763%)" offset="0.132812"/><stop stop-opacity="1" stop-color="rgb(100%, 24.42627%, 20.724487%)" offset="0.136719"/><stop stop-opacity="1" stop-color="rgb(100%, 24.57428%, 20.767212%)" offset="0.140625"/><stop stop-opacity="1" stop-color="rgb(100%, 24.720764%, 20.809937%)" offset="0.144531"/><stop stop-opacity="1" stop-color="rgb(100%, 24.868774%, 20.852661%)" offset="0.148438"/><stop stop-opacity="1" stop-color="rgb(100%, 25.015259%, 20.896912%)" offset="0.152344"/><stop stop-opacity="1" stop-color="rgb(100%, 25.163269%, 20.939636%)" offset="0.15625"/><stop stop-opacity="1" stop-color="rgb(100%, 25.309753%, 20.982361%)" offset="0.160156"/><stop stop-opacity="1" stop-color="rgb(100%, 25.457764%, 21.025085%)" offset="0.164062"/><stop stop-opacity="1" stop-color="rgb(100%, 25.604248%, 21.06781%)" offset="0.167969"/><stop stop-opacity="1" stop-color="rgb(100%, 25.752258%, 21.110535%)" offset="0.171875"/><stop stop-opacity="1" stop-color="rgb(100%, 25.898743%, 21.154785%)" offset="0.175781"/><stop stop-opacity="1" stop-color="rgb(100%, 26.046753%, 21.19751%)" offset="0.179688"/><stop stop-opacity="1" stop-color="rgb(100%, 26.193237%, 21.240234%)" offset="0.183594"/><stop stop-opacity="1" stop-color="rgb(100%, 26.341248%, 21.282959%)" offset="0.1875"/><stop stop-opacity="1" stop-color="rgb(100%, 26.489258%, 21.325684%)" offset="0.191406"/><stop stop-opacity="1" stop-color="rgb(100%, 26.635742%, 21.368408%)" offset="0.195312"/><stop stop-opacity="1" stop-color="rgb(100%, 26.783752%, 21.412659%)" offset="0.199219"/><stop stop-opacity="1" stop-color="rgb(100%, 26.930237%, 21.455383%)" offset="0.203125"/><stop stop-opacity="1" stop-color="rgb(100%, 27.078247%, 21.498108%)" offset="0.207031"/><stop stop-opacity="1" stop-color="rgb(100%, 27.224731%, 21.540833%)" offset="0.210938"/><stop stop-opacity="1" stop-color="rgb(100%, 27.372742%, 21.583557%)" offset="0.214844"/><stop stop-opacity="1" stop-color="rgb(100%, 27.519226%, 21.626282%)" offset="0.21875"/><stop stop-opacity="1" stop-color="rgb(100%, 27.667236%, 21.670532%)" offset="0.222656"/><stop stop-opacity="1" stop-color="rgb(100%, 27.813721%, 21.713257%)" offset="0.226562"/><stop stop-opacity="1" stop-color="rgb(100%, 27.961731%, 21.755981%)" offset="0.230469"/><stop stop-opacity="1" stop-color="rgb(100%, 28.108215%, 21.798706%)" offset="0.234375"/><stop stop-opacity="1" stop-color="rgb(100%, 28.256226%, 21.841431%)" offset="0.238281"/><stop stop-opacity="1" stop-color="rgb(100%, 28.40271%, 21.884155%)" offset="0.242188"/><stop stop-opacity="1" stop-color="rgb(100%, 28.55072%, 21.92688%)" offset="0.246094"/><stop stop-opacity="1" stop-color="rgb(100%, 28.697205%, 21.97113%)" offset="0.25"/><stop stop-opacity="1" stop-color="rgb(100%, 28.918457%, 22.035217%)" offset="0.253906"/><stop stop-opacity="1" stop-color="rgb(100%, 29.212952%, 22.120667%)" offset="0.261719"/><stop stop-opacity="1" stop-color="rgb(100%, 29.507446%, 22.206116%)" offset="0.269531"/><stop stop-opacity="1" stop-color="rgb(100%, 29.801941%, 22.293091%)" offset="0.277344"/><stop stop-opacity="1" stop-color="rgb(100%, 30.096436%, 22.37854%)" offset="0.285156"/><stop stop-opacity="1" stop-color="rgb(100%, 30.39093%, 22.463989%)" offset="0.292969"/><stop stop-opacity="1" stop-color="rgb(100%, 30.685425%, 22.550964%)" offset="0.300781"/><stop stop-opacity="1" stop-color="rgb(100%, 30.979919%, 22.636414%)" offset="0.308594"/><stop stop-opacity="1" stop-color="rgb(100%, 31.274414%, 22.721863%)" offset="0.316406"/><stop stop-opacity="1" stop-color="rgb(100%, 31.568909%, 22.808838%)" offset="0.324219"/><stop stop-opacity="1" stop-color="rgb(100%, 31.863403%, 22.894287%)" offset="0.332031"/><stop stop-opacity="1" stop-color="rgb(100%, 32.157898%, 22.979736%)" offset="0.339844"/><stop stop-opacity="1" stop-color="rgb(100%, 32.452393%, 23.066711%)" offset="0.347656"/><stop stop-opacity="1" stop-color="rgb(100%, 32.746887%, 23.152161%)" offset="0.355469"/><stop stop-opacity="1" stop-color="rgb(100%, 33.041382%, 23.23761%)" offset="0.363281"/><stop stop-opacity="1" stop-color="rgb(100%, 33.335876%, 23.324585%)" offset="0.371094"/><stop stop-opacity="1" stop-color="rgb(100%, 33.630371%, 23.410034%)" offset="0.378906"/><stop stop-opacity="1" stop-color="rgb(100%, 33.924866%, 23.495483%)" offset="0.386719"/><stop stop-opacity="1" stop-color="rgb(100%, 34.21936%, 23.582458%)" offset="0.394531"/><stop stop-opacity="1" stop-color="rgb(100%, 34.513855%, 23.667908%)" offset="0.402344"/><stop stop-opacity="1" stop-color="rgb(100%, 34.80835%, 23.753357%)" offset="0.410156"/><stop stop-opacity="1" stop-color="rgb(100%, 35.102844%, 23.840332%)" offset="0.417969"/><stop stop-opacity="1" stop-color="rgb(100%, 35.397339%, 23.925781%)" offset="0.425781"/><stop stop-opacity="1" stop-color="rgb(100%, 35.691833%, 24.01123%)" offset="0.433594"/><stop stop-opacity="1" stop-color="rgb(100%, 35.986328%, 24.09668%)" offset="0.441406"/><stop stop-opacity="1" stop-color="rgb(100%, 36.280823%, 24.183655%)" offset="0.449219"/><stop stop-opacity="1" stop-color="rgb(100%, 36.575317%, 24.269104%)" offset="0.457031"/><stop stop-opacity="1" stop-color="rgb(100%, 36.869812%, 24.354553%)" offset="0.464844"/><stop stop-opacity="1" stop-color="rgb(100%, 37.164307%, 24.441528%)" offset="0.472656"/><stop stop-opacity="1" stop-color="rgb(100%, 37.458801%, 24.526978%)" offset="0.480469"/><stop stop-opacity="1" stop-color="rgb(100%, 37.753296%, 24.612427%)" offset="0.488281"/><stop stop-opacity="1" stop-color="rgb(100%, 38.047791%, 24.699402%)" offset="0.496094"/><stop stop-opacity="1" stop-color="rgb(100%, 38.269043%, 24.763489%)" offset="0.503906"/><stop stop-opacity="1" stop-color="rgb(100%, 38.417053%, 24.806213%)" offset="0.507812"/><stop stop-opacity="1" stop-color="rgb(100%, 38.563538%, 24.848938%)" offset="0.511719"/><stop stop-opacity="1" stop-color="rgb(100%, 38.711548%, 24.893188%)" offset="0.515625"/><stop stop-opacity="1" stop-color="rgb(100%, 38.859558%, 24.935913%)" offset="0.519531"/><stop stop-opacity="1" stop-color="rgb(100%, 39.006042%, 24.978638%)" offset="0.523438"/><stop stop-opacity="1" stop-color="rgb(100%, 39.154053%, 25.021362%)" offset="0.527344"/><stop stop-opacity="1" stop-color="rgb(100%, 39.300537%, 25.064087%)" offset="0.53125"/><stop stop-opacity="1" stop-color="rgb(100%, 39.448547%, 25.106812%)" offset="0.535156"/><stop stop-opacity="1" stop-color="rgb(100%, 39.595032%, 25.149536%)" offset="0.539062"/><stop stop-opacity="1" stop-color="rgb(100%, 39.743042%, 25.193787%)" offset="0.542969"/><stop stop-opacity="1" stop-color="rgb(100%, 39.889526%, 25.236511%)" offset="0.546875"/><stop stop-opacity="1" stop-color="rgb(100%, 40.037537%, 25.279236%)" offset="0.550781"/><stop stop-opacity="1" stop-color="rgb(100%, 40.184021%, 25.32196%)" offset="0.554688"/><stop stop-opacity="1" stop-color="rgb(100%, 40.332031%, 25.364685%)" offset="0.558594"/><stop stop-opacity="1" stop-color="rgb(100%, 40.478516%, 25.40741%)" offset="0.5625"/><stop stop-opacity="1" stop-color="rgb(100%, 40.626526%, 25.45166%)" offset="0.566406"/><stop stop-opacity="1" stop-color="rgb(100%, 40.77301%, 25.494385%)" offset="0.570312"/><stop stop-opacity="1" stop-color="rgb(100%, 40.921021%, 25.537109%)" offset="0.574219"/><stop stop-opacity="1" stop-color="rgb(100%, 41.067505%, 25.579834%)" offset="0.578125"/><stop stop-opacity="1" stop-color="rgb(100%, 41.215515%, 25.622559%)" offset="0.582031"/><stop stop-opacity="1" stop-color="rgb(100%, 41.362%, 25.665283%)" offset="0.585938"/><stop stop-opacity="1" stop-color="rgb(100%, 41.51001%, 25.709534%)" offset="0.589844"/><stop stop-opacity="1" stop-color="rgb(100%, 41.656494%, 25.752258%)" offset="0.59375"/><stop stop-opacity="1" stop-color="rgb(100%, 41.804504%, 25.794983%)" offset="0.597656"/><stop stop-opacity="1" stop-color="rgb(100%, 41.950989%, 25.837708%)" offset="0.601562"/><stop stop-opacity="1" stop-color="rgb(100%, 42.098999%, 25.880432%)" offset="0.605469"/><stop stop-opacity="1" stop-color="rgb(100%, 42.245483%, 25.923157%)" offset="0.609375"/><stop stop-opacity="1" stop-color="rgb(100%, 42.393494%, 25.967407%)" offset="0.613281"/><stop stop-opacity="1" stop-color="rgb(100%, 42.539978%, 26.010132%)" offset="0.617188"/><stop stop-opacity="1" stop-color="rgb(100%, 42.687988%, 26.052856%)" offset="0.621094"/><stop stop-opacity="1" stop-color="rgb(100%, 42.834473%, 26.095581%)" offset="0.625"/><stop stop-opacity="1" stop-color="rgb(100%, 43.055725%, 26.159668%)" offset="0.628906"/><stop stop-opacity="1" stop-color="rgb(100%, 43.35022%, 26.245117%)" offset="0.636719"/><stop stop-opacity="1" stop-color="rgb(100%, 43.644714%, 26.332092%)" offset="0.644531"/><stop stop-opacity="1" stop-color="rgb(100%, 43.939209%, 26.417542%)" offset="0.652344"/><stop stop-opacity="1" stop-color="rgb(100%, 44.233704%, 26.502991%)" offset="0.660156"/><stop stop-opacity="1" stop-color="rgb(100%, 44.528198%, 26.589966%)" offset="0.667969"/><stop stop-opacity="1" stop-color="rgb(100%, 44.822693%, 26.675415%)" offset="0.675781"/><stop stop-opacity="1" stop-color="rgb(100%, 45.117188%, 26.760864%)" offset="0.683594"/><stop stop-opacity="1" stop-color="rgb(100%, 45.411682%, 26.847839%)" offset="0.691406"/><stop stop-opacity="1" stop-color="rgb(100%, 45.706177%, 26.933289%)" offset="0.699219"/><stop stop-opacity="1" stop-color="rgb(100%, 46.000671%, 27.018738%)" offset="0.707031"/><stop stop-opacity="1" stop-color="rgb(100%, 46.295166%, 27.105713%)" offset="0.714844"/><stop stop-opacity="1" stop-color="rgb(100%, 46.589661%, 27.191162%)" offset="0.722656"/><stop stop-opacity="1" stop-color="rgb(100%, 46.884155%, 27.276611%)" offset="0.730469"/><stop stop-opacity="1" stop-color="rgb(100%, 47.17865%, 27.363586%)" offset="0.738281"/><stop stop-opacity="1" stop-color="rgb(100%, 47.473145%, 27.449036%)" offset="0.746094"/><stop stop-opacity="1" stop-color="rgb(100%, 47.694397%, 27.513123%)" offset="0.753906"/><stop stop-opacity="1" stop-color="rgb(100%, 47.842407%, 27.555847%)" offset="0.757812"/><stop stop-opacity="1" stop-color="rgb(100%, 47.988892%, 27.600098%)" offset="0.761719"/><stop stop-opacity="1" stop-color="rgb(100%, 48.136902%, 27.642822%)" offset="0.765625"/><stop stop-opacity="1" stop-color="rgb(100%, 48.283386%, 27.685547%)" offset="0.769531"/><stop stop-opacity="1" stop-color="rgb(100%, 48.431396%, 27.728271%)" offset="0.773438"/><stop stop-opacity="1" stop-color="rgb(100%, 48.577881%, 27.770996%)" offset="0.777344"/><stop stop-opacity="1" stop-color="rgb(100%, 48.725891%, 27.813721%)" offset="0.78125"/><stop stop-opacity="1" stop-color="rgb(100%, 48.872375%, 27.857971%)" offset="0.785156"/><stop stop-opacity="1" stop-color="rgb(100%, 49.020386%, 27.900696%)" offset="0.789062"/><stop stop-opacity="1" stop-color="rgb(100%, 49.16687%, 27.94342%)" offset="0.792969"/><stop stop-opacity="1" stop-color="rgb(100%, 49.31488%, 27.986145%)" offset="0.796875"/><stop stop-opacity="1" stop-color="rgb(100%, 49.461365%, 28.02887%)" offset="0.800781"/><stop stop-opacity="1" stop-color="rgb(100%, 49.609375%, 28.071594%)" offset="0.804688"/><stop stop-opacity="1" stop-color="rgb(100%, 49.755859%, 28.115845%)" offset="0.808594"/><stop stop-opacity="1" stop-color="rgb(100%, 49.90387%, 28.158569%)" offset="0.8125"/><stop stop-opacity="1" stop-color="rgb(100%, 50.123596%, 28.222656%)" offset="0.816406"/><stop stop-opacity="1" stop-color="rgb(100%, 50.418091%, 28.308105%)" offset="0.824219"/><stop stop-opacity="1" stop-color="rgb(100%, 50.712585%, 28.393555%)" offset="0.832031"/><stop stop-opacity="1" stop-color="rgb(100%, 51.008606%, 28.48053%)" offset="0.839844"/><stop stop-opacity="1" stop-color="rgb(100%, 51.303101%, 28.565979%)" offset="0.847656"/><stop stop-opacity="1" stop-color="rgb(100%, 51.597595%, 28.651428%)" offset="0.855469"/><stop stop-opacity="1" stop-color="rgb(100%, 51.89209%, 28.738403%)" offset="0.863281"/><stop stop-opacity="1" stop-color="rgb(100%, 52.186584%, 28.823853%)" offset="0.871094"/><stop stop-opacity="1" stop-color="rgb(100%, 52.407837%, 28.887939%)" offset="0.878906"/><stop stop-opacity="1" stop-color="rgb(100%, 52.554321%, 28.93219%)" offset="0.882812"/><stop stop-opacity="1" stop-color="rgb(100%, 52.702332%, 28.974915%)" offset="0.886719"/><stop stop-opacity="1" stop-color="rgb(100%, 52.848816%, 29.017639%)" offset="0.890625"/><stop stop-opacity="1" stop-color="rgb(100%, 52.996826%, 29.060364%)" offset="0.894531"/><stop stop-opacity="1" stop-color="rgb(100%, 53.143311%, 29.103088%)" offset="0.898438"/><stop stop-opacity="1" stop-color="rgb(100%, 53.291321%, 29.145813%)" offset="0.902344"/><stop stop-opacity="1" stop-color="rgb(100%, 53.437805%, 29.190063%)" offset="0.90625"/><stop stop-opacity="1" stop-color="rgb(100%, 53.659058%, 29.25415%)" offset="0.910156"/><stop stop-opacity="1" stop-color="rgb(100%, 53.953552%, 29.3396%)" offset="0.917969"/><stop stop-opacity="1" stop-color="rgb(100%, 54.248047%, 29.425049%)" offset="0.925781"/><stop stop-opacity="1" stop-color="rgb(100%, 54.542542%, 29.512024%)" offset="0.933594"/><stop stop-opacity="1" stop-color="rgb(100%, 54.763794%, 29.576111%)" offset="0.941406"/><stop stop-opacity="1" stop-color="rgb(100%, 54.910278%, 29.618835%)" offset="0.945312"/><stop stop-opacity="1" stop-color="rgb(100%, 55.058289%, 29.66156%)" offset="0.949219"/><stop stop-opacity="1" stop-color="rgb(100%, 55.204773%, 29.704285%)" offset="0.953125"/><stop stop-opacity="1" stop-color="rgb(100%, 55.426025%, 29.769897%)" offset="0.957031"/><stop stop-opacity="1" stop-color="rgb(100%, 55.72052%, 29.855347%)" offset="0.964844"/><stop stop-opacity="1" stop-color="rgb(100%, 55.941772%, 29.919434%)" offset="0.972656"/><stop stop-opacity="1" stop-color="rgb(100%, 56.088257%, 29.962158%)" offset="0.976562"/><stop stop-opacity="1" stop-color="rgb(100%, 56.309509%, 30.027771%)" offset="0.980469"/><stop stop-opacity="1" stop-color="rgb(100%, 56.530762%, 30.091858%)" offset="0.988281"/><stop stop-opacity="1" stop-color="rgb(100%, 56.750488%, 30.155945%)" offset="0.992188"/><stop stop-opacity="1" stop-color="rgb(100%, 56.898499%, 30.198669%)" offset="1"/></radialGradient></defs><path fill="#ffffff" d="M 261.875 112.859375 C 261.875 114.085938 261.84375 115.308594 261.785156 116.535156 C 261.722656 117.757812 261.632812 118.980469 261.515625 120.199219 C 261.394531 121.417969 261.242188 122.632812 261.0625 123.84375 C 260.882812 125.058594 260.675781 126.265625 260.4375 127.464844 C 260.195312 128.667969 259.929688 129.863281 259.628906 131.050781 C 259.332031 132.238281 259.007812 133.417969 258.652344 134.59375 C 258.296875 135.765625 257.910156 136.925781 257.5 138.082031 C 257.085938 139.234375 256.644531 140.378906 256.175781 141.507812 C 255.707031 142.640625 255.210938 143.761719 254.6875 144.867188 C 254.164062 145.976562 253.613281 147.070312 253.035156 148.148438 C 252.457031 149.230469 251.851562 150.296875 251.222656 151.347656 C 250.59375 152.398438 249.9375 153.433594 249.257812 154.453125 C 248.578125 155.46875 247.871094 156.472656 247.140625 157.457031 C 246.414062 158.441406 245.660156 159.40625 244.882812 160.351562 C 244.105469 161.300781 243.304688 162.226562 242.480469 163.136719 C 241.660156 164.042969 240.8125 164.929688 239.949219 165.796875 C 239.082031 166.664062 238.195312 167.507812 237.285156 168.328125 C 236.378906 169.152344 235.453125 169.953125 234.503906 170.730469 C 233.558594 171.507812 232.589844 172.261719 231.609375 172.992188 C 230.625 173.71875 229.621094 174.425781 228.601562 175.105469 C 227.585938 175.785156 226.550781 176.441406 225.5 177.070312 C 224.449219 177.703125 223.382812 178.304688 222.300781 178.882812 C 221.222656 179.460938 220.128906 180.011719 219.019531 180.535156 C 217.914062 181.058594 216.792969 181.554688 215.660156 182.023438 C 214.527344 182.492188 213.386719 182.933594 212.234375 183.347656 C 211.078125 183.757812 209.917969 184.144531 208.742188 184.5 C 207.570312 184.855469 206.390625 185.179688 205.203125 185.480469 C 204.015625 185.777344 202.820312 186.046875 201.617188 186.285156 C 200.414062 186.523438 199.207031 186.734375 197.996094 186.914062 C 196.785156 187.09375 195.570312 187.242188 194.351562 187.363281 C 193.128906 187.480469 191.910156 187.574219 190.6875 187.632812 C 189.460938 187.691406 188.238281 187.722656 187.011719 187.722656 C 185.789062 187.722656 184.5625 187.691406 183.339844 187.632812 C 182.117188 187.574219 180.894531 187.480469 179.675781 187.363281 C 178.457031 187.242188 177.238281 187.09375 176.027344 186.914062 C 174.816406 186.734375 173.609375 186.523438 172.40625 186.285156 C 171.207031 186.046875 170.011719 185.777344 168.824219 185.480469 C 167.632812 185.179688 166.453125 184.855469 165.28125 184.5 C 164.109375 184.144531 162.945312 183.757812 161.792969 183.347656 C 160.636719 182.933594 159.496094 182.492188 158.363281 182.023438 C 157.230469 181.554688 156.113281 181.058594 155.003906 180.535156 C 153.898438 180.011719 152.804688 179.460938 151.722656 178.882812 C 150.640625 178.304688 149.578125 177.703125 148.527344 177.070312 C 147.476562 176.441406 146.441406 175.785156 145.421875 175.105469 C 144.402344 174.425781 143.402344 173.71875 142.417969 172.992188 C 141.433594 172.261719 140.46875 171.507812 139.519531 170.730469 C 138.574219 169.953125 137.644531 169.152344 136.738281 168.328125 C 135.832031 167.507812 134.941406 166.664062 134.078125 165.796875 C 133.210938 164.929688 132.367188 164.042969 131.542969 163.136719 C 130.71875 162.226562 129.921875 161.300781 129.144531 160.351562 C 128.367188 159.40625 127.613281 158.441406 126.882812 157.457031 C 126.152344 156.472656 125.449219 155.46875 124.765625 154.453125 C 124.085938 153.433594 123.429688 152.398438 122.800781 151.347656 C 122.171875 150.296875 121.566406 149.230469 120.988281 148.148438 C 120.414062 147.070312 119.863281 145.976562 119.339844 144.867188 C 118.8125 143.761719 118.316406 142.640625 117.847656 141.507812 C 117.378906 140.378906 116.9375 139.234375 116.527344 138.082031 C 116.113281 136.925781 115.730469 135.765625 115.375 134.59375 C 115.019531 133.417969 114.691406 132.238281 114.394531 131.050781 C 114.097656 129.863281 113.828125 128.667969 113.589844 127.464844 C 113.351562 126.265625 113.140625 125.058594 112.960938 123.84375 C 112.78125 122.632812 112.632812 121.417969 112.511719 120.199219 C 112.390625 118.980469 112.300781 117.757812 112.242188 116.535156 C 112.179688 115.308594 112.152344 114.085938 112.152344 112.859375 C 112.152344 111.636719 112.179688 110.410156 112.242188 109.1875 C 112.300781 107.964844 112.390625 106.742188 112.511719 105.523438 C 112.632812 104.304688 112.78125 103.089844 112.960938 101.875 C 113.140625 100.664062 113.351562 99.457031 113.589844 98.257812 C 113.828125 97.054688 114.097656 95.859375 114.394531 94.671875 C 114.691406 93.480469 115.019531 92.300781 115.375 91.128906 C 115.730469 89.957031 116.113281 88.792969 116.527344 87.640625 C 116.9375 86.488281 117.378906 85.34375 117.847656 84.210938 C 118.316406 83.082031 118.8125 81.960938 119.339844 80.851562 C 119.863281 79.746094 120.414062 78.652344 120.988281 77.570312 C 121.566406 76.492188 122.171875 75.425781 122.800781 74.375 C 123.429688 73.324219 124.085938 72.289062 124.765625 71.269531 C 125.449219 70.25 126.152344 69.25 126.882812 68.265625 C 127.613281 67.28125 128.367188 66.316406 129.144531 65.367188 C 129.921875 64.421875 130.71875 63.496094 131.542969 62.585938 C 132.367188 61.679688 133.210938 60.792969 134.078125 59.925781 C 134.941406 59.058594 135.832031 58.214844 136.738281 57.390625 C 137.644531 56.570312 138.574219 55.769531 139.519531 54.992188 C 140.46875 54.214844 141.433594 53.460938 142.417969 52.730469 C 143.402344 52 144.402344 51.296875 145.421875 50.617188 C 146.441406 49.933594 147.476562 49.28125 148.527344 48.648438 C 149.578125 48.019531 150.640625 47.414062 151.722656 46.839844 C 152.804688 46.261719 153.898438 45.710938 155.003906 45.1875 C 156.113281 44.664062 157.230469 44.167969 158.363281 43.699219 C 159.496094 43.230469 160.636719 42.789062 161.792969 42.375 C 162.945312 41.960938 164.109375 41.578125 165.28125 41.222656 C 166.453125 40.867188 167.632812 40.539062 168.824219 40.242188 C 170.011719 39.945312 171.207031 39.675781 172.40625 39.4375 C 173.609375 39.199219 174.816406 38.988281 176.027344 38.808594 C 177.238281 38.628906 178.457031 38.480469 179.675781 38.359375 C 180.894531 38.238281 182.117188 38.148438 183.339844 38.089844 C 184.5625 38.027344 185.789062 38 187.011719 38 C 188.238281 38 189.460938 38.027344 190.6875 38.089844 C 191.910156 38.148438 193.128906 38.238281 194.351562 38.359375 C 195.570312 38.480469 196.785156 38.628906 197.996094 38.808594 C 199.207031 38.988281 200.414062 39.199219 201.617188 39.4375 C 202.820312 39.675781 204.015625 39.945312 205.203125 40.242188 C 206.390625 40.539062 207.570312 40.867188 208.742188 41.222656 C 209.914062 41.578125 211.078125 41.960938 212.234375 42.375 C 213.386719 42.789062 214.527344 43.230469 215.660156 43.699219 C 216.792969 44.167969 217.914062 44.664062 219.019531 45.1875 C 220.128906 45.710938 221.222656 46.261719 222.300781 46.839844 C 223.382812 47.414062 224.449219 48.019531 225.5 48.648438 C 226.550781 49.28125 227.585938 49.933594 228.601562 50.617188 C 229.621094 51.296875 230.625 52 231.609375 52.730469 C 232.589844 53.460938 233.558594 54.214844 234.503906 54.992188 C 235.453125 55.769531 236.378906 56.570312 237.285156 57.390625 C 238.195312 58.214844 239.082031 59.058594 239.949219 59.925781 C 240.8125 60.792969 241.660156 61.679688 242.480469 62.585938 C 243.304688 63.496094 244.105469 64.421875 244.882812 65.367188 C 245.660156 66.316406 246.414062 67.28125 247.140625 68.265625 C 247.871094 69.25 248.578125 70.25 249.257812 71.269531 C 249.9375 72.289062 250.59375 73.324219 251.222656 74.375 C 251.851562 75.425781 252.457031 76.492188 253.035156 77.570312 C 253.613281 78.652344 254.164062 79.746094 254.6875 80.851562 C 255.210938 81.960938 255.707031 83.082031 256.175781 84.210938 C 256.644531 85.34375 257.085938 86.488281 257.5 87.640625 C 257.910156 88.792969 258.296875 89.957031 258.652344 91.128906 C 259.007812 92.300781 259.332031 93.480469 259.628906 94.671875 C 259.929688 95.859375 260.195312 97.054688 260.4375 98.257812 C 260.675781 99.457031 260.882812 100.664062 261.0625 101.875 C 261.242188 103.089844 261.394531 104.304688 261.515625 105.523438 C 261.632812 106.742188 261.722656 107.964844 261.785156 109.1875 C 261.84375 110.410156 261.875 111.636719 261.875 112.859375 Z M 261.875 112.859375 " fill-opacity="1" fill-rule="nonzero"/><path fill="#ffffff" d="M 86.402344 322.957031 L 287.621094 322.957031 C 288.351562 322.949219 289.082031 322.917969 289.808594 322.867188 C 290.535156 322.816406 291.261719 322.742188 291.988281 322.644531 C 292.710938 322.550781 293.429688 322.433594 294.148438 322.296875 C 294.863281 322.15625 295.574219 321.996094 296.28125 321.816406 C 296.988281 321.636719 297.691406 321.433594 298.386719 321.210938 C 299.082031 320.984375 299.769531 320.742188 300.449219 320.476562 C 301.128906 320.214844 301.800781 319.929688 302.464844 319.625 C 303.128906 319.320312 303.78125 318.996094 304.425781 318.652344 C 305.070312 318.308594 305.703125 317.945312 306.324219 317.5625 C 306.945312 317.183594 307.558594 316.78125 308.15625 316.363281 C 308.753906 315.945312 309.339844 315.507812 309.910156 315.054688 C 310.484375 314.601562 311.039062 314.132812 311.585938 313.644531 C 312.128906 313.160156 312.65625 312.65625 313.171875 312.136719 C 313.683594 311.617188 314.183594 311.085938 314.664062 310.539062 C 315.144531 309.988281 315.609375 309.425781 316.058594 308.851562 C 316.507812 308.273438 316.9375 307.683594 317.351562 307.082031 C 317.761719 306.480469 318.15625 305.867188 318.535156 305.242188 C 318.910156 304.617188 319.265625 303.980469 319.605469 303.332031 C 319.941406 302.683594 320.261719 302.027344 320.558594 301.363281 C 320.859375 300.695312 321.136719 300.023438 321.394531 299.339844 C 321.652344 298.65625 321.890625 297.964844 322.105469 297.269531 C 322.324219 296.574219 322.519531 295.871094 322.695312 295.160156 C 322.867188 294.453125 323.023438 293.738281 323.152344 293.019531 C 323.285156 292.304688 323.394531 291.582031 323.484375 290.855469 C 323.574219 290.132812 323.640625 289.40625 323.683594 288.675781 C 323.730469 287.949219 323.753906 287.21875 323.753906 286.488281 C 323.757812 285.761719 323.734375 285.03125 323.695312 284.300781 C 323.652344 283.574219 323.585938 282.847656 323.5 282.121094 C 323.414062 281.398438 323.308594 280.675781 323.179688 279.957031 C 323.050781 279.238281 322.898438 278.523438 322.726562 277.816406 C 322.554688 277.105469 322.363281 276.402344 322.148438 275.703125 C 321.933594 275.007812 321.699219 274.316406 321.445312 273.632812 C 320.40625 271.007812 319.273438 268.429688 318.042969 265.890625 C 316.8125 263.351562 315.492188 260.863281 314.074219 258.425781 C 312.65625 255.988281 311.152344 253.605469 309.558594 251.277344 C 307.960938 248.953125 306.28125 246.691406 304.515625 244.488281 C 302.753906 242.289062 300.910156 240.160156 298.984375 238.097656 C 297.058594 236.035156 295.0625 234.046875 292.988281 232.136719 C 290.914062 230.222656 288.773438 228.390625 286.5625 226.640625 C 284.351562 224.886719 282.082031 223.222656 279.746094 221.640625 C 277.410156 220.058594 275.019531 218.566406 272.570312 217.164062 C 270.125 215.761719 267.628906 214.453125 265.085938 213.238281 C 262.539062 212.023438 259.953125 210.902344 257.324219 209.882812 C 254.695312 208.859375 252.03125 207.9375 249.332031 207.117188 C 246.636719 206.292969 243.910156 205.574219 241.160156 204.957031 C 238.40625 204.339844 235.636719 203.824219 232.847656 203.414062 C 230.054688 203.003906 227.253906 202.699219 224.441406 202.496094 C 221.628906 202.296875 218.8125 202.203125 215.992188 202.210938 L 158.035156 202.210938 C 155.214844 202.210938 152.402344 202.316406 149.589844 202.523438 C 146.78125 202.734375 143.980469 203.046875 141.195312 203.464844 C 138.40625 203.882812 135.640625 204.402344 132.890625 205.027344 C 130.140625 205.648438 127.421875 206.375 124.726562 207.199219 C 122.03125 208.027344 119.371094 208.953125 116.746094 209.976562 C 114.121094 211 111.539062 212.121094 108.996094 213.339844 C 106.453125 214.554688 103.960938 215.863281 101.515625 217.265625 C 99.070312 218.667969 96.683594 220.160156 94.347656 221.742188 C 92.015625 223.320312 89.742188 224.984375 87.535156 226.734375 C 85.324219 228.484375 83.183594 230.3125 81.109375 232.222656 C 79.039062 234.132812 77.039062 236.117188 75.113281 238.171875 C 73.1875 240.230469 71.339844 242.359375 69.574219 244.554688 C 67.804688 246.75 66.125 249.007812 64.523438 251.328125 C 62.925781 253.648438 61.414062 256.023438 59.992188 258.457031 C 58.570312 260.890625 57.242188 263.375 56.003906 265.90625 C 54.765625 268.4375 53.625 271.011719 52.582031 273.628906 C 52.324219 274.3125 52.089844 275.003906 51.875 275.703125 C 51.660156 276.402344 51.46875 277.105469 51.296875 277.8125 C 51.125 278.523438 50.972656 279.238281 50.84375 279.957031 C 50.714844 280.675781 50.609375 281.394531 50.523438 282.121094 C 50.4375 282.847656 50.371094 283.574219 50.328125 284.300781 C 50.285156 285.03125 50.265625 285.757812 50.269531 286.488281 C 50.269531 287.21875 50.292969 287.949219 50.335938 288.675781 C 50.382812 289.40625 50.449219 290.132812 50.539062 290.855469 C 50.625 291.582031 50.738281 292.304688 50.867188 293.019531 C 51 293.738281 51.152344 294.453125 51.328125 295.160156 C 51.503906 295.871094 51.699219 296.574219 51.914062 297.269531 C 52.132812 297.96875 52.367188 298.65625 52.628906 299.339844 C 52.886719 300.023438 53.164062 300.699219 53.460938 301.363281 C 53.761719 302.03125 54.078125 302.6875 54.417969 303.332031 C 54.753906 303.980469 55.113281 304.617188 55.488281 305.242188 C 55.863281 305.867188 56.257812 306.484375 56.671875 307.085938 C 57.082031 307.6875 57.515625 308.277344 57.960938 308.851562 C 58.410156 309.429688 58.875 309.992188 59.355469 310.539062 C 59.839844 311.085938 60.335938 311.621094 60.851562 312.140625 C 61.363281 312.660156 61.894531 313.160156 62.4375 313.648438 C 62.980469 314.132812 63.539062 314.605469 64.113281 315.058594 C 64.683594 315.511719 65.269531 315.949219 65.867188 316.367188 C 66.464844 316.785156 67.074219 317.183594 67.699219 317.566406 C 68.320312 317.949219 68.953125 318.308594 69.597656 318.652344 C 70.242188 318.996094 70.894531 319.320312 71.558594 319.625 C 72.222656 319.929688 72.894531 320.214844 73.574219 320.480469 C 74.253906 320.746094 74.941406 320.988281 75.636719 321.210938 C 76.332031 321.433594 77.035156 321.636719 77.742188 321.816406 C 78.449219 322 79.160156 322.160156 79.875 322.296875 C 80.59375 322.433594 81.3125 322.550781 82.039062 322.648438 C 82.761719 322.742188 83.488281 322.816406 84.214844 322.867188 C 84.945312 322.917969 85.671875 322.949219 86.402344 322.957031 Z M 86.402344 322.957031 " fill-opacity="1" fill-rule="nonzero"/><g clip-path="url(#c8d8549f3c)"><g clip-path="url(#b3d162ed4c)"><path fill="url(#07e6d35670)" d="M 0 0.726562 L 0 374.273438 L 373.546875 374.273438 L 373.546875 0.726562 Z M 0 0.726562 " fill-rule="nonzero"/></g></g><path fill="#ffffff" d="M 267.148438 112.859375 C 267.148438 114.085938 267.117188 115.308594 267.058594 116.535156 C 266.996094 117.757812 266.90625 118.980469 266.789062 120.199219 C 266.667969 121.417969 266.519531 122.632812 266.335938 123.84375 C 266.15625 125.058594 265.949219 126.265625 265.710938 127.464844 C 265.46875 128.667969 265.203125 129.863281 264.90625 131.050781 C 264.605469 132.238281 264.28125 133.417969 263.925781 134.59375 C 263.570312 135.765625 263.183594 136.925781 262.773438 138.082031 C 262.359375 139.234375 261.917969 140.378906 261.449219 141.507812 C 260.980469 142.640625 260.484375 143.761719 259.960938 144.867188 C 259.4375 145.976562 258.886719 147.070312 258.308594 148.148438 C 257.730469 149.230469 257.128906 150.296875 256.496094 151.347656 C 255.867188 152.398438 255.210938 153.433594 254.53125 154.453125 C 253.851562 155.46875 253.144531 156.472656 252.414062 157.457031 C 251.6875 158.441406 250.933594 159.40625 250.15625 160.351562 C 249.378906 161.300781 248.578125 162.226562 247.753906 163.136719 C 246.933594 164.042969 246.089844 164.929688 245.222656 165.796875 C 244.355469 166.664062 243.46875 167.507812 242.558594 168.328125 C 241.652344 169.152344 240.726562 169.953125 239.777344 170.730469 C 238.832031 171.507812 237.867188 172.261719 236.882812 172.992188 C 235.898438 173.71875 234.894531 174.425781 233.878906 175.105469 C 232.859375 175.785156 231.824219 176.441406 230.773438 177.070312 C 229.722656 177.703125 228.65625 178.304688 227.574219 178.882812 C 226.496094 179.460938 225.402344 180.011719 224.292969 180.535156 C 223.1875 181.058594 222.066406 181.554688 220.933594 182.023438 C 219.800781 182.492188 218.660156 182.933594 217.507812 183.347656 C 216.351562 183.757812 215.191406 184.144531 214.015625 184.5 C 212.84375 184.855469 211.664062 185.179688 210.476562 185.480469 C 209.289062 185.777344 208.09375 186.046875 206.890625 186.285156 C 205.6875 186.523438 204.484375 186.734375 203.269531 186.914062 C 202.058594 187.09375 200.84375 187.242188 199.625 187.363281 C 198.40625 187.480469 197.183594 187.574219 195.960938 187.632812 C 194.734375 187.691406 193.511719 187.722656 192.285156 187.722656 C 191.0625 187.722656 189.835938 187.691406 188.613281 187.632812 C 187.390625 187.574219 186.167969 187.480469 184.949219 187.363281 C 183.730469 187.242188 182.511719 187.09375 181.300781 186.914062 C 180.089844 186.734375 178.882812 186.523438 177.679688 186.285156 C 176.480469 186.046875 175.285156 185.777344 174.097656 185.480469 C 172.90625 185.179688 171.726562 184.855469 170.554688 184.5 C 169.382812 184.144531 168.21875 183.757812 167.066406 183.347656 C 165.914062 182.933594 164.769531 182.492188 163.636719 182.023438 C 162.507812 181.554688 161.386719 181.058594 160.277344 180.535156 C 159.171875 180.011719 158.078125 179.460938 156.996094 178.882812 C 155.917969 178.304688 154.851562 177.703125 153.800781 177.070312 C 152.75 176.441406 151.714844 175.785156 150.695312 175.105469 C 149.675781 174.425781 148.675781 173.71875 147.691406 172.992188 C 146.707031 172.261719 145.742188 171.507812 144.792969 170.730469 C 143.847656 169.953125 142.917969 169.152344 142.011719 168.328125 C 141.105469 167.507812 140.21875 166.664062 139.351562 165.796875 C 138.484375 164.929688 137.640625 164.042969 136.816406 163.136719 C 135.996094 162.226562 135.195312 161.300781 134.417969 160.351562 C 133.640625 159.40625 132.886719 158.441406 132.15625 157.457031 C 131.425781 156.472656 130.722656 155.46875 130.039062 154.453125 C 129.359375 153.433594 128.703125 152.398438 128.074219 151.347656 C 127.445312 150.296875 126.839844 149.230469 126.265625 148.148438 C 125.6875 147.070312 125.136719 145.976562 124.613281 144.867188 C 124.089844 143.761719 123.589844 142.640625 123.121094 141.507812 C 122.652344 140.378906 122.214844 139.234375 121.800781 138.082031 C 121.386719 136.925781 121.003906 135.765625 120.648438 134.59375 C 120.292969 133.417969 119.964844 132.238281 119.667969 131.050781 C 119.371094 129.863281 119.101562 128.667969 118.863281 127.464844 C 118.625 126.265625 118.414062 125.058594 118.234375 123.84375 C 118.054688 122.632812 117.90625 121.417969 117.785156 120.199219 C 117.664062 118.980469 117.574219 117.757812 117.515625 116.535156 C 117.453125 115.308594 117.425781 114.085938 117.425781 112.859375 C 117.425781 111.636719 117.453125 110.410156 117.515625 109.1875 C 117.574219 107.964844 117.664062 106.742188 117.785156 105.523438 C 117.90625 104.304688 118.054688 103.089844 118.234375 101.875 C 118.414062 100.664062 118.625 99.457031 118.863281 98.257812 C 119.101562 97.054688 119.371094 95.859375 119.667969 94.671875 C 119.964844 93.480469 120.292969 92.300781 120.648438 91.128906 C 121.003906 89.957031 121.386719 88.792969 121.800781 87.640625 C 122.214844 86.488281 122.652344 85.34375 123.121094 84.210938 C 123.589844 83.082031 124.089844 81.960938 124.613281 80.851562 C 125.136719 79.746094 125.6875 78.652344 126.265625 77.570312 C 126.839844 76.492188 127.445312 75.425781 128.074219 74.375 C 128.703125 73.324219 129.359375 72.289062 130.039062 71.269531 C 130.722656 70.25 131.425781 69.25 132.15625 68.265625 C 132.886719 67.28125 133.640625 66.316406 134.417969 65.367188 C 135.195312 64.421875 135.996094 63.496094 136.816406 62.585938 C 137.640625 61.679688 138.484375 60.792969 139.351562 59.925781 C 140.21875 59.058594 141.105469 58.214844 142.011719 57.390625 C 142.917969 56.570312 143.847656 55.769531 144.792969 54.992188 C 145.742188 54.214844 146.707031 53.460938 147.691406 52.730469 C 148.675781 52 149.675781 51.296875 150.695312 50.617188 C 151.714844 49.933594 152.75 49.28125 153.800781 48.648438 C 154.851562 48.019531 155.917969 47.414062 156.996094 46.839844 C 158.078125 46.261719 159.171875 45.710938 160.277344 45.1875 C 161.386719 44.664062 162.507812 44.167969 163.636719 43.699219 C 164.769531 43.230469 165.914062 42.789062 167.066406 42.375 C 168.21875 41.960938 169.382812 41.578125 170.554688 41.222656 C 171.726562 40.867188 172.90625 40.539062 174.097656 40.242188 C 175.285156 39.945312 176.480469 39.675781 177.679688 39.4375 C 178.882812 39.199219 180.089844 38.988281 181.300781 38.808594 C 182.511719 38.628906 183.730469 38.480469 184.949219 38.359375 C 186.167969 38.238281 187.390625 38.148438 188.613281 38.089844 C 189.835938 38.027344 191.0625 38 192.285156 38 C 193.511719 38 194.734375 38.027344 195.960938 38.089844 C 197.183594 38.148438 198.40625 38.238281 199.625 38.359375 C 200.84375 38.480469 202.058594 38.628906 203.269531 38.808594 C 204.484375 38.988281 205.6875 39.199219 206.890625 39.4375 C 208.09375 39.675781 209.289062 39.945312 210.476562 40.242188 C 211.664062 40.539062 212.84375 40.867188 214.015625 41.222656 C 215.191406 41.578125 216.351562 41.960938 217.507812 42.375 C 218.660156 42.789062 219.800781 43.230469 220.933594 43.699219 C 222.066406 44.167969 223.1875 44.664062 224.292969 45.1875 C 225.402344 45.710938 226.496094 46.261719 227.574219 46.839844 C 228.65625 47.414062 229.722656 48.019531 230.773438 48.648438 C 231.824219 49.28125 232.859375 49.933594 233.878906 50.617188 C 234.894531 51.296875 235.898438 52 236.882812 52.730469 C 237.867188 53.460938 238.832031 54.214844 239.777344 54.992188 C 240.726562 55.769531 241.652344 56.570312 242.558594 57.390625 C 243.46875 58.214844 244.355469 59.058594 245.222656 59.925781 C 246.089844 60.792969 246.933594 61.679688 247.753906 62.585938 C 248.578125 63.496094 249.378906 64.421875 250.15625 65.367188 C 250.933594 66.316406 251.6875 67.28125 252.414062 68.265625 C 253.144531 69.25 253.851562 70.25 254.53125 71.269531 C 255.210938 72.289062 255.867188 73.324219 256.496094 74.375 C 257.128906 75.425781 257.730469 76.492188 258.308594 77.570312 C 258.886719 78.652344 259.4375 79.746094 259.960938 80.851562 C 260.484375 81.960938 260.980469 83.082031 261.449219 84.210938 C 261.917969 85.34375 262.359375 86.488281 262.773438 87.640625 C 263.183594 88.792969 263.570312 89.957031 263.925781 91.128906 C 264.28125 92.300781 264.605469 93.480469 264.90625 94.671875 C 265.203125 95.859375 265.46875 97.054688 265.710938 98.257812 C 265.949219 99.457031 266.15625 100.664062 266.335938 101.875 C 266.519531 103.089844 266.667969 104.304688 266.789062 105.523438 C 266.90625 106.742188 266.996094 107.964844 267.058594 109.1875 C 267.117188 110.410156 267.148438 111.636719 267.148438 112.859375 Z M 267.148438 112.859375 " fill-opacity="1" fill-rule="nonzero"/><path fill="#ffffff" d="M 91.675781 322.957031 L 292.894531 322.957031 C 293.625 322.949219 294.355469 322.917969 295.082031 322.867188 C 295.8125 322.816406 296.535156 322.742188 297.261719 322.644531 C 297.984375 322.550781 298.703125 322.433594 299.421875 322.296875 C 300.136719 322.15625 300.851562 321.996094 301.558594 321.816406 C 302.265625 321.636719 302.964844 321.433594 303.660156 321.210938 C 304.355469 320.984375 305.042969 320.742188 305.722656 320.476562 C 306.402344 320.214844 307.074219 319.929688 307.738281 319.625 C 308.402344 319.320312 309.054688 318.996094 309.699219 318.652344 C 310.34375 318.308594 310.976562 317.945312 311.597656 317.5625 C 312.222656 317.183594 312.832031 316.78125 313.429688 316.363281 C 314.027344 315.945312 314.613281 315.507812 315.183594 315.054688 C 315.757812 314.601562 316.316406 314.132812 316.859375 313.644531 C 317.402344 313.160156 317.929688 312.65625 318.445312 312.136719 C 318.957031 311.617188 319.457031 311.085938 319.9375 310.539062 C 320.421875 309.988281 320.886719 309.425781 321.332031 308.851562 C 321.78125 308.273438 322.210938 307.683594 322.625 307.082031 C 323.039062 306.480469 323.433594 305.867188 323.808594 305.242188 C 324.183594 304.617188 324.539062 303.980469 324.878906 303.332031 C 325.214844 302.683594 325.535156 302.027344 325.832031 301.363281 C 326.132812 300.695312 326.410156 300.023438 326.667969 299.339844 C 326.925781 298.65625 327.164062 297.964844 327.378906 297.269531 C 327.597656 296.574219 327.792969 295.871094 327.96875 295.160156 C 328.140625 294.453125 328.296875 293.738281 328.425781 293.019531 C 328.558594 292.304688 328.667969 291.582031 328.757812 290.855469 C 328.847656 290.132812 328.914062 289.40625 328.960938 288.675781 C 329.003906 287.949219 329.027344 287.21875 329.027344 286.488281 C 329.03125 285.761719 329.011719 285.03125 328.96875 284.300781 C 328.925781 283.574219 328.863281 282.847656 328.777344 282.121094 C 328.691406 281.398438 328.582031 280.675781 328.453125 279.957031 C 328.324219 279.238281 328.171875 278.523438 328 277.816406 C 327.828125 277.105469 327.636719 276.402344 327.421875 275.703125 C 327.210938 275.007812 326.972656 274.316406 326.71875 273.632812 C 325.683594 271.007812 324.546875 268.429688 323.316406 265.890625 C 322.089844 263.351562 320.765625 260.863281 319.347656 258.425781 C 317.929688 255.988281 316.425781 253.605469 314.832031 251.277344 C 313.234375 248.953125 311.554688 246.691406 309.792969 244.488281 C 308.027344 242.289062 306.183594 240.160156 304.257812 238.097656 C 302.332031 236.035156 300.335938 234.046875 298.261719 232.136719 C 296.1875 230.222656 294.046875 228.390625 291.835938 226.640625 C 289.625 224.886719 287.355469 223.222656 285.019531 221.640625 C 282.683594 220.058594 280.292969 218.566406 277.847656 217.164062 C 275.398438 215.761719 272.902344 214.453125 270.359375 213.238281 C 267.8125 212.023438 265.226562 210.902344 262.597656 209.882812 C 259.96875 208.859375 257.304688 207.9375 254.609375 207.117188 C 251.910156 206.292969 249.183594 205.574219 246.433594 204.957031 C 243.679688 204.339844 240.910156 203.824219 238.121094 203.414062 C 235.328125 203.003906 232.527344 202.699219 229.714844 202.496094 C 226.902344 202.296875 224.085938 202.203125 221.265625 202.210938 L 163.308594 202.210938 C 160.488281 202.210938 157.675781 202.316406 154.863281 202.523438 C 152.054688 202.734375 149.253906 203.046875 146.46875 203.464844 C 143.679688 203.882812 140.914062 204.402344 138.164062 205.027344 C 135.417969 205.648438 132.695312 206.375 130 207.199219 C 127.304688 208.027344 124.644531 208.953125 122.019531 209.976562 C 119.394531 211 116.8125 212.121094 114.269531 213.339844 C 111.726562 214.554688 109.234375 215.863281 106.789062 217.265625 C 104.34375 218.667969 101.957031 220.160156 99.621094 221.742188 C 97.289062 223.320312 95.019531 224.984375 92.808594 226.734375 C 90.597656 228.484375 88.457031 230.3125 86.382812 232.222656 C 84.3125 234.132812 82.3125 236.117188 80.386719 238.171875 C 78.460938 240.230469 76.613281 242.359375 74.847656 244.554688 C 73.082031 246.75 71.398438 249.007812 69.796875 251.328125 C 68.199219 253.648438 66.6875 256.023438 65.265625 258.457031 C 63.84375 260.890625 62.515625 263.375 61.277344 265.90625 C 60.042969 268.4375 58.898438 271.011719 57.855469 273.628906 C 57.597656 274.3125 57.363281 275.003906 57.148438 275.703125 C 56.9375 276.402344 56.742188 277.105469 56.570312 277.8125 C 56.398438 278.523438 56.246094 279.238281 56.117188 279.957031 C 55.988281 280.675781 55.882812 281.394531 55.796875 282.121094 C 55.710938 282.847656 55.644531 283.574219 55.601562 284.300781 C 55.5625 285.03125 55.539062 285.757812 55.542969 286.488281 C 55.542969 287.21875 55.566406 287.949219 55.609375 288.675781 C 55.65625 289.40625 55.722656 290.132812 55.8125 290.855469 C 55.898438 291.582031 56.011719 292.304688 56.140625 293.019531 C 56.273438 293.738281 56.425781 294.453125 56.601562 295.160156 C 56.777344 295.871094 56.972656 296.574219 57.1875 297.269531 C 57.40625 297.96875 57.644531 298.65625 57.902344 299.339844 C 58.160156 300.023438 58.4375 300.699219 58.734375 301.363281 C 59.035156 302.03125 59.351562 302.6875 59.691406 303.332031 C 60.027344 303.980469 60.386719 304.617188 60.761719 305.242188 C 61.136719 305.867188 61.53125 306.484375 61.945312 307.085938 C 62.355469 307.6875 62.789062 308.277344 63.234375 308.851562 C 63.683594 309.429688 64.148438 309.992188 64.632812 310.539062 C 65.113281 311.085938 65.609375 311.621094 66.125 312.140625 C 66.636719 312.660156 67.167969 313.160156 67.710938 313.648438 C 68.253906 314.132812 68.8125 314.605469 69.386719 315.058594 C 69.957031 315.511719 70.542969 315.949219 71.140625 316.367188 C 71.738281 316.785156 72.347656 317.183594 72.972656 317.566406 C 73.59375 317.949219 74.226562 318.308594 74.871094 318.652344 C 75.515625 318.996094 76.167969 319.320312 76.832031 319.625 C 77.496094 319.929688 78.167969 320.214844 78.847656 320.480469 C 79.527344 320.746094 80.214844 320.988281 80.910156 321.210938 C 81.605469 321.433594 82.308594 321.636719 83.015625 321.816406 C 83.722656 322 84.433594 322.160156 85.152344 322.296875 C 85.867188 322.433594 86.585938 322.550781 87.3125 322.648438 C 88.035156 322.742188 88.761719 322.816406 89.488281 322.867188 C 90.21875 322.917969 90.945312 322.949219 91.675781 322.957031 Z M 91.675781 322.957031 " fill-opacity="1" fill-rule="nonzero"/></svg>