<svg xmlns="http://www.w3.org/2000/svg" xmlns:xlink="http://www.w3.org/1999/xlink" width="868" zoomAndPan="magnify" viewBox="0 0 651 251.250001" height="335" preserveAspectRatio="xMidYMid meet" version="1.0"><defs><filter x="0%" y="0%" width="100%" height="100%" id="31a14fef7f"><feColorMatrix values="0 0 0 0 1 0 0 0 0 1 0 0 0 0 1 0 0 0 1 0" color-interpolation-filters="sRGB"/></filter><clipPath id="cfaf4fcfcb"><path d="M 286 0 L 650.03125 0 L 650.03125 250.503906 L 286 250.503906 Z M 286 0 " clip-rule="nonzero"/></clipPath><mask id="5f7f1553be"><g filter="url(#31a14fef7f)"><rect x="-65.1" width="781.2" fill="#000000" y="-25.125" height="301.500001" fill-opacity="0.53"/></g></mask><clipPath id="4272a92e1c"><path d="M 61.21875 25.042969 L 113.5625 25.042969 L 113.5625 77.386719 L 61.21875 77.386719 Z M 61.21875 25.042969 " clip-rule="nonzero"/></clipPath><clipPath id="40b097811b"><path d="M 116 86 L 161 86 L 161 123 L 116 123 Z M 116 86 " clip-rule="nonzero"/></clipPath><clipPath id="565e568f19"><path d="M 125.605469 84.527344 L 162.722656 100.425781 L 152.125 125.171875 L 115.007812 109.273438 Z M 125.605469 84.527344 " clip-rule="nonzero"/></clipPath><clipPath id="5a867a2a2f"><path d="M 125.605469 84.527344 L 162.722656 100.425781 L 152.125 125.171875 L 115.007812 109.273438 Z M 125.605469 84.527344 " clip-rule="nonzero"/></clipPath><clipPath id="e22804de39"><path d="M 297.601562 0 L 364.03125 0 L 364.03125 62.941406 L 297.601562 62.941406 Z M 297.601562 0 " clip-rule="nonzero"/></clipPath><clipPath id="2ea0a74435"><path d="M 99 141 L 131 141 L 131 173 L 99 173 Z M 99 141 " clip-rule="nonzero"/></clipPath><clipPath id="a96223d131"><path d="M 93.625 152.460938 L 119.5 136.011719 L 135.949219 161.882812 L 110.074219 178.332031 Z M 93.625 152.460938 " clip-rule="nonzero"/></clipPath><clipPath id="dd7c4b6ff0"><path d="M 93.625 152.460938 L 119.5 136.011719 L 135.949219 161.882812 L 110.074219 178.332031 Z M 93.625 152.460938 " clip-rule="nonzero"/></clipPath><clipPath id="3a26e9cb5e"><path d="M 161 179 L 184 179 L 184 199 L 161 199 Z M 161 179 " clip-rule="nonzero"/></clipPath><clipPath id="1414855ed2"><path d="M 160.46875 188.390625 L 178.023438 178.414062 L 184.671875 190.117188 L 167.117188 200.09375 Z M 160.46875 188.390625 " clip-rule="nonzero"/></clipPath><clipPath id="fa0853765d"><path d="M 160.46875 188.390625 L 178.023438 178.414062 L 184.671875 190.117188 L 167.117188 200.09375 Z M 160.46875 188.390625 " clip-rule="nonzero"/></clipPath><clipPath id="e89d08794a"><path d="M 76 200 L 158 200 L 158 250.503906 L 76 250.503906 Z M 76 200 " clip-rule="nonzero"/></clipPath><clipPath id="74b4c0c649"><path d="M 61.21875 228.714844 L 129.371094 185.382812 L 172.699219 253.535156 L 104.550781 296.863281 Z M 61.21875 228.714844 " clip-rule="nonzero"/></clipPath><clipPath id="569f73ff4a"><path d="M 61.21875 228.714844 L 129.371094 185.382812 L 172.699219 253.535156 L 104.550781 296.863281 Z M 61.21875 228.714844 " clip-rule="nonzero"/></clipPath><clipPath id="0b30ea886f"><path d="M 122 0 L 191 0 L 191 47 L 122 47 Z M 122 0 " clip-rule="nonzero"/></clipPath><clipPath id="1da0efbf23"><path d="M 151.125 -28.113281 L 194.070312 21.746094 L 160.074219 51.027344 L 117.128906 1.167969 Z M 151.125 -28.113281 " clip-rule="nonzero"/></clipPath><clipPath id="3475b17524"><path d="M 151.125 -28.113281 L 194.070312 21.746094 L 160.074219 51.027344 L 117.128906 1.167969 Z M 151.125 -28.113281 " clip-rule="nonzero"/></clipPath><clipPath id="df7044f7dd"><path d="M 184.589844 77.480469 L 270.582031 77.480469 L 270.582031 163.472656 L 184.589844 163.472656 Z M 184.589844 77.480469 " clip-rule="nonzero"/></clipPath><clipPath id="fd512aca5b"><path d="M 224.105469 0 L 270.464844 0 L 270.464844 34.636719 L 224.105469 34.636719 Z M 224.105469 0 " clip-rule="nonzero"/></clipPath><clipPath id="512246572b"><path d="M 308 231 L 349 231 L 349 250.503906 L 308 250.503906 Z M 308 231 " clip-rule="nonzero"/></clipPath><clipPath id="46c77d3f2e"><path d="M 305.921875 260.855469 L 330.148438 228.550781 L 351.683594 244.703125 L 327.457031 277.007812 Z M 305.921875 260.855469 " clip-rule="nonzero"/></clipPath><clipPath id="bda1f647f2"><path d="M 305.921875 260.855469 L 330.148438 228.550781 L 351.683594 244.703125 L 327.457031 277.007812 Z M 305.921875 260.855469 " clip-rule="nonzero"/></clipPath><clipPath id="c3062c81b3"><path d="M 206 183 L 279 183 L 279 245 L 206 245 Z M 206 183 " clip-rule="nonzero"/></clipPath><clipPath id="10cc2b9d56"><path d="M 202.519531 209.414062 L 261.121094 179.480469 L 281.527344 219.4375 L 222.925781 249.371094 Z M 202.519531 209.414062 " clip-rule="nonzero"/></clipPath><clipPath id="dcbacc1b8b"><path d="M 202.519531 209.414062 L 261.121094 179.480469 L 281.527344 219.4375 L 222.925781 249.371094 Z M 202.519531 209.414062 " clip-rule="nonzero"/></clipPath><clipPath id="24d7534035"><path d="M 321 127 L 364.03125 127 L 364.03125 214 L 321 214 Z M 321 127 " clip-rule="nonzero"/></clipPath><clipPath id="51f5fc53ad"><path d="M 313.03125 201.875 L 333.371094 118.320312 L 416.925781 138.664062 L 396.585938 222.214844 Z M 313.03125 201.875 " clip-rule="nonzero"/></clipPath><clipPath id="b563070874"><path d="M 313.03125 201.875 L 333.371094 118.320312 L 416.925781 138.664062 L 396.585938 222.214844 Z M 313.03125 201.875 " clip-rule="nonzero"/></clipPath><clipPath id="88157122ff"><rect x="0" width="365" y="0" height="251"/></clipPath></defs><g clip-path="url(#cfaf4fcfcb)"><g mask="url(#5f7f1553be)"><g transform="matrix(1, 0, 0, 1, 286, -0.000000000000022503)"><g clip-path="url(#88157122ff)"><g clip-path="url(#4272a92e1c)"><path fill="#ffffff" d="M 87.4375 25.042969 C 72.980469 25.042969 61.21875 36.804688 61.21875 51.261719 C 61.21875 65.71875 72.980469 77.480469 87.4375 77.480469 C 101.894531 77.480469 113.65625 65.71875 113.65625 51.261719 C 113.65625 36.804688 101.894531 25.042969 87.4375 25.042969 Z M 87.4375 29.808594 C 99.265625 29.808594 108.890625 39.433594 108.890625 51.261719 C 108.890625 63.089844 99.265625 72.714844 87.4375 72.714844 C 75.609375 72.714844 65.988281 63.089844 65.988281 51.261719 C 65.988281 39.433594 75.609375 29.808594 87.4375 29.808594 Z M 87.4375 33.386719 C 86.730469 33.386719 86.023438 33.691406 85.539062 34.308594 L 81.871094 39 C 81.003906 40.109375 81.792969 41.726562 83.199219 41.726562 L 85.054688 41.726562 L 85.054688 45.304688 C 85.054688 46.621094 86.121094 47.6875 87.4375 47.6875 C 88.753906 47.6875 89.820312 46.621094 89.820312 45.304688 L 89.820312 41.726562 L 91.675781 41.726562 C 93.082031 41.726562 93.875 40.109375 93.007812 39 L 89.335938 34.308594 C 88.855469 33.691406 88.148438 33.386719 87.4375 33.386719 Z M 76.164062 45.339844 C 75.238281 45.261719 74.328125 45.96875 74.328125 47.023438 L 74.328125 48.878906 L 70.753906 48.878906 C 69.4375 48.878906 68.371094 49.945312 68.371094 51.261719 C 68.371094 52.578125 69.4375 53.644531 70.753906 53.644531 L 74.328125 53.644531 L 74.328125 55.5 C 74.328125 56.90625 75.949219 57.699219 77.058594 56.832031 L 81.746094 53.160156 C 82.980469 52.195312 82.980469 50.328125 81.746094 49.363281 L 77.058594 45.695312 C 76.78125 45.476562 76.472656 45.363281 76.164062 45.339844 Z M 98.714844 45.339844 C 98.40625 45.363281 98.097656 45.476562 97.820312 45.691406 L 93.128906 49.363281 C 91.894531 50.328125 91.894531 52.195312 93.128906 53.160156 L 97.820312 56.828125 C 98.929688 57.699219 100.546875 56.90625 100.546875 55.5 L 100.546875 53.644531 L 104.121094 53.644531 C 105.4375 53.644531 106.507812 52.578125 106.507812 51.261719 C 106.507812 49.945312 105.4375 48.878906 104.121094 48.878906 L 100.546875 48.878906 L 100.546875 47.023438 C 100.546875 45.96875 99.636719 45.261719 98.714844 45.339844 Z M 87.4375 54.835938 C 86.121094 54.835938 85.054688 55.902344 85.054688 57.222656 L 85.054688 60.796875 L 83.199219 60.796875 C 81.792969 60.796875 81.003906 62.414062 81.867188 63.523438 L 85.539062 68.214844 C 86.503906 69.449219 88.371094 69.449219 89.335938 68.214844 L 93.007812 63.523438 C 93.875 62.414062 93.082031 60.796875 91.675781 60.796875 L 89.820312 60.796875 L 89.820312 57.222656 C 89.820312 55.902344 88.753906 54.835938 87.4375 54.835938 Z M 87.4375 54.835938 " fill-opacity="1" fill-rule="nonzero"/></g><g clip-path="url(#40b097811b)"><g clip-path="url(#565e568f19)"><g clip-path="url(#5a867a2a2f)"><path fill="#ffffff" d="M 125.507812 101.171875 L 125.757812 87.734375 C 125.765625 87.292969 126.128906 86.941406 126.570312 86.949219 C 127.015625 86.957031 127.367188 87.324219 127.359375 87.765625 L 127.097656 101.851562 L 148.851562 111.171875 L 158.871094 101.261719 C 159.183594 100.953125 159.691406 100.957031 160.003906 101.269531 C 160.3125 101.582031 160.3125 102.089844 159.996094 102.402344 L 150.441406 111.851562 L 153.398438 113.117188 C 154.1875 113.457031 154.8125 114.097656 155.132812 114.894531 C 155.453125 115.695312 155.445312 116.589844 155.105469 117.382812 L 153.984375 120 C 153.644531 120.789062 153.003906 121.414062 152.207031 121.734375 C 151.40625 122.054688 150.511719 122.046875 149.71875 121.707031 L 148.074219 121 C 147.785156 121.566406 147.300781 122.011719 146.710938 122.25 C 146.0625 122.507812 145.339844 122.5 144.703125 122.226562 L 141.832031 120.996094 C 141.191406 120.722656 140.6875 120.203125 140.429688 119.558594 C 140.191406 118.964844 140.179688 118.308594 140.390625 117.710938 L 128.203125 112.492188 C 127.914062 113.058594 127.433594 113.5 126.839844 113.738281 C 126.191406 113.996094 125.46875 113.988281 124.832031 113.714844 L 121.960938 112.484375 C 121.320312 112.210938 120.816406 111.695312 120.558594 111.046875 C 120.320312 110.457031 120.308594 109.796875 120.519531 109.199219 L 118.875 108.496094 C 118.082031 108.15625 117.457031 107.515625 117.136719 106.714844 C 116.816406 105.914062 116.828125 105.023438 117.167969 104.230469 L 118.289062 101.613281 C 118.625 100.820312 119.265625 100.195312 120.066406 99.875 C 120.867188 99.554688 121.761719 99.566406 122.550781 99.90625 Z M 122 109.832031 C 121.949219 110.039062 121.964844 110.253906 122.042969 110.453125 C 122.144531 110.703125 122.339844 110.90625 122.589844 111.011719 L 125.460938 112.242188 C 125.710938 112.347656 125.992188 112.351562 126.242188 112.25 C 126.441406 112.171875 126.609375 112.035156 126.722656 111.855469 Z M 141.871094 118.34375 C 141.820312 118.550781 141.835938 118.765625 141.914062 118.964844 C 142.015625 119.214844 142.210938 119.417969 142.460938 119.523438 L 145.332031 120.753906 C 145.582031 120.859375 145.863281 120.863281 146.113281 120.761719 C 146.3125 120.683594 146.480469 120.542969 146.59375 120.367188 Z M 152.765625 114.589844 L 121.921875 101.378906 C 121.519531 101.207031 121.066406 101.199219 120.660156 101.363281 C 120.257812 101.523438 119.929688 101.84375 119.757812 102.242188 L 118.640625 104.859375 C 118.46875 105.261719 118.460938 105.714844 118.625 106.121094 C 118.785156 106.527344 119.101562 106.851562 119.503906 107.023438 L 150.347656 120.234375 C 150.75 120.40625 151.203125 120.410156 151.609375 120.25 C 152.015625 120.085938 152.339844 119.769531 152.511719 119.367188 L 153.632812 116.753906 C 153.804688 116.351562 153.8125 115.898438 153.648438 115.492188 C 153.484375 115.085938 153.167969 114.761719 152.765625 114.589844 Z M 141.601562 112.277344 C 142.007812 112.449219 142.199219 112.921875 142.023438 113.328125 C 141.847656 113.734375 141.378906 113.921875 140.972656 113.75 C 140.566406 113.574219 140.378906 113.101562 140.550781 112.699219 C 140.726562 112.289062 141.195312 112.101562 141.601562 112.277344 Z M 148.960938 115.429688 L 145.28125 113.851562 C 144.875 113.679688 144.40625 113.867188 144.230469 114.273438 C 144.058594 114.679688 144.246094 115.152344 144.652344 115.324219 L 148.332031 116.902344 C 148.738281 117.074219 149.207031 116.886719 149.382812 116.480469 C 149.558594 116.074219 149.367188 115.601562 148.960938 115.429688 Z M 135.203125 101.714844 C 136.679688 100.664062 138.597656 100.457031 140.261719 101.171875 C 141.929688 101.882812 143.101562 103.414062 143.359375 105.207031 C 143.421875 105.644531 143.828125 105.949219 144.265625 105.886719 C 144.703125 105.824219 145.007812 105.417969 144.945312 104.980469 C 144.609375 102.632812 143.074219 100.632812 140.894531 99.699219 C 138.714844 98.765625 136.207031 99.035156 134.277344 100.410156 C 133.914062 100.667969 133.832031 101.167969 134.089844 101.527344 C 134.34375 101.886719 134.84375 101.972656 135.203125 101.714844 Z M 134.285156 98.140625 C 136.386719 96.835938 139.203125 96.71875 141.710938 97.792969 C 144.21875 98.867188 146.074219 100.984375 146.582031 103.40625 C 146.671875 103.839844 147.097656 104.117188 147.527344 104.027344 C 147.960938 103.933594 148.238281 103.511719 148.148438 103.078125 C 147.539062 100.175781 145.347656 97.609375 142.339844 96.320312 C 139.332031 95.03125 135.960938 95.21875 133.441406 96.777344 C 133.066406 97.011719 132.949219 97.503906 133.183594 97.882812 C 133.414062 98.257812 133.910156 98.371094 134.285156 98.140625 Z M 133.15625 94.425781 C 136.058594 92.605469 139.933594 92.414062 143.378906 93.890625 C 146.828125 95.367188 149.363281 98.304688 150.050781 101.660156 C 150.136719 102.09375 150.5625 102.371094 150.992188 102.285156 C 151.425781 102.195312 151.707031 101.773438 151.617188 101.339844 C 150.832031 97.496094 147.957031 94.109375 144.011719 92.417969 C 140.0625 90.730469 135.628906 90.984375 132.304688 93.066406 C 131.933594 93.300781 131.820312 93.796875 132.054688 94.171875 C 132.289062 94.546875 132.78125 94.660156 133.15625 94.425781 Z M 133.15625 94.425781 " fill-opacity="1" fill-rule="evenodd"/></g></g></g><g clip-path="url(#e22804de39)"><path fill="#ffffff" d="M 315.53125 29.945312 L 301.492188 -4.578125 C 301.03125 -5.714844 301.578125 -7.007812 302.710938 -7.472656 C 303.847656 -7.933594 305.144531 -7.386719 305.605469 -6.25 L 320.324219 29.945312 L 385.953125 29.945312 L 400.671875 -6.25 C 401.136719 -7.386719 402.429688 -7.929688 403.566406 -7.472656 C 404.703125 -7.007812 405.246094 -5.714844 404.785156 -4.578125 L 390.746094 29.945312 L 399.664062 29.945312 C 402.054688 29.945312 404.347656 30.890625 406.035156 32.582031 C 407.726562 34.273438 408.675781 36.5625 408.675781 38.953125 L 408.675781 46.84375 C 408.675781 49.234375 407.726562 51.523438 406.035156 53.214844 C 404.347656 54.90625 402.054688 55.855469 399.664062 55.855469 L 394.703125 55.855469 C 394.585938 57.609375 393.839844 59.273438 392.585938 60.523438 C 391.222656 61.890625 389.371094 62.65625 387.441406 62.65625 L 378.78125 62.65625 C 376.851562 62.65625 375 61.890625 373.636719 60.523438 C 372.382812 59.273438 371.636719 57.609375 371.519531 55.855469 L 334.757812 55.855469 C 334.640625 57.609375 333.894531 59.273438 332.640625 60.523438 C 331.277344 61.890625 329.425781 62.65625 327.496094 62.65625 L 318.835938 62.65625 C 316.90625 62.65625 315.054688 61.890625 313.691406 60.523438 C 312.441406 59.273438 311.691406 57.609375 311.574219 55.855469 L 306.613281 55.855469 C 304.222656 55.855469 301.933594 54.90625 300.242188 53.214844 C 298.554688 51.527344 297.605469 49.234375 297.605469 46.84375 L 297.605469 38.953125 C 297.605469 36.566406 298.554688 34.273438 300.242188 32.582031 C 301.933594 30.894531 304.222656 29.945312 306.613281 29.945312 Z M 316.042969 55.851562 C 316.140625 56.429688 316.414062 56.964844 316.832031 57.382812 C 317.363281 57.917969 318.082031 58.214844 318.835938 58.214844 L 327.496094 58.214844 C 328.25 58.214844 328.96875 57.917969 329.5 57.382812 C 329.921875 56.964844 330.195312 56.429688 330.292969 55.851562 Z M 375.988281 55.851562 C 376.085938 56.429688 376.359375 56.964844 376.777344 57.382812 C 377.308594 57.917969 378.027344 58.214844 378.78125 58.214844 L 387.441406 58.214844 C 388.195312 58.214844 388.914062 57.917969 389.445312 57.382812 C 389.867188 56.964844 390.140625 56.429688 390.238281 55.851562 Z M 399.664062 34.382812 L 306.613281 34.382812 C 305.402344 34.382812 304.238281 34.863281 303.382812 35.722656 C 302.527344 36.578125 302.042969 37.742188 302.042969 38.953125 L 302.042969 46.84375 C 302.042969 48.054688 302.527344 49.21875 303.382812 50.074219 C 304.238281 50.933594 305.402344 51.414062 306.613281 51.414062 L 399.664062 51.414062 C 400.875 51.414062 402.039062 50.933594 402.894531 50.074219 C 403.753906 49.21875 404.234375 48.054688 404.234375 46.84375 L 404.234375 38.953125 C 404.234375 37.742188 403.753906 36.578125 402.894531 35.722656 C 402.039062 34.863281 400.875 34.382812 399.664062 34.382812 Z M 368.679688 40.679688 C 369.90625 40.679688 370.902344 41.671875 370.902344 42.898438 C 370.902344 44.125 369.90625 45.121094 368.679688 45.121094 C 367.457031 45.121094 366.460938 44.125 366.460938 42.898438 C 366.460938 41.671875 367.457031 40.679688 368.679688 40.679688 Z M 390.882812 40.679688 L 379.78125 40.679688 C 378.554688 40.679688 377.5625 41.671875 377.5625 42.898438 C 377.5625 44.125 378.554688 45.121094 379.78125 45.121094 L 390.882812 45.121094 C 392.109375 45.121094 393.101562 44.125 393.101562 42.898438 C 393.101562 41.671875 392.109375 40.679688 390.882812 40.679688 Z M 340.839844 20.742188 C 343.453125 16.449219 348.113281 13.832031 353.140625 13.832031 C 358.164062 13.832031 362.824219 16.449219 365.4375 20.742188 C 366.078125 21.789062 367.441406 22.121094 368.488281 21.484375 C 369.535156 20.847656 369.867188 19.476562 369.230469 18.433594 C 365.8125 12.816406 359.714844 9.390625 353.140625 9.390625 C 346.566406 9.390625 340.464844 12.816406 337.046875 18.433594 C 336.410156 19.476562 336.742188 20.847656 337.789062 21.484375 C 338.835938 22.121094 340.203125 21.789062 340.839844 20.742188 Z M 334.589844 12.632812 C 338.527344 7.015625 345.570312 3.636719 353.140625 3.636719 C 360.707031 3.636719 367.75 7.015625 371.6875 12.632812 C 372.390625 13.632812 373.773438 13.878906 374.78125 13.175781 C 375.78125 12.472656 376.027344 11.085938 375.324219 10.082031 C 370.605469 3.351562 362.210938 -0.804688 353.140625 -0.804688 C 344.066406 -0.804688 335.671875 3.351562 330.957031 10.082031 C 330.25 11.085938 330.496094 12.472656 331.5 13.175781 C 332.503906 13.878906 333.886719 13.632812 334.589844 12.632812 Z M 327.660156 4.390625 C 333.066406 -3.410156 342.738281 -8.128906 353.140625 -8.128906 C 363.539062 -8.128906 373.210938 -3.410156 378.621094 4.390625 C 379.316406 5.398438 380.703125 5.648438 381.707031 4.953125 C 382.714844 4.253906 382.964844 2.871094 382.269531 1.863281 C 376.074219 -7.074219 365.046875 -12.566406 353.140625 -12.566406 C 341.230469 -12.566406 330.203125 -7.074219 324.011719 1.863281 C 323.3125 2.871094 323.5625 4.253906 324.570312 4.953125 C 325.578125 5.648438 326.960938 5.398438 327.660156 4.390625 Z M 327.660156 4.390625 " fill-opacity="1" fill-rule="evenodd"/></g><g clip-path="url(#2ea0a74435)"><g clip-path="url(#a96223d131)"><g clip-path="url(#dd7c4b6ff0)"><path fill="#ffffff" d="M 106.640625 144.1875 C 99.464844 148.75 97.339844 158.300781 101.902344 165.476562 C 106.464844 172.652344 116.015625 174.777344 123.191406 170.214844 C 130.367188 165.652344 132.492188 156.101562 127.929688 148.925781 C 123.367188 141.75 113.816406 139.625 106.640625 144.1875 Z M 108.144531 146.554688 C 114.015625 142.820312 121.832031 144.558594 125.566406 150.429688 C 129.296875 156.300781 127.558594 164.117188 121.6875 167.851562 C 115.816406 171.582031 108 169.84375 104.265625 163.972656 C 100.535156 158.101562 102.273438 150.285156 108.144531 146.554688 Z M 109.273438 148.328125 C 108.921875 148.550781 108.667969 148.925781 108.621094 149.386719 L 108.28125 152.871094 C 108.203125 153.695312 109.105469 154.25 109.804688 153.804688 L 110.722656 153.222656 L 111.851562 154.996094 C 112.269531 155.648438 113.132812 155.84375 113.789062 155.425781 C 114.441406 155.011719 114.632812 154.144531 114.21875 153.492188 L 113.089844 151.714844 L 114.011719 151.132812 C 114.710938 150.6875 114.589844 149.632812 113.8125 149.355469 L 110.507812 148.1875 C 110.074219 148.03125 109.625 148.105469 109.273438 148.328125 Z M 107.449219 157.820312 C 106.964844 158.070312 106.738281 158.710938 107.070312 159.234375 L 107.65625 160.15625 L 105.882812 161.285156 C 105.226562 161.699219 105.035156 162.566406 105.449219 163.21875 C 105.867188 163.875 106.734375 164.066406 107.386719 163.648438 L 109.160156 162.523438 L 109.746094 163.441406 C 110.191406 164.140625 111.242188 164.023438 111.519531 163.242188 L 112.691406 159.941406 C 112.996094 159.070312 112.410156 158.144531 111.492188 158.054688 L 108.003906 157.714844 C 107.800781 157.695312 107.609375 157.734375 107.449219 157.820312 Z M 118.644531 150.703125 C 118.5 150.8125 118.378906 150.964844 118.3125 151.160156 L 117.140625 154.460938 C 116.832031 155.332031 117.421875 156.257812 118.339844 156.347656 L 121.828125 156.6875 C 122.648438 156.769531 123.203125 155.867188 122.761719 155.167969 L 122.175781 154.246094 L 123.949219 153.117188 C 124.601562 152.703125 124.796875 151.835938 124.382812 151.183594 C 123.964844 150.53125 123.097656 150.335938 122.445312 150.753906 L 120.671875 151.882812 L 120.085938 150.960938 C 119.753906 150.4375 119.078125 150.371094 118.644531 150.703125 Z M 116.042969 158.976562 C 115.390625 159.390625 115.199219 160.257812 115.613281 160.910156 L 116.742188 162.6875 L 115.820312 163.273438 C 115.121094 163.714844 115.242188 164.769531 116.019531 165.046875 L 119.324219 166.214844 C 120.191406 166.523438 121.117188 165.933594 121.207031 165.015625 L 121.550781 161.53125 C 121.628906 160.707031 120.726562 160.152344 120.027344 160.597656 L 119.109375 161.183594 L 117.980469 159.40625 C 117.5625 158.753906 116.699219 158.5625 116.042969 158.976562 Z M 116.042969 158.976562 " fill-opacity="1" fill-rule="nonzero"/></g></g></g><g clip-path="url(#3a26e9cb5e)"><g clip-path="url(#1414855ed2)"><g clip-path="url(#fa0853765d)"><path fill="#ffffff" d="M 167.070312 193.457031 L 161.792969 189.296875 C 161.621094 189.160156 161.589844 188.90625 161.726562 188.734375 C 161.863281 188.5625 162.117188 188.53125 162.289062 188.667969 L 167.820312 193.03125 L 178.105469 187.1875 L 177.1875 180.203125 C 177.160156 179.984375 177.316406 179.78125 177.535156 179.753906 C 177.753906 179.726562 177.953125 179.878906 177.984375 180.097656 L 178.855469 186.757812 L 180.253906 185.964844 C 180.628906 185.753906 181.070312 185.695312 181.488281 185.8125 C 181.902344 185.925781 182.253906 186.199219 182.46875 186.574219 L 183.171875 187.8125 C 183.382812 188.1875 183.4375 188.628906 183.324219 189.042969 C 183.210938 189.460938 182.9375 189.8125 182.5625 190.027344 L 181.785156 190.46875 C 181.921875 190.753906 181.953125 191.082031 181.867188 191.386719 C 181.777344 191.722656 181.554688 192.007812 181.25 192.179688 L 179.894531 192.953125 C 179.589844 193.125 179.234375 193.167969 178.898438 193.074219 C 178.589844 192.992188 178.324219 192.796875 178.152344 192.53125 L 172.390625 195.804688 C 172.527344 196.089844 172.558594 196.417969 172.472656 196.726562 C 172.382812 197.0625 172.160156 197.347656 171.855469 197.519531 L 170.5 198.289062 C 170.195312 198.460938 169.839844 198.503906 169.503906 198.414062 C 169.195312 198.328125 168.929688 198.136719 168.757812 197.871094 L 167.976562 198.3125 C 167.605469 198.523438 167.160156 198.578125 166.746094 198.464844 C 166.328125 198.351562 165.976562 198.078125 165.765625 197.703125 L 165.0625 196.464844 C 164.847656 196.089844 164.792969 195.648438 164.90625 195.230469 C 165.023438 194.816406 165.296875 194.464844 165.671875 194.25 Z M 169.457031 197.472656 C 169.523438 197.554688 169.613281 197.613281 169.714844 197.640625 C 169.847656 197.675781 169.984375 197.660156 170.105469 197.59375 L 171.460938 196.820312 C 171.578125 196.753906 171.664062 196.644531 171.703125 196.511719 C 171.730469 196.410156 171.726562 196.300781 171.6875 196.203125 Z M 178.851562 192.132812 C 178.917969 192.214844 179.007812 192.273438 179.109375 192.304688 C 179.242188 192.339844 179.378906 192.320312 179.5 192.253906 L 180.855469 191.484375 C 180.972656 191.417969 181.058594 191.304688 181.097656 191.175781 C 181.125 191.074219 181.121094 190.964844 181.082031 190.863281 Z M 180.648438 186.660156 L 166.066406 194.945312 C 165.875 195.054688 165.738281 195.234375 165.679688 195.445312 C 165.621094 195.65625 165.648438 195.878906 165.757812 196.070312 L 166.460938 197.304688 C 166.566406 197.496094 166.746094 197.636719 166.957031 197.695312 C 167.167969 197.75 167.394531 197.722656 167.582031 197.617188 L 182.164062 189.328125 C 182.355469 189.222656 182.496094 189.042969 182.554688 188.832031 C 182.609375 188.621094 182.582031 188.398438 182.476562 188.207031 L 181.773438 186.96875 C 181.664062 186.78125 181.484375 186.640625 181.273438 186.582031 C 181.0625 186.523438 180.839844 186.554688 180.648438 186.660156 Z M 176.355469 190.40625 C 176.546875 190.296875 176.789062 190.363281 176.898438 190.558594 C 177.007812 190.75 176.941406 190.992188 176.75 191.101562 C 176.558594 191.210938 176.3125 191.144531 176.203125 190.953125 C 176.09375 190.761719 176.164062 190.515625 176.355469 190.40625 Z M 179.832031 188.429688 L 178.09375 189.417969 C 177.902344 189.527344 177.835938 189.769531 177.945312 189.964844 C 178.050781 190.15625 178.296875 190.222656 178.488281 190.113281 L 180.230469 189.125 C 180.421875 189.015625 180.488281 188.773438 180.378906 188.578125 C 180.269531 188.386719 180.027344 188.320312 179.832031 188.429688 Z M 170.214844 189.761719 C 170.242188 188.855469 170.742188 188.03125 171.527344 187.582031 C 172.316406 187.136719 173.277344 187.128906 174.070312 187.570312 C 174.265625 187.679688 174.507812 187.609375 174.613281 187.414062 C 174.722656 187.222656 174.652344 186.976562 174.460938 186.871094 C 173.421875 186.296875 172.164062 186.300781 171.132812 186.886719 C 170.101562 187.472656 169.453125 188.550781 169.414062 189.738281 C 169.410156 189.957031 169.582031 190.140625 169.804688 190.148438 C 170.023438 190.15625 170.207031 189.980469 170.214844 189.761719 Z M 168.515625 189.046875 C 168.632812 187.816406 169.433594 186.660156 170.621094 185.984375 C 171.804688 185.3125 173.210938 185.214844 174.328125 185.742188 C 174.527344 185.835938 174.765625 185.753906 174.859375 185.554688 C 174.957031 185.351562 174.871094 185.113281 174.671875 185.019531 C 173.332031 184.386719 171.644531 184.480469 170.222656 185.289062 C 168.804688 186.097656 167.859375 187.496094 167.71875 188.96875 C 167.695312 189.191406 167.859375 189.386719 168.078125 189.40625 C 168.296875 189.429688 168.492188 189.265625 168.515625 189.046875 Z M 166.695312 188.371094 C 166.847656 186.667969 167.941406 185.066406 169.574219 184.140625 C 171.203125 183.214844 173.136719 183.09375 174.679688 183.835938 C 174.878906 183.929688 175.117188 183.847656 175.214844 183.648438 C 175.308594 183.449219 175.226562 183.207031 175.027344 183.113281 C 173.261719 182.265625 171.042969 182.386719 169.175781 183.445312 C 167.3125 184.507812 166.070312 186.347656 165.898438 188.300781 C 165.878906 188.519531 166.039062 188.714844 166.261719 188.734375 C 166.480469 188.753906 166.675781 188.59375 166.695312 188.371094 Z M 166.695312 188.371094 " fill-opacity="1" fill-rule="evenodd"/></g></g></g><g clip-path="url(#e89d08794a)"><g clip-path="url(#74b4c0c649)"><g clip-path="url(#569f73ff4a)"><path fill="#ffffff" d="M 95.417969 206.96875 C 76.5625 218.960938 70.972656 244.054688 82.964844 262.914062 C 94.953125 281.769531 120.046875 287.355469 138.90625 275.367188 C 157.761719 263.378906 163.351562 238.285156 151.359375 219.425781 C 139.371094 200.570312 114.277344 194.980469 95.417969 206.96875 Z M 99.371094 213.1875 C 114.800781 203.378906 135.332031 207.949219 145.144531 223.378906 C 154.953125 238.808594 150.378906 259.339844 134.953125 269.148438 C 119.523438 278.960938 98.992188 274.386719 89.179688 258.960938 C 79.371094 243.53125 83.945312 222.996094 99.371094 213.1875 Z M 102.335938 217.851562 C 101.414062 218.4375 100.746094 219.429688 100.625 220.632812 L 99.730469 229.792969 C 99.519531 231.957031 101.890625 233.414062 103.726562 232.25 L 106.148438 230.710938 L 109.113281 235.375 C 110.203125 237.089844 112.480469 237.597656 114.195312 236.503906 C 115.914062 235.414062 116.421875 233.136719 115.328125 231.421875 L 112.363281 226.757812 L 114.785156 225.21875 C 116.617188 224.050781 116.308594 221.28125 114.257812 220.554688 L 105.582031 217.480469 C 104.441406 217.078125 103.261719 217.265625 102.335938 217.851562 Z M 97.542969 242.792969 C 96.273438 243.457031 95.671875 245.136719 96.546875 246.511719 L 98.085938 248.933594 L 93.421875 251.898438 C 91.707031 252.988281 91.199219 255.265625 92.289062 256.984375 C 93.382812 258.699219 95.660156 259.207031 97.375 258.113281 L 102.039062 255.148438 L 103.578125 257.570312 C 104.746094 259.402344 107.511719 259.09375 108.242188 257.042969 L 111.3125 248.367188 C 112.121094 246.085938 110.574219 243.648438 108.164062 243.410156 L 99.003906 242.515625 C 98.460938 242.464844 97.964844 242.570312 97.542969 242.792969 Z M 126.957031 224.09375 C 126.578125 224.378906 126.265625 224.78125 126.085938 225.292969 L 123.011719 233.972656 C 122.203125 236.253906 123.75 238.691406 126.160156 238.925781 L 135.320312 239.824219 C 137.484375 240.035156 138.941406 237.660156 137.777344 235.828125 L 136.238281 233.40625 L 140.902344 230.441406 C 142.617188 229.351562 143.125 227.074219 142.035156 225.355469 C 140.941406 223.636719 138.664062 223.132812 136.949219 224.222656 L 132.285156 227.1875 L 130.746094 224.769531 C 129.871094 223.394531 128.097656 223.226562 126.957031 224.09375 Z M 120.128906 245.832031 C 118.410156 246.925781 117.902344 249.199219 118.996094 250.917969 L 121.960938 255.582031 L 119.539062 257.121094 C 117.707031 258.285156 118.015625 261.054688 120.066406 261.78125 L 128.742188 264.855469 C 131.023438 265.664062 133.460938 264.117188 133.699219 261.707031 L 134.59375 252.546875 C 134.804688 250.382812 132.433594 248.925781 130.597656 250.089844 L 128.179688 251.628906 L 125.210938 246.964844 C 124.121094 245.246094 121.84375 244.742188 120.128906 245.832031 Z M 120.128906 245.832031 " fill-opacity="1" fill-rule="nonzero"/></g></g></g><g clip-path="url(#0b30ea886f)"><g clip-path="url(#1da0efbf23)"><g clip-path="url(#3475b17524)"><path fill="#ffffff" d="M 138.90625 -3.492188 L 149.023438 -23.246094 C 149.359375 -23.894531 150.15625 -24.152344 150.804688 -23.820312 C 151.453125 -23.484375 151.710938 -22.6875 151.378906 -22.039062 L 140.765625 -1.328125 L 166.273438 28.285156 L 188.328125 20.863281 C 189.019531 20.628906 189.769531 21 190.003906 21.691406 C 190.238281 22.382812 189.863281 23.132812 189.171875 23.367188 L 168.136719 30.449219 L 171.605469 34.472656 C 172.53125 35.550781 172.996094 36.953125 172.890625 38.375 C 172.785156 39.792969 172.117188 41.113281 171.039062 42.039062 L 167.480469 45.109375 C 166.402344 46.035156 165 46.5 163.578125 46.394531 C 162.160156 46.289062 160.839844 45.621094 159.910156 44.542969 L 157.984375 42.304688 C 157.144531 42.9375 156.105469 43.246094 155.054688 43.164062 C 153.90625 43.082031 152.84375 42.542969 152.09375 41.671875 L 148.726562 37.765625 C 147.976562 36.894531 147.601562 35.761719 147.6875 34.613281 C 147.765625 33.5625 148.226562 32.578125 148.972656 31.84375 L 134.683594 15.253906 C 133.847656 15.886719 132.804688 16.195312 131.753906 16.117188 C 130.609375 16.03125 129.542969 15.492188 128.792969 14.621094 L 125.425781 10.714844 C 124.675781 9.84375 124.304688 8.710938 124.390625 7.5625 C 124.46875 6.511719 124.925781 5.527344 125.675781 4.792969 L 123.746094 2.554688 C 122.816406 1.476562 122.355469 0.0742188 122.460938 -1.34375 C 122.566406 -2.765625 123.230469 -4.082031 124.308594 -5.011719 L 127.871094 -8.078125 C 128.949219 -9.007812 130.351562 -9.46875 131.769531 -9.363281 C 133.191406 -9.257812 134.507812 -8.59375 135.4375 -7.515625 L 138.902344 -3.492188 Z M 127.410156 6.808594 C 127.1875 7.078125 127.054688 7.410156 127.027344 7.761719 C 126.992188 8.207031 127.140625 8.648438 127.433594 8.988281 L 130.796875 12.894531 C 131.089844 13.234375 131.503906 13.445312 131.953125 13.476562 C 132.304688 13.503906 132.652344 13.417969 132.949219 13.238281 Z M 150.710938 33.859375 C 150.488281 34.128906 150.351562 34.460938 150.324219 34.8125 C 150.292969 35.257812 150.4375 35.699219 150.730469 36.039062 L 154.097656 39.945312 C 154.390625 40.285156 154.804688 40.496094 155.25 40.527344 C 155.601562 40.554688 155.949219 40.46875 156.25 40.289062 Z M 169.601562 36.199219 L 133.433594 -5.789062 C 132.964844 -6.335938 132.296875 -6.675781 131.574219 -6.726562 C 130.855469 -6.78125 130.144531 -6.546875 129.597656 -6.074219 L 126.035156 -3.007812 C 125.488281 -2.539062 125.152344 -1.867188 125.097656 -1.148438 C 125.042969 -0.429688 125.277344 0.28125 125.75 0.828125 L 161.914062 42.820312 C 162.386719 43.367188 163.054688 43.703125 163.777344 43.757812 C 164.496094 43.808594 165.207031 43.574219 165.753906 43.105469 L 169.316406 40.035156 C 169.863281 39.566406 170.199219 38.898438 170.253906 38.175781 C 170.304688 37.457031 170.070312 36.746094 169.601562 36.199219 Z M 154.71875 24.664062 C 155.195312 25.21875 155.132812 26.054688 154.578125 26.53125 C 154.027344 27.003906 153.191406 26.941406 152.714844 26.390625 C 152.238281 25.835938 152.300781 25 152.851562 24.527344 C 153.40625 24.050781 154.242188 24.113281 154.71875 24.664062 Z M 163.347656 34.683594 L 159.03125 29.671875 C 158.554688 29.121094 157.71875 29.058594 157.167969 29.535156 C 156.613281 30.011719 156.550781 30.847656 157.027344 31.398438 L 161.34375 36.410156 C 161.820312 36.960938 162.65625 37.023438 163.207031 36.546875 C 163.761719 36.070312 163.824219 35.234375 163.347656 34.683594 Z M 152.894531 4.351562 C 155.847656 3.863281 158.839844 4.949219 160.792969 7.214844 C 162.746094 9.484375 163.375 12.605469 162.453125 15.453125 C 162.230469 16.148438 162.609375 16.894531 163.304688 17.117188 C 164 17.34375 164.746094 16.960938 164.96875 16.265625 C 166.175781 12.542969 165.351562 8.457031 162.796875 5.492188 C 160.242188 2.523438 156.324219 1.101562 152.460938 1.742188 C 151.742188 1.863281 151.253906 2.542969 151.371094 3.261719 C 151.492188 3.984375 152.171875 4.472656 152.894531 4.351562 Z M 154.125 -1.621094 C 158.1875 -2.027344 162.449219 -0.160156 165.390625 3.253906 C 168.332031 6.667969 169.546875 11.160156 168.542969 15.121094 C 168.363281 15.828125 168.792969 16.546875 169.5 16.726562 C 170.207031 16.90625 170.925781 16.476562 171.105469 15.769531 C 172.308594 11.023438 170.921875 5.621094 167.394531 1.527344 C 163.871094 -2.566406 158.734375 -4.738281 153.863281 -4.25 C 153.136719 -4.179688 152.605469 -3.53125 152.675781 -2.804688 C 152.75 -2.078125 153.398438 -1.546875 154.125 -1.621094 Z M 155.148438 -7.949219 C 160.769531 -8.542969 166.660156 -6.011719 170.699219 -1.316406 C 174.742188 3.375 176.375 9.570312 174.953125 15.046875 C 174.773438 15.753906 175.195312 16.472656 175.902344 16.65625 C 176.609375 16.839844 177.332031 16.414062 177.515625 15.710938 C 179.140625 9.441406 177.332031 2.328125 172.703125 -3.042969 C 168.074219 -8.417969 161.3125 -11.257812 154.871094 -10.578125 C 154.144531 -10.503906 153.617188 -9.851562 153.695312 -9.125 C 153.769531 -8.402344 154.421875 -7.875 155.148438 -7.949219 Z M 155.148438 -7.949219 " fill-opacity="1" fill-rule="evenodd"/></g></g></g><g clip-path="url(#df7044f7dd)"><path fill="#ffffff" d="M 227.65625 77.480469 C 203.910156 77.480469 184.589844 96.800781 184.589844 120.546875 C 184.589844 144.292969 203.910156 163.613281 227.65625 163.613281 C 251.402344 163.613281 270.722656 144.292969 270.722656 120.546875 C 270.722656 96.800781 251.402344 77.480469 227.65625 77.480469 Z M 227.65625 85.3125 C 247.085938 85.3125 262.894531 101.117188 262.894531 120.546875 C 262.894531 139.976562 247.085938 155.785156 227.65625 155.785156 C 208.226562 155.785156 192.421875 139.976562 192.421875 120.546875 C 192.421875 101.117188 208.226562 85.3125 227.65625 85.3125 Z M 227.65625 91.183594 C 226.492188 91.183594 225.328125 91.6875 224.535156 92.703125 L 218.511719 100.40625 C 217.085938 102.226562 218.382812 104.886719 220.695312 104.886719 L 223.742188 104.886719 L 223.742188 110.757812 C 223.742188 112.921875 225.496094 114.675781 227.65625 114.675781 C 229.816406 114.675781 231.570312 112.921875 231.570312 110.757812 L 231.570312 104.886719 L 234.617188 104.886719 C 236.929688 104.886719 238.230469 102.226562 236.804688 100.40625 L 230.777344 92.703125 C 229.984375 91.6875 228.820312 91.183594 227.65625 91.183594 Z M 209.136719 110.816406 C 207.621094 110.6875 206.125 111.851562 206.125 113.585938 L 206.125 116.632812 L 200.25 116.632812 C 198.089844 116.632812 196.335938 118.382812 196.335938 120.546875 C 196.335938 122.710938 198.089844 124.460938 200.25 124.460938 L 206.125 124.460938 L 206.125 127.507812 C 206.125 129.820312 208.785156 131.121094 210.605469 129.695312 L 218.308594 123.667969 C 220.335938 122.082031 220.335938 119.011719 218.308594 117.425781 L 210.605469 111.402344 C 210.148438 111.046875 209.640625 110.859375 209.136719 110.816406 Z M 246.175781 110.816406 C 245.671875 110.859375 245.164062 111.042969 244.707031 111.398438 L 237.003906 117.425781 C 234.980469 119.011719 234.980469 122.082031 237.003906 123.667969 L 244.707031 129.691406 C 246.53125 131.117188 249.191406 129.820312 249.191406 127.507812 L 249.191406 124.460938 L 255.0625 124.460938 C 257.222656 124.460938 258.976562 122.710938 258.976562 120.546875 C 258.976562 118.382812 257.222656 116.632812 255.0625 116.632812 L 249.191406 116.632812 L 249.191406 113.585938 C 249.191406 111.851562 247.691406 110.691406 246.175781 110.816406 Z M 227.65625 126.421875 C 225.496094 126.421875 223.742188 128.171875 223.742188 130.335938 L 223.742188 136.207031 L 220.695312 136.207031 C 218.382812 136.207031 217.082031 138.867188 218.507812 140.6875 L 224.535156 148.394531 C 226.121094 150.417969 229.191406 150.417969 230.777344 148.394531 L 236.800781 140.6875 C 238.226562 138.867188 236.929688 136.207031 234.617188 136.207031 L 231.570312 136.207031 L 231.570312 130.335938 C 231.570312 128.171875 229.816406 126.421875 227.65625 126.421875 Z M 227.65625 126.421875 " fill-opacity="1" fill-rule="nonzero"/></g><g clip-path="url(#fd512aca5b)"><path fill="#ffffff" d="M 247.40625 -11.726562 C 234.558594 -11.726562 224.105469 -1.273438 224.105469 11.578125 C 224.105469 24.425781 234.558594 34.882812 247.40625 34.882812 C 260.257812 34.882812 270.710938 24.425781 270.710938 11.578125 C 270.710938 -1.273438 260.257812 -11.726562 247.40625 -11.726562 Z M 247.40625 -7.488281 C 257.921875 -7.488281 266.472656 1.066406 266.472656 11.578125 C 266.472656 22.089844 257.921875 30.644531 247.40625 30.644531 C 236.894531 30.644531 228.339844 22.089844 228.339844 11.578125 C 228.339844 1.066406 236.894531 -7.488281 247.40625 -7.488281 Z M 247.40625 -4.3125 C 246.777344 -4.3125 246.148438 -4.039062 245.71875 -3.488281 L 242.460938 0.679688 C 241.6875 1.664062 242.390625 3.105469 243.640625 3.105469 L 245.289062 3.105469 L 245.289062 6.28125 C 245.289062 7.453125 246.238281 8.398438 247.40625 8.398438 C 248.578125 8.398438 249.527344 7.453125 249.527344 6.28125 L 249.527344 3.105469 L 251.175781 3.105469 C 252.425781 3.105469 253.128906 1.664062 252.359375 0.679688 L 249.097656 -3.488281 C 248.667969 -4.039062 248.039062 -4.3125 247.40625 -4.3125 Z M 237.386719 6.3125 C 236.566406 6.242188 235.757812 6.871094 235.757812 7.808594 L 235.757812 9.460938 L 232.578125 9.460938 C 231.410156 9.460938 230.460938 10.40625 230.460938 11.578125 C 230.460938 12.75 231.410156 13.695312 232.578125 13.695312 L 235.757812 13.695312 L 235.757812 15.34375 C 235.757812 16.59375 237.195312 17.296875 238.179688 16.527344 L 242.347656 13.265625 C 243.445312 12.40625 243.445312 10.746094 242.347656 9.890625 L 238.179688 6.628906 C 237.933594 6.4375 237.660156 6.335938 237.386719 6.3125 Z M 257.429688 6.3125 C 257.15625 6.335938 256.882812 6.433594 256.636719 6.625 L 252.464844 9.890625 C 251.371094 10.746094 251.371094 12.40625 252.464844 13.265625 L 256.636719 16.527344 C 257.621094 17.296875 259.058594 16.59375 259.058594 15.34375 L 259.058594 13.695312 L 262.238281 13.695312 C 263.40625 13.695312 264.355469 12.75 264.355469 11.578125 C 264.355469 10.40625 263.40625 9.460938 262.238281 9.460938 L 259.058594 9.460938 L 259.058594 7.808594 C 259.058594 6.871094 258.25 6.242188 257.429688 6.3125 Z M 247.40625 14.753906 C 246.238281 14.753906 245.289062 15.703125 245.289062 16.875 L 245.289062 20.050781 L 243.640625 20.050781 C 242.390625 20.050781 241.6875 21.492188 242.457031 22.476562 L 245.71875 26.644531 C 246.578125 27.742188 248.238281 27.742188 249.097656 26.644531 L 252.355469 22.476562 C 253.128906 21.492188 252.425781 20.050781 251.175781 20.050781 L 249.527344 20.050781 L 249.527344 16.875 C 249.527344 15.703125 248.578125 14.753906 247.40625 14.753906 Z M 247.40625 14.753906 " fill-opacity="1" fill-rule="nonzero"/></g><g clip-path="url(#512246572b)"><g clip-path="url(#46c77d3f2e)"><g clip-path="url(#bda1f647f2)"><path fill="#ffffff" d="M 322.070312 264.886719 L 309.074219 261.46875 C 308.648438 261.355469 308.390625 260.917969 308.503906 260.488281 C 308.617188 260.0625 309.054688 259.804688 309.480469 259.917969 L 323.109375 263.503906 L 337.308594 244.570312 L 330.050781 232.492188 C 329.824219 232.113281 329.945312 231.621094 330.324219 231.394531 C 330.703125 231.167969 331.195312 231.289062 331.421875 231.667969 L 338.34375 243.1875 L 340.273438 240.613281 C 340.789062 239.925781 341.558594 239.46875 342.414062 239.347656 C 343.265625 239.226562 344.132812 239.449219 344.820312 239.964844 L 347.097656 241.671875 C 347.789062 242.1875 348.242188 242.957031 348.367188 243.8125 C 348.488281 244.664062 348.265625 245.53125 347.75 246.21875 L 346.675781 247.652344 C 347.15625 248.066406 347.472656 248.640625 347.566406 249.273438 C 347.664062 249.960938 347.484375 250.660156 347.066406 251.21875 L 345.191406 253.714844 C 344.773438 254.273438 344.152344 254.640625 343.464844 254.738281 C 342.832031 254.828125 342.191406 254.6875 341.660156 254.339844 L 333.707031 264.945312 C 334.1875 265.359375 334.503906 265.933594 334.59375 266.566406 C 334.695312 267.253906 334.515625 267.953125 334.097656 268.511719 L 332.222656 271.007812 C 331.804688 271.566406 331.183594 271.933594 330.496094 272.03125 C 329.863281 272.125 329.222656 271.980469 328.691406 271.632812 L 327.617188 273.066406 C 327.097656 273.753906 326.332031 274.210938 325.476562 274.332031 C 324.625 274.453125 323.757812 274.230469 323.066406 273.714844 L 320.792969 272.007812 C 320.101562 271.488281 319.648438 270.71875 319.523438 269.867188 C 319.402344 269.015625 319.625 268.148438 320.140625 267.457031 Z M 329.65625 270.34375 C 329.84375 270.441406 330.058594 270.476562 330.269531 270.449219 C 330.535156 270.410156 330.777344 270.265625 330.941406 270.046875 L 332.816406 267.550781 C 332.976562 267.332031 333.046875 267.0625 333.011719 266.792969 C 332.980469 266.582031 332.882812 266.386719 332.738281 266.234375 Z M 342.625 253.050781 C 342.8125 253.148438 343.027344 253.183594 343.238281 253.152344 C 343.507812 253.117188 343.75 252.972656 343.910156 252.753906 L 345.785156 250.257812 C 345.949219 250.039062 346.019531 249.765625 345.980469 249.5 C 345.949219 249.289062 345.855469 249.09375 345.707031 248.941406 Z M 341.554688 241.574219 L 321.421875 268.417969 C 321.160156 268.769531 321.046875 269.207031 321.109375 269.640625 C 321.171875 270.074219 321.402344 270.464844 321.753906 270.726562 L 324.027344 272.433594 C 324.378906 272.695312 324.816406 272.808594 325.25 272.746094 C 325.683594 272.683594 326.074219 272.453125 326.335938 272.105469 L 346.46875 245.257812 C 346.730469 244.910156 346.84375 244.46875 346.78125 244.039062 C 346.71875 243.605469 346.488281 243.214844 346.136719 242.953125 L 343.859375 241.246094 C 343.511719 240.984375 343.070312 240.871094 342.640625 240.933594 C 342.207031 240.992188 341.816406 241.226562 341.554688 241.574219 Z M 336.667969 251.875 C 336.933594 251.523438 337.433594 251.449219 337.789062 251.714844 C 338.140625 251.980469 338.214844 252.484375 337.949219 252.835938 C 337.683594 253.1875 337.179688 253.261719 336.828125 252.996094 C 336.472656 252.730469 336.402344 252.230469 336.667969 251.875 Z M 341.46875 245.46875 L 339.070312 248.671875 C 338.804688 249.027344 338.875 249.527344 339.230469 249.792969 C 339.582031 250.058594 340.085938 249.988281 340.351562 249.632812 L 342.75 246.429688 C 343.015625 246.078125 342.945312 245.574219 342.589844 245.308594 C 342.238281 245.042969 341.734375 245.117188 341.46875 245.46875 Z M 324.890625 255.59375 C 324.21875 253.910156 324.472656 252 325.558594 250.550781 C 326.644531 249.101562 328.410156 248.324219 330.214844 248.496094 C 330.652344 248.539062 331.046875 248.21875 331.085938 247.777344 C 331.128906 247.335938 330.808594 246.945312 330.367188 246.902344 C 328.007812 246.675781 325.699219 247.691406 324.277344 249.589844 C 322.855469 251.484375 322.523438 253.988281 323.40625 256.1875 C 323.570312 256.597656 324.035156 256.796875 324.445312 256.632812 C 324.855469 256.46875 325.054688 256.003906 324.890625 255.59375 Z M 321.199219 255.640625 C 320.433594 253.292969 320.980469 250.527344 322.617188 248.34375 C 324.253906 246.160156 326.753906 244.859375 329.226562 244.941406 C 329.667969 244.953125 330.039062 244.605469 330.050781 244.164062 C 330.066406 243.722656 329.71875 243.355469 329.277344 243.339844 C 326.316406 243.246094 323.300781 244.765625 321.335938 247.382812 C 319.375 250 318.757812 253.320312 319.679688 256.140625 C 319.816406 256.558594 320.269531 256.789062 320.6875 256.652344 C 321.109375 256.515625 321.335938 256.0625 321.199219 255.640625 Z M 317.324219 255.859375 C 316.242188 252.609375 316.972656 248.800781 319.222656 245.800781 C 321.476562 242.800781 324.925781 241.03125 328.347656 241.15625 C 328.789062 241.175781 329.164062 240.828125 329.179688 240.386719 C 329.195312 239.945312 328.851562 239.574219 328.410156 239.558594 C 324.492188 239.410156 320.519531 241.402344 317.945312 244.839844 C 315.367188 248.273438 314.566406 252.644531 315.804688 256.363281 C 315.945312 256.785156 316.398438 257.011719 316.816406 256.871094 C 317.234375 256.730469 317.464844 256.277344 317.324219 255.859375 Z M 317.324219 255.859375 " fill-opacity="1" fill-rule="evenodd"/></g></g></g><g clip-path="url(#c3062c81b3)"><g clip-path="url(#10cc2b9d56)"><g clip-path="url(#dcbacc1b8b)"><path fill="#ffffff" d="M 223.550781 227.113281 L 206.75 212.605469 C 206.199219 212.128906 206.136719 211.292969 206.613281 210.738281 C 207.089844 210.1875 207.925781 210.125 208.480469 210.605469 L 226.089844 225.8125 L 260.898438 208.035156 L 258.902344 184.847656 C 258.839844 184.121094 259.378906 183.480469 260.105469 183.417969 C 260.832031 183.355469 261.472656 183.894531 261.535156 184.621094 L 263.441406 206.734375 L 268.171875 204.320312 C 269.4375 203.671875 270.910156 203.554688 272.265625 203.992188 C 273.621094 204.429688 274.742188 205.390625 275.390625 206.65625 L 277.527344 210.84375 C 278.175781 212.109375 278.292969 213.582031 277.855469 214.9375 C 277.417969 216.289062 276.457031 217.414062 275.191406 218.0625 L 272.558594 219.40625 C 272.972656 220.371094 273.027344 221.453125 272.703125 222.457031 C 272.347656 223.550781 271.574219 224.457031 270.550781 224.980469 L 265.957031 227.328125 C 264.933594 227.851562 263.746094 227.945312 262.652344 227.589844 C 261.648438 227.265625 260.800781 226.585938 260.265625 225.6875 L 240.765625 235.644531 C 241.179688 236.609375 241.234375 237.691406 240.910156 238.695312 C 240.554688 239.789062 239.78125 240.695312 238.757812 241.21875 L 234.164062 243.566406 C 233.140625 244.089844 231.953125 244.183594 230.859375 243.828125 C 229.855469 243.503906 229.007812 242.828125 228.472656 241.925781 L 225.839844 243.269531 C 224.570312 243.917969 223.097656 244.035156 221.746094 243.597656 C 220.390625 243.15625 219.265625 242.199219 218.621094 240.933594 L 216.480469 236.746094 C 215.835938 235.480469 215.71875 234.007812 216.15625 232.652344 C 216.59375 231.300781 217.550781 230.175781 218.820312 229.527344 Z M 230.839844 240.714844 C 231.046875 240.996094 231.335938 241.203125 231.671875 241.3125 C 232.097656 241.453125 232.5625 241.414062 232.960938 241.210938 L 237.554688 238.863281 C 237.953125 238.660156 238.253906 238.308594 238.394531 237.882812 C 238.5 237.546875 238.503906 237.1875 238.398438 236.855469 Z M 262.632812 224.476562 C 262.839844 224.753906 263.132812 224.964844 263.464844 225.074219 C 263.890625 225.210938 264.355469 225.175781 264.753906 224.972656 L 269.347656 222.625 C 269.746094 222.421875 270.046875 222.066406 270.1875 221.640625 C 270.296875 221.304688 270.296875 220.949219 270.191406 220.617188 Z M 269.375 206.675781 L 220.023438 231.882812 C 219.378906 232.210938 218.894531 232.78125 218.671875 233.46875 C 218.449219 234.152344 218.507812 234.902344 218.835938 235.542969 L 220.972656 239.730469 C 221.304688 240.371094 221.875 240.859375 222.558594 241.082031 C 223.246094 241.300781 223.992188 241.242188 224.636719 240.914062 L 273.988281 215.707031 C 274.632812 215.378906 275.117188 214.808594 275.339844 214.121094 C 275.5625 213.433594 275.5 212.6875 275.171875 212.046875 L 273.035156 207.859375 C 272.707031 207.21875 272.136719 206.730469 271.449219 206.507812 C 270.765625 206.285156 270.019531 206.347656 269.375 206.675781 Z M 254.648438 218.40625 C 255.296875 218.074219 256.09375 218.332031 256.425781 218.984375 C 256.757812 219.632812 256.5 220.429688 255.851562 220.761719 C 255.199219 221.09375 254.402344 220.835938 254.070312 220.1875 C 253.738281 219.535156 253.996094 218.738281 254.648438 218.40625 Z M 266.421875 212.390625 L 260.535156 215.398438 C 259.882812 215.730469 259.625 216.527344 259.957031 217.179688 C 260.289062 217.828125 261.085938 218.085938 261.738281 217.753906 L 267.625 214.746094 C 268.273438 214.414062 268.535156 213.617188 268.203125 212.96875 C 267.871094 212.316406 267.070312 212.058594 266.421875 212.390625 Z M 234.480469 215.375 C 234.703125 212.390625 236.464844 209.738281 239.128906 208.378906 C 241.796875 207.015625 244.976562 207.140625 247.527344 208.710938 C 248.148438 209.09375 248.964844 208.898438 249.34375 208.277344 C 249.726562 207.65625 249.535156 206.839844 248.914062 206.457031 C 245.578125 204.40625 241.414062 204.242188 237.925781 206.023438 C 234.441406 207.804688 232.132812 211.273438 231.84375 215.175781 C 231.789062 215.90625 232.335938 216.539062 233.0625 216.59375 C 233.789062 216.648438 234.425781 216.101562 234.480469 215.375 Z M 228.96875 212.765625 C 229.535156 208.722656 232.355469 205.019531 236.367188 202.972656 C 240.382812 200.921875 245.035156 200.804688 248.644531 202.714844 C 249.289062 203.058594 250.089844 202.8125 250.429688 202.167969 C 250.773438 201.523438 250.527344 200.722656 249.878906 200.378906 C 245.554688 198.089844 239.976562 198.15625 235.167969 200.617188 C 230.355469 203.074219 227.027344 207.550781 226.347656 212.398438 C 226.25 213.121094 226.753906 213.789062 227.476562 213.890625 C 228.199219 213.992188 228.867188 213.488281 228.96875 212.765625 Z M 223.058594 210.273438 C 223.816406 204.671875 227.664062 199.550781 233.183594 196.730469 C 238.699219 193.914062 245.105469 193.796875 250.089844 196.46875 C 250.730469 196.8125 251.53125 196.570312 251.878906 195.929688 C 252.222656 195.285156 251.980469 194.484375 251.339844 194.136719 C 245.632812 191.078125 238.296875 191.148438 231.980469 194.375 C 225.664062 197.601562 221.304688 203.503906 220.4375 209.921875 C 220.339844 210.644531 220.847656 211.308594 221.574219 211.40625 C 222.296875 211.503906 222.960938 210.996094 223.058594 210.273438 Z M 223.058594 210.273438 " fill-opacity="1" fill-rule="evenodd"/></g></g></g><g clip-path="url(#24d7534035)"><g clip-path="url(#51f5fc53ad)"><g clip-path="url(#b563070874)"><path fill="#ffffff" d="M 323.21875 160.03125 C 317.601562 183.105469 331.800781 206.445312 354.875 212.0625 C 377.949219 217.679688 401.289062 203.476562 406.90625 180.402344 C 412.523438 157.332031 398.324219 133.988281 375.25 128.371094 C 352.175781 122.753906 328.835938 136.957031 323.21875 160.03125 Z M 330.828125 161.882812 C 335.421875 143.003906 354.519531 131.386719 373.398438 135.980469 C 392.273438 140.578125 403.894531 159.675781 399.300781 178.550781 C 394.703125 197.429688 375.605469 209.050781 356.726562 204.453125 C 337.851562 199.859375 326.230469 180.761719 330.828125 161.882812 Z M 336.53125 163.273438 C 336.257812 164.402344 336.472656 165.652344 337.269531 166.664062 L 343.328125 174.339844 C 344.761719 176.15625 347.652344 175.523438 348.199219 173.277344 L 348.921875 170.316406 L 354.625 171.707031 C 356.726562 172.21875 358.84375 170.929688 359.355469 168.828125 C 359.867188 166.726562 358.582031 164.609375 356.480469 164.097656 L 350.773438 162.710938 L 351.492188 159.75 C 352.039062 157.503906 349.761719 155.609375 347.65625 156.5625 L 338.746094 160.597656 C 337.574219 161.128906 336.808594 162.140625 336.53125 163.273438 Z M 351.226562 185.910156 C 350.746094 187.355469 351.519531 189.082031 353.203125 189.492188 L 356.164062 190.214844 L 354.777344 195.917969 C 354.265625 198.019531 355.550781 200.136719 357.65625 200.648438 C 359.757812 201.160156 361.875 199.871094 362.382812 197.773438 L 363.773438 192.066406 L 366.734375 192.785156 C 368.980469 193.332031 370.871094 191.054688 369.917969 188.949219 L 365.882812 180.039062 C 364.820312 177.695312 361.839844 176.96875 359.820312 178.5625 L 352.144531 184.621094 C 351.691406 184.980469 351.390625 185.429688 351.226562 185.910156 Z M 359.988281 149.921875 C 359.910156 150.421875 359.96875 150.957031 360.207031 151.484375 L 364.242188 160.398438 C 365.304688 162.738281 368.285156 163.464844 370.304688 161.871094 L 377.980469 155.8125 C 379.796875 154.378906 379.164062 151.488281 376.921875 150.941406 L 373.960938 150.222656 L 375.347656 144.515625 C 375.859375 142.414062 374.574219 140.296875 372.472656 139.785156 C 370.371094 139.273438 368.253906 140.5625 367.742188 142.664062 L 366.351562 148.367188 L 363.390625 147.648438 C 361.707031 147.238281 360.222656 148.417969 359.988281 149.921875 Z M 370.769531 171.605469 C 370.257812 173.707031 371.546875 175.824219 373.648438 176.335938 L 379.351562 177.726562 L 378.632812 180.6875 C 378.085938 182.929688 380.363281 184.824219 382.46875 183.871094 L 391.378906 179.835938 C 393.722656 178.773438 394.449219 175.792969 392.855469 173.773438 L 386.796875 166.09375 C 385.363281 164.28125 382.472656 164.914062 381.925781 167.15625 L 381.207031 170.117188 L 375.5 168.726562 C 373.398438 168.21875 371.28125 169.507812 370.769531 171.605469 Z M 370.769531 171.605469 " fill-opacity="1" fill-rule="nonzero"/></g></g></g></g></g></g></g></svg>