<svg xmlns="http://www.w3.org/2000/svg" xmlns:xlink="http://www.w3.org/1999/xlink" width="868" zoomAndPan="magnify" viewBox="0 0 651 251.250001" height="335" preserveAspectRatio="xMidYMid meet" version="1.0"><defs><filter x="0%" y="0%" width="100%" height="100%" id="521d717464"><feColorMatrix values="0 0 0 0 1 0 0 0 0 1 0 0 0 0 1 0 0 0 1 0" color-interpolation-filters="sRGB"/></filter><mask id="f5a029ae8a"><g filter="url(#521d717464)"><rect x="-65.1" width="781.2" fill="#000000" y="-25.125" height="301.500001" fill-opacity="0.53"/></g></mask><clipPath id="151c08c6d7"><path d="M 7 7 L 42 7 L 42 42 L 7 42 Z M 7 7 " clip-rule="nonzero"/></clipPath><clipPath id="1b363de712"><path d="M 17.058594 1.40625 L 47.75 16.933594 L 32.222656 47.628906 L 1.53125 32.101562 Z M 17.058594 1.40625 " clip-rule="nonzero"/></clipPath><clipPath id="00bc728cc0"><path d="M 17.058594 1.40625 L 47.75 16.933594 L 32.222656 47.628906 L 1.53125 32.101562 Z M 17.058594 1.40625 " clip-rule="nonzero"/></clipPath><clipPath id="4c9e89abe6"><rect x="0" width="49" y="0" height="49"/></clipPath><mask id="41622eb32e"><g filter="url(#521d717464)"><rect x="-65.1" width="781.2" fill="#000000" y="-25.125" height="301.500001" fill-opacity="0.53"/></g></mask><clipPath id="a7230627b6"><path d="M 5 5 L 32 5 L 32 41 L 5 41 Z M 5 5 " clip-rule="nonzero"/></clipPath><clipPath id="db3737d971"><path d="M 0.269531 15.027344 L 22.449219 1.132812 L 43.089844 34.085938 L 20.914062 47.980469 Z M 0.269531 15.027344 " clip-rule="nonzero"/></clipPath><clipPath id="27c269dfd5"><path d="M 0.269531 15.027344 L 22.449219 1.132812 L 43.089844 34.085938 L 20.914062 47.980469 Z M 0.269531 15.027344 " clip-rule="nonzero"/></clipPath><clipPath id="f57a30fb70"><rect x="0" width="43" y="0" height="48"/></clipPath><mask id="fb6952b5cd"><g filter="url(#521d717464)"><rect x="-65.1" width="781.2" fill="#000000" y="-25.125" height="301.500001" fill-opacity="0.53"/></g></mask><clipPath id="59ca8b1dbc"><path d="M 5 4 L 40 4 L 40 39 L 5 39 Z M 5 4 " clip-rule="nonzero"/></clipPath><clipPath id="999afdc5b3"><path d="M 1.292969 9.476562 L 34.59375 0.851562 L 43.21875 34.148438 L 9.917969 42.773438 Z M 1.292969 9.476562 " clip-rule="nonzero"/></clipPath><clipPath id="09cf296822"><path d="M 1.292969 9.476562 L 34.59375 0.851562 L 43.21875 34.148438 L 9.917969 42.773438 Z M 1.292969 9.476562 " clip-rule="nonzero"/></clipPath><clipPath id="e8547dbdd6"><rect x="0" width="44" y="0" height="44"/></clipPath><mask id="66cd0af210"><g filter="url(#521d717464)"><rect x="-65.1" width="781.2" fill="#000000" y="-25.125" height="301.500001" fill-opacity="0.53"/></g></mask><clipPath id="7a941b2783"><path d="M 6 3 L 23 3 L 23 26 L 6 26 Z M 6 3 " clip-rule="nonzero"/></clipPath><clipPath id="62765c7f68"><path d="M 11.503906 1.050781 L 25.929688 8.957031 L 14.429688 29.941406 L 0.00390625 22.035156 Z M 11.503906 1.050781 " clip-rule="nonzero"/></clipPath><clipPath id="4acad5d13e"><path d="M 11.503906 1.050781 L 25.929688 8.957031 L 14.429688 29.941406 L 0.00390625 22.035156 Z M 11.503906 1.050781 " clip-rule="nonzero"/></clipPath><clipPath id="af4803f6a1"><rect x="0" width="26" y="0" height="30"/></clipPath><mask id="7df7092b18"><g filter="url(#521d717464)"><rect x="-65.1" width="781.2" fill="#000000" y="-25.125" height="301.500001" fill-opacity="0.53"/></g></mask><clipPath id="f5e0bd8971"><path d="M 7 7 L 60 7 L 60 59 L 7 59 Z M 7 7 " clip-rule="nonzero"/></clipPath><clipPath id="028e2f53fb"><path d="M 1.703125 16.160156 L 51.117188 1.3125 L 65.964844 50.726562 L 16.550781 65.574219 Z M 1.703125 16.160156 " clip-rule="nonzero"/></clipPath><clipPath id="4db0c349f9"><path d="M 1.703125 16.160156 L 51.117188 1.3125 L 65.964844 50.726562 L 16.550781 65.574219 Z M 1.703125 16.160156 " clip-rule="nonzero"/></clipPath><clipPath id="8c4865149b"><rect x="0" width="67" y="0" height="67"/></clipPath><mask id="9f1899c917"><g filter="url(#521d717464)"><rect x="-65.1" width="781.2" fill="#000000" y="-25.125" height="301.500001" fill-opacity="0.53"/></g></mask><clipPath id="3d9798b433"><path d="M 4 2 L 19 2 L 19 17 L 4 17 Z M 4 2 " clip-rule="nonzero"/></clipPath><clipPath id="156953f082"><path d="M 13.171875 0.390625 L 21.457031 9.019531 L 9.054688 20.933594 L 0.765625 12.304688 Z M 13.171875 0.390625 " clip-rule="nonzero"/></clipPath><clipPath id="f0913d8346"><path d="M 13.171875 0.390625 L 21.457031 9.019531 L 9.054688 20.933594 L 0.765625 12.304688 Z M 13.171875 0.390625 " clip-rule="nonzero"/></clipPath><clipPath id="6ac7766c1d"><rect x="0" width="22" y="0" height="21"/></clipPath><mask id="a224f7d585"><g filter="url(#521d717464)"><rect x="-65.1" width="781.2" fill="#000000" y="-25.125" height="301.500001" fill-opacity="0.53"/></g></mask><clipPath id="e3d14f68dc"><path d="M 3 6 L 41 6 L 41 34 L 3 34 Z M 3 6 " clip-rule="nonzero"/></clipPath><clipPath id="7c311306f5"><path d="M 43.761719 10.945312 L 36.59375 36.117188 L -0.800781 25.46875 L 6.363281 0.296875 Z M 43.761719 10.945312 " clip-rule="nonzero"/></clipPath><clipPath id="a7cc42f044"><path d="M 43.761719 10.945312 L 36.59375 36.117188 L -0.800781 25.46875 L 6.363281 0.296875 Z M 43.761719 10.945312 " clip-rule="nonzero"/></clipPath><clipPath id="7483e1b9fe"><rect x="0" width="44" y="0" height="37"/></clipPath><mask id="fff958a631"><g filter="url(#521d717464)"><rect x="-65.1" width="781.2" fill="#000000" y="-25.125" height="301.500001" fill-opacity="0.53"/></g></mask><clipPath id="bcf96e6fdf"><path d="M 1 1.390625 L 18.128906 1.390625 L 18.128906 18.589844 L 1 18.589844 Z M 1 1.390625 " clip-rule="nonzero"/></clipPath><clipPath id="c22ce3ca40"><rect x="0" width="19" y="0" height="19"/></clipPath><mask id="1edbe60ec3"><g filter="url(#521d717464)"><rect x="-65.1" width="781.2" fill="#000000" y="-25.125" height="301.500001" fill-opacity="0.53"/></g></mask><clipPath id="6da1f9ac7d"><path d="M 0.429688 0 L 37.816406 0 L 37.816406 31.347656 L 0.429688 31.347656 Z M 0.429688 0 " clip-rule="nonzero"/></clipPath><clipPath id="4874e41bb1"><rect x="0" width="38" y="0" height="32"/></clipPath><mask id="c457152c4c"><g filter="url(#521d717464)"><rect x="-65.1" width="781.2" fill="#000000" y="-25.125" height="301.500001" fill-opacity="0.53"/></g></mask><clipPath id="e7b98c9fd3"><path d="M 7 7 L 43 7 L 43 43 L 7 43 Z M 7 7 " clip-rule="nonzero"/></clipPath><clipPath id="e637bbcf52"><path d="M 17.484375 0.9375 L 48.84375 16.800781 L 32.980469 48.160156 L 1.617188 32.296875 Z M 17.484375 0.9375 " clip-rule="nonzero"/></clipPath><clipPath id="70ceaa9eee"><path d="M 17.484375 0.9375 L 48.84375 16.800781 L 32.980469 48.160156 L 1.617188 32.296875 Z M 17.484375 0.9375 " clip-rule="nonzero"/></clipPath><clipPath id="87cda4607f"><rect x="0" width="51" y="0" height="50"/></clipPath><mask id="30365d2e37"><g filter="url(#521d717464)"><rect x="-65.1" width="781.2" fill="#000000" y="-25.125" height="301.500001" fill-opacity="0.53"/></g></mask><clipPath id="eb5ef1234d"><path d="M 5 5 L 34 5 L 34 42 L 5 42 Z M 5 5 " clip-rule="nonzero"/></clipPath><clipPath id="340f93b881"><path d="M 0.550781 15.148438 L 23.996094 0.457031 L 45.433594 34.675781 L 21.988281 49.367188 Z M 0.550781 15.148438 " clip-rule="nonzero"/></clipPath><clipPath id="7c0220550f"><path d="M 0.550781 15.148438 L 23.996094 0.457031 L 45.433594 34.675781 L 21.988281 49.367188 Z M 0.550781 15.148438 " clip-rule="nonzero"/></clipPath><clipPath id="a4df294c40"><rect x="0" width="45" y="0" height="49"/></clipPath><mask id="0f9c70c608"><g filter="url(#521d717464)"><rect x="-65.1" width="781.2" fill="#000000" y="-25.125" height="301.500001" fill-opacity="0.53"/></g></mask><clipPath id="7efb3ef635"><path d="M 4 5 L 41 5 L 41 41 L 4 41 Z M 4 5 " clip-rule="nonzero"/></clipPath><clipPath id="113773d831"><path d="M 0.957031 10.375 L 34.980469 1.566406 L 43.789062 35.585938 L 9.765625 44.398438 Z M 0.957031 10.375 " clip-rule="nonzero"/></clipPath><clipPath id="88d99a2603"><path d="M 0.957031 10.375 L 34.980469 1.566406 L 43.789062 35.585938 L 9.765625 44.398438 Z M 0.957031 10.375 " clip-rule="nonzero"/></clipPath><clipPath id="1543936cb7"><rect x="0" width="46" y="0" height="46"/></clipPath><mask id="cc83d62c24"><g filter="url(#521d717464)"><rect x="-65.1" width="781.2" fill="#000000" y="-25.125" height="301.500001" fill-opacity="0.53"/></g></mask><clipPath id="69d762b3b0"><path d="M 6 0 L 24 0 L 24 16 L 6 16 Z M 6 0 " clip-rule="nonzero"/></clipPath><clipPath id="4c3bf3a214"><path d="M 11.871094 -9.777344 L 26.296875 -1.871094 L 14.433594 19.769531 L 0.0078125 11.863281 Z M 11.871094 -9.777344 " clip-rule="nonzero"/></clipPath><clipPath id="aada72ae60"><path d="M 11.871094 -9.777344 L 26.296875 -1.871094 L 14.433594 19.769531 L 0.0078125 11.863281 Z M 11.871094 -9.777344 " clip-rule="nonzero"/></clipPath><clipPath id="7da0e9f5db"><rect x="0" width="27" y="0" height="20"/></clipPath><clipPath id="8a71ae959b"><path d="M 608 25 L 650.03125 25 L 650.03125 95 L 608 95 Z M 608 25 " clip-rule="nonzero"/></clipPath><mask id="6da34a5b59"><g filter="url(#521d717464)"><rect x="-65.1" width="781.2" fill="#000000" y="-25.125" height="301.500001" fill-opacity="0.53"/></g></mask><clipPath id="6c113c5b94"><path d="M 8 8 L 42.03125 8 L 42.03125 62 L 8 62 Z M 8 8 " clip-rule="nonzero"/></clipPath><clipPath id="c61a8fc362"><path d="M 1.609375 17.253906 L 52.457031 1.976562 L 67.734375 52.820312 L 16.886719 68.097656 Z M 1.609375 17.253906 " clip-rule="nonzero"/></clipPath><clipPath id="acbfc0a409"><path d="M 1.609375 17.253906 L 52.457031 1.976562 L 67.734375 52.820312 L 16.886719 68.097656 Z M 1.609375 17.253906 " clip-rule="nonzero"/></clipPath><clipPath id="7b74db3467"><rect x="0" width="43" y="0" height="70"/></clipPath><mask id="ccc7582738"><g filter="url(#521d717464)"><rect x="-65.1" width="781.2" fill="#000000" y="-25.125" height="301.500001" fill-opacity="0.53"/></g></mask><clipPath id="2f9b5ce953"><path d="M 5 3 L 20 3 L 20 18 L 5 18 Z M 5 3 " clip-rule="nonzero"/></clipPath><clipPath id="a368ffb023"><path d="M 13.597656 0.515625 L 22.402344 9.679688 L 9.460938 22.113281 L 0.652344 12.945312 Z M 13.597656 0.515625 " clip-rule="nonzero"/></clipPath><clipPath id="27540da934"><path d="M 13.597656 0.515625 L 22.402344 9.679688 L 9.460938 22.113281 L 0.652344 12.945312 Z M 13.597656 0.515625 " clip-rule="nonzero"/></clipPath><clipPath id="1f468b55d8"><rect x="0" width="23" y="0" height="23"/></clipPath><mask id="a948648c18"><g filter="url(#521d717464)"><rect x="-65.1" width="781.2" fill="#000000" y="-25.125" height="301.500001" fill-opacity="0.53"/></g></mask><clipPath id="223c7b4722"><path d="M 0.230469 0.507812 L 36.121094 0.507812 L 36.121094 52.105469 L 0.230469 52.105469 Z M 0.230469 0.507812 " clip-rule="nonzero"/></clipPath><clipPath id="abc8491676"><rect x="0" width="37" y="0" height="53"/></clipPath><clipPath id="bfb4e35097"><path d="M 581 227 L 630 227 L 630 250.503906 L 581 250.503906 Z M 581 227 " clip-rule="nonzero"/></clipPath><mask id="f8770fe160"><g filter="url(#521d717464)"><rect x="-65.1" width="781.2" fill="#000000" y="-25.125" height="301.500001" fill-opacity="0.53"/></g></mask><clipPath id="8d3fb9313a"><path d="M 7 6 L 42 6 L 42 23.503906 L 7 23.503906 Z M 7 6 " clip-rule="nonzero"/></clipPath><clipPath id="a40dd72c4e"><path d="M 17.105469 0.878906 L 47.800781 16.40625 L 32.273438 47.101562 L 1.578125 31.574219 Z M 17.105469 0.878906 " clip-rule="nonzero"/></clipPath><clipPath id="a6b05cae77"><path d="M 17.105469 0.878906 L 47.800781 16.40625 L 32.273438 47.101562 L 1.578125 31.574219 Z M 17.105469 0.878906 " clip-rule="nonzero"/></clipPath><clipPath id="c27ae424d3"><rect x="0" width="49" y="0" height="24"/></clipPath><clipPath id="e89d49333c"><path d="M 637 192 L 650.03125 192 L 650.03125 221 L 637 221 Z M 637 192 " clip-rule="nonzero"/></clipPath><mask id="f26c55a74f"><g filter="url(#521d717464)"><rect x="-65.1" width="781.2" fill="#000000" y="-25.125" height="301.500001" fill-opacity="0.53"/></g></mask><clipPath id="67282aeefc"><path d="M 6 3 L 13.03125 3 L 13.03125 25 L 6 25 Z M 6 3 " clip-rule="nonzero"/></clipPath><clipPath id="0632f30584"><path d="M 11.554688 0.523438 L 25.980469 8.429688 L 14.476562 29.414062 L 0.0507812 21.507812 Z M 11.554688 0.523438 " clip-rule="nonzero"/></clipPath><clipPath id="6c64de9432"><path d="M 11.554688 0.523438 L 25.980469 8.429688 L 14.476562 29.414062 L 0.0507812 21.507812 Z M 11.554688 0.523438 " clip-rule="nonzero"/></clipPath><clipPath id="174e9ba618"><rect x="0" width="14" y="0" height="29"/></clipPath><clipPath id="7370a0730a"><path d="M 395 234 L 443 234 L 443 250.503906 L 395 250.503906 Z M 395 234 " clip-rule="nonzero"/></clipPath><mask id="89efc10e71"><g filter="url(#521d717464)"><rect x="-65.1" width="781.2" fill="#000000" y="-25.125" height="301.500001" fill-opacity="0.53"/></g></mask><clipPath id="1d1c515d3b"><path d="M 7 7 L 42 7 L 42 16.503906 L 7 16.503906 Z M 7 7 " clip-rule="nonzero"/></clipPath><clipPath id="063957a20e"><path d="M 16.535156 1.601562 L 47.230469 17.128906 L 31.703125 47.824219 L 1.007812 32.296875 Z M 16.535156 1.601562 " clip-rule="nonzero"/></clipPath><clipPath id="80166523b2"><path d="M 16.535156 1.601562 L 47.230469 17.128906 L 31.703125 47.824219 L 1.007812 32.296875 Z M 16.535156 1.601562 " clip-rule="nonzero"/></clipPath><clipPath id="57f0bbab69"><rect x="0" width="48" y="0" height="17"/></clipPath><mask id="2e6e9aaa61"><g filter="url(#521d717464)"><rect x="-65.1" width="781.2" fill="#000000" y="-25.125" height="301.500001" fill-opacity="0.53"/></g></mask><clipPath id="13aad8007f"><path d="M 7 3 L 24 3 L 24 25 L 7 25 Z M 7 3 " clip-rule="nonzero"/></clipPath><clipPath id="10f58f40d6"><path d="M 11.984375 0.246094 L 26.410156 8.152344 L 14.90625 29.136719 L 0.480469 21.230469 Z M 11.984375 0.246094 " clip-rule="nonzero"/></clipPath><clipPath id="098db87f35"><path d="M 11.984375 0.246094 L 26.410156 8.152344 L 14.90625 29.136719 L 0.480469 21.230469 Z M 11.984375 0.246094 " clip-rule="nonzero"/></clipPath><clipPath id="af43eb362e"><rect x="0" width="27" y="0" height="29"/></clipPath><clipPath id="a2f57a93e6"><path d="M 474 234 L 542 234 L 542 250.503906 L 474 250.503906 Z M 474 234 " clip-rule="nonzero"/></clipPath><mask id="d2bc6b1ae8"><g filter="url(#521d717464)"><rect x="-65.1" width="781.2" fill="#000000" y="-25.125" height="301.500001" fill-opacity="0.53"/></g></mask><clipPath id="9d7c32b747"><path d="M 8 7 L 60 7 L 60 16.503906 L 8 16.503906 Z M 8 7 " clip-rule="nonzero"/></clipPath><clipPath id="2fbfb9f278"><path d="M 2.183594 16.355469 L 51.59375 1.507812 L 66.441406 50.921875 L 17.027344 65.769531 Z M 2.183594 16.355469 " clip-rule="nonzero"/></clipPath><clipPath id="988882b3d4"><path d="M 2.183594 16.355469 L 51.59375 1.507812 L 66.441406 50.921875 L 17.027344 65.769531 Z M 2.183594 16.355469 " clip-rule="nonzero"/></clipPath><clipPath id="7349fad832"><rect x="0" width="68" y="0" height="17"/></clipPath></defs><g mask="url(#f5a029ae8a)"><g transform="matrix(1, 0, 0, 1, 353, 59)"><g clip-path="url(#4c9e89abe6)"><g clip-path="url(#151c08c6d7)"><g clip-path="url(#1b363de712)"><g clip-path="url(#00bc728cc0)"><path fill="#ffffff" d="M 32.28125 9.109375 C 23.886719 4.863281 13.605469 8.234375 9.359375 16.628906 C 5.113281 25.023438 8.484375 35.304688 16.878906 39.550781 C 25.273438 43.796875 35.554688 40.421875 39.800781 32.03125 C 44.046875 23.636719 40.671875 13.355469 32.28125 9.109375 Z M 18.371094 36.605469 C 12.957031 33.867188 10.144531 28.015625 10.980469 22.316406 L 16.925781 21.023438 L 19.441406 20.472656 L 20.324219 23.164062 L 19.769531 23.277344 C 18.882812 23.472656 18.3125 24.355469 18.515625 25.246094 C 18.710938 26.132812 19.582031 26.699219 20.484375 26.5 L 26.117188 25.265625 L 31.414062 24.109375 L 32.804688 28.355469 L 34.582031 33.765625 C 30.507812 38.078125 23.925781 39.417969 18.371094 36.605469 Z M 36.902344 30.253906 L 34.082031 21.660156 C 33.824219 20.855469 32.988281 20.382812 32.15625 20.566406 L 23.558594 22.445312 L 22.109375 18.023438 C 21.851562 17.214844 21.015625 16.742188 20.183594 16.925781 L 12.042969 18.707031 C 12.132812 18.511719 12.207031 18.3125 12.304688 18.121094 C 15.726562 11.351562 24.019531 8.628906 30.789062 12.054688 C 37.5 15.449219 40.222656 23.625 36.933594 30.359375 Z M 36.902344 30.253906 " fill-opacity="1" fill-rule="nonzero"/></g></g></g></g></g></g><g mask="url(#41622eb32e)"><g transform="matrix(1, 0, 0, 1, 366, 113)"><g clip-path="url(#f57a30fb70)"><g clip-path="url(#a7230627b6)"><g clip-path="url(#db3737d971)"><g clip-path="url(#27c269dfd5)"><path fill="#ffffff" d="M 11.488281 8.011719 C 17.679688 4.128906 25.847656 6.003906 29.726562 12.199219 C 31.074219 14.355469 31.726562 16.746094 31.746094 19.117188 C 31.792969 22 31.839844 24.886719 31.886719 27.769531 C 31.917969 31.238281 31.941406 34.042969 31.96875 37.507812 C 31.992188 40.5625 31.933594 40.675781 29.183594 39.3125 C 26.089844 37.78125 23.492188 36.496094 20.402344 34.96875 C 17.84375 33.6875 15.289062 32.40625 12.730469 31.125 C 10.570312 30.078125 8.667969 28.433594 7.300781 26.25 C 3.417969 20.054688 5.292969 11.890625 11.488281 8.011719 Z M 15.007812 13.632812 C 17.785156 11.894531 21.445312 12.734375 23.1875 15.511719 C 24.925781 18.285156 24.085938 21.945312 21.308594 23.6875 C 18.53125 25.425781 14.871094 24.585938 13.132812 21.808594 C 11.390625 19.03125 12.234375 15.371094 15.007812 13.632812 Z M 15.007812 13.632812 " fill-opacity="1" fill-rule="evenodd"/></g></g></g></g></g></g><g mask="url(#fb6952b5cd)"><g transform="matrix(1, 0, 0, 1, 427, 139)"><g clip-path="url(#e8547dbdd6)"><g clip-path="url(#59ca8b1dbc)"><g clip-path="url(#999afdc5b3)"><g clip-path="url(#09cf296822)"><path fill="#ffffff" d="M 17.808594 5.199219 C 8.703125 7.554688 3.214844 16.882812 5.570312 25.988281 C 7.929688 35.09375 17.253906 40.582031 26.363281 38.226562 C 35.46875 35.867188 40.957031 26.542969 38.597656 17.433594 C 36.242188 8.328125 26.914062 2.839844 17.808594 5.199219 Z M 25.535156 35.03125 C 19.660156 36.550781 13.683594 34.015625 10.546875 29.1875 L 14.15625 24.289062 L 15.675781 22.210938 L 18.117188 23.648438 L 17.78125 24.101562 C 17.242188 24.832031 17.398438 25.871094 18.140625 26.40625 C 18.871094 26.945312 19.898438 26.792969 20.445312 26.046875 L 23.859375 21.402344 L 27.070312 17.035156 L 30.917969 19.300781 L 35.828125 22.1875 C 35.617188 28.117188 31.5625 33.46875 25.535156 35.03125 Z M 35.25 18.019531 L 27.457031 13.433594 C 26.726562 12.996094 25.789062 13.191406 25.285156 13.878906 L 20.074219 20.96875 L 16.0625 18.609375 C 15.335938 18.171875 14.398438 18.371094 13.894531 19.058594 L 8.960938 25.773438 C 8.894531 25.566406 8.820312 25.371094 8.765625 25.160156 C 6.867188 17.816406 11.292969 10.296875 18.636719 8.394531 C 25.914062 6.507812 33.359375 10.847656 35.34375 18.074219 Z M 35.25 18.019531 " fill-opacity="1" fill-rule="nonzero"/></g></g></g></g></g></g><g mask="url(#66cd0af210)"><g transform="matrix(1, 0, 0, 1, 409, 24)"><g clip-path="url(#af4803f6a1)"><g clip-path="url(#7a941b2783)"><g clip-path="url(#62765c7f68)"><g clip-path="url(#4acad5d13e)"><path fill="#ffffff" d="M 18.597656 4.945312 C 22.515625 7.09375 23.953125 12.011719 21.804688 15.929688 C 21.054688 17.292969 19.972656 18.355469 18.714844 19.070312 C 17.1875 19.957031 15.664062 20.84375 14.136719 21.730469 C 12.296875 22.78125 10.804688 23.628906 8.964844 24.679688 C 7.339844 25.605469 7.261719 25.605469 7.167969 23.730469 C 7.0625 21.625 6.976562 19.851562 6.871094 17.746094 C 6.789062 16 6.710938 14.253906 6.628906 12.507812 C 6.542969 11.039062 6.855469 9.535156 7.613281 8.152344 C 9.761719 4.234375 14.679688 2.796875 18.597656 4.945312 Z M 16.648438 8.503906 C 18.40625 9.464844 19.046875 11.671875 18.085938 13.425781 C 17.121094 15.183594 14.917969 15.828125 13.160156 14.863281 C 11.402344 13.902344 10.761719 11.695312 11.722656 9.941406 C 12.6875 8.183594 14.890625 7.539062 16.648438 8.503906 Z M 16.648438 8.503906 " fill-opacity="1" fill-rule="evenodd"/></g></g></g></g></g></g><g mask="url(#7df7092b18)"><g transform="matrix(1, 0, 0, 1, 433, 59)"><g clip-path="url(#8c4865149b)"><g clip-path="url(#f5e0bd8971)"><g clip-path="url(#028e2f53fb)"><g clip-path="url(#4db0c349f9)"><path fill="#ffffff" d="M 26.253906 8.785156 C 12.71875 12.851562 5.011719 27.171875 9.082031 40.710938 C 13.148438 54.246094 27.46875 61.953125 41.007812 57.882812 C 54.542969 53.816406 62.25 39.496094 58.179688 25.957031 C 54.113281 12.421875 39.792969 4.714844 26.253906 8.785156 Z M 39.578125 53.132812 C 30.847656 55.757812 21.726562 52.296875 16.738281 45.226562 L 21.875 37.660156 L 24.039062 34.453125 L 27.785156 36.472656 L 27.304688 37.167969 C 26.539062 38.296875 26.832031 39.847656 27.976562 40.609375 C 29.105469 41.378906 30.640625 41.089844 31.417969 39.9375 L 36.273438 32.765625 L 40.84375 26.019531 L 46.757812 29.199219 L 54.292969 33.253906 C 54.324219 42.171875 48.542969 50.441406 39.578125 53.132812 Z M 53.183594 27.027344 L 41.214844 20.589844 C 40.097656 19.976562 38.703125 20.328125 37.984375 21.386719 L 30.570312 32.335938 L 24.410156 29.023438 C 23.292969 28.410156 21.894531 28.761719 21.179688 29.824219 L 14.15625 40.191406 C 14.050781 39.886719 13.925781 39.59375 13.832031 39.28125 C 10.550781 28.367188 16.765625 16.816406 27.683594 13.535156 C 38.503906 10.285156 49.933594 16.367188 53.328125 27.105469 Z M 53.183594 27.027344 " fill-opacity="1" fill-rule="nonzero"/></g></g></g></g></g></g><g mask="url(#9f1899c917)"><g transform="matrix(1, 0, 0, 1, 409, 180)"><g clip-path="url(#6ac7766c1d)"><g clip-path="url(#3d9798b433)"><g clip-path="url(#156953f082)"><g clip-path="url(#f0913d8346)"><path fill="#ffffff" d="M 17.308594 4.714844 C 19.597656 7.09375 19.519531 10.882812 17.136719 13.171875 C 16.308594 13.96875 15.308594 14.476562 14.261719 14.703125 C 12.988281 14.992188 11.71875 15.277344 10.445312 15.566406 C 8.914062 15.898438 7.675781 16.167969 6.144531 16.5 C 4.792969 16.792969 4.738281 16.777344 5.085938 15.433594 C 5.480469 13.925781 5.808594 12.65625 6.199219 11.148438 C 6.53125 9.898438 6.859375 8.648438 7.191406 7.398438 C 7.453125 6.34375 8.007812 5.351562 8.847656 4.542969 C 11.230469 2.253906 15.019531 2.332031 17.308594 4.714844 Z M 15.144531 6.789062 C 16.171875 7.859375 16.136719 9.558594 15.066406 10.582031 C 14 11.609375 12.300781 11.574219 11.277344 10.507812 C 10.25 9.4375 10.285156 7.742188 11.351562 6.714844 C 12.421875 5.6875 14.117188 5.722656 15.144531 6.789062 Z M 15.144531 6.789062 " fill-opacity="1" fill-rule="evenodd"/></g></g></g></g></g></g><g mask="url(#a224f7d585)"><g transform="matrix(1, 0, 0, 1, 484, 180)"><g clip-path="url(#7483e1b9fe)"><g clip-path="url(#e3d14f68dc)"><g clip-path="url(#7c311306f5)"><g clip-path="url(#a7cc42f044)"><path fill="#ffffff" d="M 40.128906 23.667969 C 38.128906 30.695312 30.808594 34.773438 23.78125 32.769531 C 21.335938 32.074219 19.246094 30.734375 17.648438 28.988281 C 15.679688 26.875 13.710938 24.765625 11.746094 22.65625 C 9.402344 20.097656 7.507812 18.03125 5.164062 15.476562 C 3.101562 13.222656 3.070312 13.101562 6.027344 12.269531 C 9.347656 11.335938 12.136719 10.550781 15.457031 9.617188 C 18.214844 8.855469 20.96875 8.09375 23.726562 7.332031 C 26.03125 6.664062 28.546875 6.613281 31.027344 7.320312 C 38.054688 9.320312 42.132812 16.640625 40.128906 23.667969 Z M 33.75 21.851562 C 32.851562 25.003906 29.570312 26.828125 26.417969 25.933594 C 23.269531 25.035156 21.441406 21.753906 22.339844 18.601562 C 23.234375 15.453125 26.515625 13.625 29.667969 14.523438 C 32.820312 15.417969 34.644531 18.699219 33.75 21.851562 Z M 33.75 21.851562 " fill-opacity="1" fill-rule="evenodd"/></g></g></g></g></g></g><g mask="url(#fff958a631)"><g transform="matrix(1, 0, 0, 1, 496, 130)"><g clip-path="url(#c22ce3ca40)"><g clip-path="url(#bcf96e6fdf)"><path fill="#ffffff" d="M 18.128906 9.921875 C 18.128906 5.21875 14.300781 1.390625 9.597656 1.390625 C 4.894531 1.390625 1.070312 5.21875 1.070312 9.921875 C 1.070312 14.625 4.894531 18.449219 9.597656 18.449219 C 14.300781 18.449219 18.128906 14.625 18.128906 9.921875 Z M 2.71875 9.921875 C 2.71875 6.886719 4.695312 4.3125 7.425781 3.398438 L 9.34375 5.761719 L 10.160156 6.757812 L 9.160156 7.757812 L 8.980469 7.539062 C 8.695312 7.1875 8.171875 7.132812 7.820312 7.421875 C 7.46875 7.710938 7.414062 8.226562 7.707031 8.585938 L 9.527344 10.820312 L 11.238281 12.921875 L 9.660156 14.5 L 7.644531 16.511719 C 4.800781 15.667969 2.71875 13.035156 2.71875 9.921875 Z M 9.734375 16.757812 L 12.933594 13.558594 C 13.234375 13.261719 13.257812 12.78125 12.988281 12.453125 L 10.210938 9.042969 L 11.855469 7.394531 C 12.15625 7.097656 12.179688 6.621094 11.910156 6.289062 L 9.277344 3.058594 C 9.386719 3.054688 9.492188 3.042969 9.597656 3.042969 C 13.390625 3.042969 16.476562 6.128906 16.476562 9.921875 C 16.476562 13.679688 13.445312 16.742188 9.695312 16.796875 Z M 9.734375 16.757812 " fill-opacity="1" fill-rule="nonzero"/></g></g></g></g><g mask="url(#1edbe60ec3)"><g transform="matrix(1, 0, 0, 1, 483, -0.000000000000022503)"><g clip-path="url(#4874e41bb1)"><g clip-path="url(#6da1f9ac7d)"><path fill="#ffffff" d="M 19.144531 -22.234375 C 29.484375 -22.234375 37.863281 -13.851562 37.863281 -3.515625 C 37.863281 0.0820312 36.847656 3.441406 35.089844 6.292969 C 32.980469 9.785156 30.871094 13.28125 28.761719 16.777344 C 26.191406 20.953125 24.113281 24.332031 21.546875 28.507812 C 19.28125 32.191406 19.128906 32.28125 16.851562 28.578125 C 14.292969 24.425781 12.144531 20.929688 9.589844 16.777344 C 7.484375 13.320312 5.378906 9.867188 3.277344 6.410156 C 1.472656 3.535156 0.429688 0.132812 0.429688 -3.515625 C 0.429688 -13.851562 8.808594 -22.234375 19.144531 -22.234375 Z M 19.144531 -12.847656 C 23.78125 -12.847656 27.539062 -9.09375 27.539062 -4.457031 C 27.539062 0.175781 23.78125 3.933594 19.144531 3.933594 C 14.511719 3.933594 10.753906 0.175781 10.753906 -4.457031 C 10.753906 -9.09375 14.511719 -12.847656 19.144531 -12.847656 Z M 19.144531 -12.847656 " fill-opacity="1" fill-rule="evenodd"/></g></g></g></g><g mask="url(#c457152c4c)"><g transform="matrix(1, 0, 0, 1, 525, 26)"><g clip-path="url(#87cda4607f)"><g clip-path="url(#e7b98c9fd3)"><g clip-path="url(#e637bbcf52)"><g clip-path="url(#70ceaa9eee)"><path fill="#ffffff" d="M 33.285156 8.929688 C 24.570312 4.523438 13.898438 8.023438 9.492188 16.734375 C 5.082031 25.449219 8.585938 36.121094 17.296875 40.53125 C 26.011719 44.9375 36.683594 41.433594 41.089844 32.722656 C 45.5 24.011719 41.996094 13.335938 33.285156 8.929688 Z M 18.84375 37.472656 C 13.226562 34.628906 10.304688 28.554688 11.175781 22.640625 L 17.347656 21.300781 L 19.957031 20.722656 L 20.871094 23.519531 L 20.300781 23.636719 C 19.378906 23.839844 18.785156 24.753906 18.996094 25.679688 C 19.195312 26.601562 20.105469 27.1875 21.039062 26.984375 L 26.886719 25.703125 L 32.382812 24.503906 L 33.828125 28.90625 L 35.671875 34.523438 C 31.441406 39 24.613281 40.390625 18.84375 37.472656 Z M 38.082031 30.878906 L 35.152344 21.960938 C 34.886719 21.121094 34.019531 20.632812 33.15625 20.820312 L 24.230469 22.773438 L 22.726562 18.183594 C 22.460938 17.34375 21.59375 16.855469 20.730469 17.042969 L 12.277344 18.890625 C 12.371094 18.6875 12.449219 18.484375 12.546875 18.285156 C 16.101562 11.257812 24.710938 8.433594 31.738281 11.988281 C 38.703125 15.511719 41.527344 23.996094 38.117188 30.988281 Z M 38.082031 30.878906 " fill-opacity="1" fill-rule="nonzero"/></g></g></g></g></g></g><g mask="url(#30365d2e37)"><g transform="matrix(1, 0, 0, 1, 538, 82)"><g clip-path="url(#a4df294c40)"><g clip-path="url(#eb5ef1234d)"><g clip-path="url(#340f93b881)"><g clip-path="url(#7c0220550f)"><path fill="#ffffff" d="M 12.199219 7.863281 C 18.632812 3.832031 27.109375 5.78125 31.140625 12.210938 C 32.542969 14.449219 33.21875 16.933594 33.238281 19.394531 C 33.285156 22.390625 33.335938 25.386719 33.386719 28.382812 C 33.414062 31.980469 33.4375 34.894531 33.46875 38.492188 C 33.492188 41.664062 33.433594 41.78125 30.574219 40.367188 C 27.367188 38.777344 24.667969 37.441406 21.457031 35.855469 C 18.800781 34.523438 16.148438 33.195312 13.492188 31.867188 C 11.246094 30.777344 9.273438 29.070312 7.851562 26.800781 C 3.824219 20.371094 5.769531 11.890625 12.199219 7.863281 Z M 15.859375 13.699219 C 18.742188 11.894531 22.542969 12.765625 24.347656 15.648438 C 26.15625 18.53125 25.28125 22.332031 22.398438 24.140625 C 19.515625 25.945312 15.714844 25.074219 13.90625 22.191406 C 12.101562 19.308594 12.976562 15.503906 15.859375 13.699219 Z M 15.859375 13.699219 " fill-opacity="1" fill-rule="evenodd"/></g></g></g></g></g></g><g mask="url(#0f9c70c608)"><g transform="matrix(1, 0, 0, 1, 602, 108)"><g clip-path="url(#1543936cb7)"><g clip-path="url(#7efb3ef635)"><g clip-path="url(#113773d831)"><g clip-path="url(#88d99a2603)"><path fill="#ffffff" d="M 18.097656 5.9375 C 8.644531 8.382812 2.949219 18.066406 5.394531 27.515625 C 7.84375 36.96875 17.523438 42.667969 26.976562 40.21875 C 36.429688 37.773438 42.125 28.089844 39.679688 18.640625 C 37.230469 9.1875 27.550781 3.488281 18.097656 5.9375 Z M 26.117188 36.902344 C 20.019531 38.480469 13.816406 35.851562 10.5625 30.835938 L 14.308594 25.75 L 15.886719 23.597656 L 18.417969 25.089844 L 18.070312 25.554688 C 17.511719 26.316406 17.671875 27.394531 18.441406 27.949219 C 19.199219 28.507812 20.269531 28.351562 20.835938 27.578125 L 24.375 22.753906 L 27.710938 18.222656 L 31.707031 20.574219 L 36.800781 23.570312 C 36.585938 29.726562 32.375 35.28125 26.117188 36.902344 Z M 36.199219 19.246094 L 28.113281 14.484375 C 27.355469 14.03125 26.382812 14.234375 25.859375 14.949219 L 20.449219 22.308594 L 16.285156 19.859375 C 15.53125 19.40625 14.558594 19.609375 14.035156 20.324219 L 8.914062 27.292969 C 8.847656 27.082031 8.769531 26.875 8.714844 26.65625 C 6.738281 19.035156 11.335938 11.226562 18.957031 9.253906 C 26.511719 7.296875 34.242188 11.800781 36.300781 19.300781 Z M 36.199219 19.246094 " fill-opacity="1" fill-rule="nonzero"/></g></g></g></g></g></g><g mask="url(#cc83d62c24)"><g transform="matrix(1, 0, 0, 1, 583, -0.000000000000022503)"><g clip-path="url(#7da0e9f5db)"><g clip-path="url(#69d762b3b0)"><g clip-path="url(#4c3bf3a214)"><g clip-path="url(#aada72ae60)"><path fill="#ffffff" d="M 19.230469 -5.730469 C 23.300781 -3.5 24.789062 1.605469 22.558594 5.675781 C 21.785156 7.089844 20.660156 8.195312 19.351562 8.9375 C 17.769531 9.859375 16.183594 10.777344 14.597656 11.699219 C 12.6875 12.789062 11.140625 13.667969 9.226562 14.757812 C 7.542969 15.71875 7.460938 15.722656 7.363281 13.773438 C 7.253906 11.585938 7.164062 9.75 7.054688 7.5625 C 6.972656 5.75 6.886719 3.933594 6.804688 2.121094 C 6.714844 0.597656 7.039062 -0.964844 7.824219 -2.398438 C 10.054688 -6.46875 15.164062 -7.960938 19.230469 -5.730469 Z M 17.207031 -2.035156 C 19.03125 -1.035156 19.699219 1.253906 18.699219 3.078125 C 17.699219 4.902344 15.410156 5.570312 13.585938 4.570312 C 11.761719 3.570312 11.09375 1.28125 12.09375 -0.542969 C 13.09375 -2.367188 15.382812 -3.035156 17.207031 -2.035156 Z M 17.207031 -2.035156 " fill-opacity="1" fill-rule="evenodd"/></g></g></g></g></g></g><g clip-path="url(#8a71ae959b)"><g mask="url(#6da34a5b59)"><g transform="matrix(1, 0, 0, 1, 608, 25)"><g clip-path="url(#7b74db3467)"><g clip-path="url(#6c113c5b94)"><g clip-path="url(#c61a8fc362)"><g clip-path="url(#acbfc0a409)"><path fill="#ffffff" d="M 27.101562 9.59375 C 13.046875 13.816406 5.046875 28.6875 9.269531 42.742188 C 13.492188 56.796875 28.363281 64.796875 42.417969 60.574219 C 56.472656 56.351562 64.472656 41.480469 60.25 27.425781 C 56.027344 13.371094 41.15625 5.371094 27.101562 9.59375 Z M 40.9375 55.640625 C 31.871094 58.363281 22.398438 54.773438 17.21875 47.429688 L 22.554688 39.574219 L 24.800781 36.246094 L 28.691406 38.339844 L 28.191406 39.066406 C 27.398438 40.238281 27.703125 41.847656 28.890625 42.636719 C 30.0625 43.433594 31.65625 43.132812 32.464844 41.941406 L 37.503906 34.492188 L 42.25 27.488281 L 48.386719 30.792969 L 56.214844 35 C 56.242188 44.257812 50.242188 52.84375 40.9375 55.640625 Z M 55.0625 28.535156 L 42.636719 21.851562 C 41.476562 21.214844 40.023438 21.578125 39.28125 22.679688 L 31.578125 34.046875 L 25.183594 30.609375 C 24.027344 29.972656 22.574219 30.335938 21.832031 31.4375 L 14.539062 42.203125 C 14.429688 41.886719 14.300781 41.582031 14.203125 41.261719 C 10.796875 29.925781 17.25 17.933594 28.582031 14.527344 C 39.820312 11.152344 51.6875 17.46875 55.210938 28.617188 Z M 55.0625 28.535156 " fill-opacity="1" fill-rule="nonzero"/></g></g></g></g></g></g></g><g mask="url(#ccc7582738)"><g transform="matrix(1, 0, 0, 1, 583, 151)"><g clip-path="url(#1f468b55d8)"><g clip-path="url(#2f9b5ce953)"><g clip-path="url(#a368ffb023)"><g clip-path="url(#27540da934)"><path fill="#ffffff" d="M 17.898438 5 C 20.277344 7.472656 20.199219 11.410156 17.722656 13.789062 C 16.863281 14.613281 15.824219 15.144531 14.738281 15.378906 C 13.414062 15.679688 12.09375 15.976562 10.769531 16.277344 C 9.179688 16.621094 7.890625 16.902344 6.300781 17.246094 C 4.898438 17.550781 4.839844 17.535156 5.203125 16.140625 C 5.609375 14.570312 5.953125 13.253906 6.359375 11.683594 C 6.703125 10.386719 7.046875 9.085938 7.390625 7.789062 C 7.664062 6.695312 8.238281 5.660156 9.113281 4.820312 C 11.585938 2.445312 15.523438 2.523438 17.898438 5 Z M 15.652344 7.15625 C 16.71875 8.265625 16.683594 10.03125 15.574219 11.097656 C 14.464844 12.164062 12.699219 12.128906 11.632812 11.019531 C 10.566406 9.910156 10.601562 8.144531 11.710938 7.078125 C 12.824219 6.011719 14.585938 6.046875 15.652344 7.15625 Z M 15.652344 7.15625 " fill-opacity="1" fill-rule="evenodd"/></g></g></g></g></g></g><g mask="url(#a948648c18)"><g transform="matrix(1, 0, 0, 1, 541, 180)"><g clip-path="url(#abc8491676)"><g clip-path="url(#223c7b4722)"><path fill="#ffffff" d="M 18.257812 0.527344 C 28.214844 0.527344 36.285156 8.597656 36.285156 18.554688 C 36.285156 22.019531 35.308594 25.253906 33.613281 28.003906 C 31.582031 31.367188 29.550781 34.734375 27.519531 38.101562 C 25.042969 42.121094 23.042969 45.378906 20.566406 49.398438 C 18.386719 52.945312 18.238281 53.035156 16.046875 49.46875 C 13.582031 45.464844 11.515625 42.101562 9.050781 38.101562 C 7.023438 34.773438 5 31.445312 2.972656 28.117188 C 1.234375 25.34375 0.230469 22.066406 0.230469 18.554688 C 0.230469 8.597656 8.300781 0.527344 18.257812 0.527344 Z M 18.257812 9.566406 C 22.722656 9.566406 26.339844 13.183594 26.339844 17.648438 C 26.339844 22.113281 22.722656 25.730469 18.257812 25.730469 C 13.792969 25.730469 10.175781 22.113281 10.175781 17.648438 C 10.175781 13.183594 13.792969 9.566406 18.257812 9.566406 Z M 18.257812 9.566406 " fill-opacity="1" fill-rule="evenodd"/></g></g></g></g><g clip-path="url(#bfb4e35097)"><g mask="url(#f8770fe160)"><g transform="matrix(1, 0, 0, 1, 581, 227)"><g clip-path="url(#c27ae424d3)"><g clip-path="url(#8d3fb9313a)"><g clip-path="url(#a40dd72c4e)"><g clip-path="url(#a6b05cae77)"><path fill="#ffffff" d="M 32.328125 8.582031 C 23.933594 4.335938 13.652344 7.707031 9.40625 16.101562 C 5.160156 24.496094 8.535156 34.777344 16.925781 39.023438 C 25.320312 43.269531 35.601562 39.894531 39.847656 31.503906 C 44.09375 23.109375 40.722656 12.824219 32.328125 8.582031 Z M 18.417969 36.078125 C 13.003906 33.339844 10.191406 27.488281 11.027344 21.789062 L 16.976562 20.496094 L 19.488281 19.945312 L 20.371094 22.636719 L 19.820312 22.75 C 18.933594 22.941406 18.363281 23.828125 18.566406 24.71875 C 18.757812 25.605469 19.632812 26.171875 20.53125 25.972656 L 26.164062 24.738281 L 31.460938 23.582031 L 32.851562 27.828125 L 34.628906 33.238281 C 30.554688 37.550781 23.976562 38.886719 18.417969 36.078125 Z M 36.949219 29.726562 L 34.128906 21.132812 C 33.871094 20.324219 33.039062 19.855469 32.207031 20.039062 L 23.609375 21.917969 L 22.15625 17.496094 C 21.898438 16.6875 21.066406 16.214844 20.234375 16.398438 L 12.09375 18.175781 C 12.179688 17.980469 12.253906 17.785156 12.351562 17.589844 C 15.777344 10.824219 24.070312 8.101562 30.835938 11.527344 C 37.546875 14.921875 40.269531 23.097656 36.984375 29.832031 Z M 36.949219 29.726562 " fill-opacity="1" fill-rule="nonzero"/></g></g></g></g></g></g></g><g clip-path="url(#e89d49333c)"><g mask="url(#f26c55a74f)"><g transform="matrix(1, 0, 0, 1, 637, 192)"><g clip-path="url(#174e9ba618)"><g clip-path="url(#67282aeefc)"><g clip-path="url(#0632f30584)"><g clip-path="url(#6c64de9432)"><path fill="#ffffff" d="M 18.644531 4.417969 C 22.566406 6.566406 24 11.484375 21.851562 15.402344 C 21.105469 16.765625 20.023438 17.828125 18.761719 18.542969 C 17.238281 19.429688 15.710938 20.316406 14.183594 21.203125 C 12.34375 22.253906 10.855469 23.101562 9.011719 24.152344 C 7.386719 25.074219 7.3125 25.078125 7.21875 23.203125 C 7.113281 21.097656 7.023438 19.324219 6.917969 17.21875 C 6.839844 15.472656 6.757812 13.726562 6.679688 11.976562 C 6.59375 10.511719 6.902344 9.007812 7.660156 7.625 C 9.808594 3.707031 14.726562 2.269531 18.644531 4.417969 Z M 16.695312 7.976562 C 18.453125 8.9375 19.097656 11.144531 18.132812 12.898438 C 17.171875 14.65625 14.964844 15.300781 13.210938 14.335938 C 11.453125 13.375 10.808594 11.167969 11.773438 9.414062 C 12.734375 7.65625 14.9375 7.011719 16.695312 7.976562 Z M 16.695312 7.976562 " fill-opacity="1" fill-rule="evenodd"/></g></g></g></g></g></g></g><g clip-path="url(#7370a0730a)"><g mask="url(#89efc10e71)"><g transform="matrix(1, 0, 0, 1, 395, 234)"><g clip-path="url(#57f0bbab69)"><g clip-path="url(#1d1c515d3b)"><g clip-path="url(#063957a20e)"><g clip-path="url(#80166523b2)"><path fill="#ffffff" d="M 31.757812 9.304688 C 23.363281 5.058594 13.082031 8.429688 8.835938 16.824219 C 4.589844 25.21875 7.964844 35.5 16.355469 39.746094 C 24.75 43.992188 35.03125 40.617188 39.277344 32.226562 C 43.523438 23.832031 40.152344 13.550781 31.757812 9.304688 Z M 17.847656 36.800781 C 12.433594 34.0625 9.621094 28.210938 10.457031 22.511719 L 16.40625 21.21875 L 18.917969 20.667969 L 19.800781 23.359375 L 19.25 23.472656 C 18.363281 23.664062 17.792969 24.550781 17.992188 25.441406 C 18.1875 26.328125 19.058594 26.894531 19.960938 26.695312 L 25.59375 25.460938 L 30.890625 24.304688 L 32.28125 28.550781 L 34.058594 33.960938 C 29.984375 38.273438 23.40625 39.613281 17.847656 36.800781 Z M 36.378906 30.449219 L 33.558594 21.855469 C 33.300781 21.046875 32.46875 20.578125 31.632812 20.761719 L 23.039062 22.640625 L 21.585938 18.21875 C 21.328125 17.410156 20.496094 16.9375 19.664062 17.121094 L 11.523438 18.898438 C 11.609375 18.707031 11.683594 18.507812 11.78125 18.316406 C 15.207031 11.546875 23.5 8.824219 30.265625 12.25 C 36.976562 15.644531 39.699219 23.820312 36.414062 30.554688 Z M 36.378906 30.449219 " fill-opacity="1" fill-rule="nonzero"/></g></g></g></g></g></g></g><g mask="url(#2e6e9aaa61)"><g transform="matrix(1, 0, 0, 1, 450, 200)"><g clip-path="url(#af43eb362e)"><g clip-path="url(#13aad8007f)"><g clip-path="url(#10f58f40d6)"><g clip-path="url(#098db87f35)"><path fill="#ffffff" d="M 19.074219 4.140625 C 22.992188 6.289062 24.429688 11.207031 22.28125 15.125 C 21.535156 16.488281 20.449219 17.550781 19.191406 18.265625 C 17.667969 19.152344 16.140625 20.039062 14.613281 20.925781 C 12.773438 21.976562 11.28125 22.824219 9.441406 23.875 C 7.816406 24.796875 7.742188 24.800781 7.648438 22.925781 C 7.542969 20.820312 7.453125 19.046875 7.347656 16.941406 C 7.265625 15.195312 7.1875 13.449219 7.109375 11.703125 C 7.023438 10.234375 7.332031 8.730469 8.089844 7.347656 C 10.238281 3.429688 15.15625 1.992188 19.074219 4.140625 Z M 17.125 7.699219 C 18.882812 8.660156 19.527344 10.867188 18.5625 12.621094 C 17.601562 14.378906 15.394531 15.023438 13.636719 14.058594 C 11.882812 13.097656 11.238281 10.890625 12.199219 9.136719 C 13.164062 7.378906 15.367188 6.734375 17.125 7.699219 Z M 17.125 7.699219 " fill-opacity="1" fill-rule="evenodd"/></g></g></g></g></g></g><g clip-path="url(#a2f57a93e6)"><g mask="url(#d2bc6b1ae8)"><g transform="matrix(1, 0, 0, 1, 474, 234)"><g clip-path="url(#7349fad832)"><g clip-path="url(#9d7c32b747)"><g clip-path="url(#2fbfb9f278)"><g clip-path="url(#988882b3d4)"><path fill="#ffffff" d="M 26.730469 8.980469 C 13.195312 13.046875 5.492188 27.367188 9.558594 40.90625 C 13.625 54.441406 27.945312 62.148438 41.484375 58.078125 C 55.023438 54.011719 62.726562 39.691406 58.660156 26.152344 C 54.589844 12.617188 40.269531 4.910156 26.730469 8.980469 Z M 40.054688 53.328125 C 31.324219 55.953125 22.203125 52.492188 17.214844 45.421875 L 22.351562 37.855469 L 24.515625 34.648438 L 28.265625 36.667969 L 27.78125 37.363281 C 27.015625 38.492188 27.308594 40.042969 28.453125 40.804688 C 29.582031 41.570312 31.117188 41.28125 31.894531 40.132812 L 36.75 32.960938 L 41.320312 26.214844 L 47.234375 29.394531 L 54.769531 33.449219 C 54.800781 42.367188 49.019531 50.636719 40.054688 53.328125 Z M 53.660156 27.222656 L 41.695312 20.785156 C 40.578125 20.171875 39.179688 20.523438 38.460938 21.582031 L 31.046875 32.53125 L 24.886719 29.21875 C 23.769531 28.605469 22.371094 28.957031 21.65625 30.019531 L 14.632812 40.386719 C 14.527344 40.082031 14.402344 39.789062 14.308594 39.476562 C 11.03125 28.5625 17.242188 17.011719 28.160156 13.730469 C 38.980469 10.480469 50.414062 16.5625 53.808594 27.300781 Z M 53.660156 27.222656 " fill-opacity="1" fill-rule="nonzero"/></g></g></g></g></g></g></g></svg>