<svg xmlns="http://www.w3.org/2000/svg" xmlns:xlink="http://www.w3.org/1999/xlink" width="868" zoomAndPan="magnify" viewBox="0 0 651 251.250001" height="335" preserveAspectRatio="xMidYMid meet" version="1.0"><defs><filter x="0%" y="0%" width="100%" height="100%" id="82b71cf51a"><feColorMatrix values="0 0 0 0 1 0 0 0 0 1 0 0 0 0 1 0 0 0 1 0" color-interpolation-filters="sRGB"/></filter><mask id="32c1910eaf"><g filter="url(#82b71cf51a)"><rect x="-65.1" width="781.2" fill="#000000" y="-25.125" height="301.500001" fill-opacity="0.53"/></g></mask><clipPath id="e988fb229b"><path d="M 24 22 L 43 22 L 43 41 L 24 41 Z M 24 22 " clip-rule="nonzero"/></clipPath><clipPath id="8c02667d51"><path d="M 1.023438 27.054688 L 46.324219 0.828125 L 72.550781 46.128906 L 27.25 72.355469 Z M 1.023438 27.054688 " clip-rule="nonzero"/></clipPath><clipPath id="8d6cf93e51"><path d="M 1.023438 27.054688 L 46.324219 0.828125 L 72.550781 46.128906 L 27.25 72.355469 Z M 1.023438 27.054688 " clip-rule="nonzero"/></clipPath><clipPath id="11d07931fd"><path d="M 10 10 L 64 10 L 64 63 L 10 63 Z M 10 10 " clip-rule="nonzero"/></clipPath><clipPath id="a8cc6c28f9"><path d="M 1.023438 27.054688 L 46.324219 0.828125 L 72.550781 46.128906 L 27.25 72.355469 Z M 1.023438 27.054688 " clip-rule="nonzero"/></clipPath><clipPath id="386c033335"><path d="M 1.023438 27.054688 L 46.324219 0.828125 L 72.550781 46.128906 L 27.25 72.355469 Z M 1.023438 27.054688 " clip-rule="nonzero"/></clipPath><clipPath id="151128d7ee"><rect x="0" width="74" y="0" height="73"/></clipPath><mask id="7e479f6aac"><g filter="url(#82b71cf51a)"><rect x="-65.1" width="781.2" fill="#000000" y="-25.125" height="301.500001" fill-opacity="0.53"/></g></mask><clipPath id="727392293d"><path d="M 3 5 L 33 5 L 33 22 L 3 22 Z M 3 5 " clip-rule="nonzero"/></clipPath><clipPath id="3c0151bc2c"><path d="M 1.402344 12.015625 L 28.25 0.628906 L 33.507812 13.019531 L 6.65625 24.40625 Z M 1.402344 12.015625 " clip-rule="nonzero"/></clipPath><clipPath id="3d054e5897"><path d="M 1.402344 12.015625 L 28.25 0.628906 L 33.507812 13.019531 L 6.65625 24.40625 Z M 1.402344 12.015625 " clip-rule="nonzero"/></clipPath><clipPath id="1293fa4e4c"><rect x="0" width="34" y="0" height="25"/></clipPath><clipPath id="bcea90d1c2"><path d="M 533 160 L 650.03125 160 L 650.03125 250.503906 L 533 250.503906 Z M 533 160 " clip-rule="nonzero"/></clipPath><mask id="fcadcdf14d"><g filter="url(#82b71cf51a)"><rect x="-65.1" width="781.2" fill="#000000" y="-25.125" height="301.500001" fill-opacity="0.53"/></g></mask><clipPath id="db9272c208"><path d="M 53 48 L 95 48 L 95 89 L 53 89 Z M 53 48 " clip-rule="nonzero"/></clipPath><clipPath id="8a38170a51"><path d="M 0.402344 59.46875 L 102.652344 0.273438 L 161.847656 102.519531 L 59.601562 161.714844 Z M 0.402344 59.46875 " clip-rule="nonzero"/></clipPath><clipPath id="5d398d669d"><path d="M 0.402344 59.46875 L 102.652344 0.273438 L 161.847656 102.519531 L 59.601562 161.714844 Z M 0.402344 59.46875 " clip-rule="nonzero"/></clipPath><clipPath id="3e1f3caeed"><path d="M 22 21 L 117.03125 21 L 117.03125 90.503906 L 22 90.503906 Z M 22 21 " clip-rule="nonzero"/></clipPath><clipPath id="ea8dbef8bd"><path d="M 0.402344 59.46875 L 102.652344 0.273438 L 161.847656 102.519531 L 59.601562 161.714844 Z M 0.402344 59.46875 " clip-rule="nonzero"/></clipPath><clipPath id="399b8dfd82"><path d="M 0.402344 59.46875 L 102.652344 0.273438 L 161.847656 102.519531 L 59.601562 161.714844 Z M 0.402344 59.46875 " clip-rule="nonzero"/></clipPath><clipPath id="a445c6037e"><rect x="0" width="118" y="0" height="91"/></clipPath><mask id="9d6c93e7fd"><g filter="url(#82b71cf51a)"><rect x="-65.1" width="781.2" fill="#000000" y="-25.125" height="301.500001" fill-opacity="0.53"/></g></mask><clipPath id="7773c3527a"><path d="M 2 6 L 51 6 L 51 81 L 2 81 Z M 2 6 " clip-rule="nonzero"/></clipPath><clipPath id="8038f548e7"><path d="M 54.289062 11.28125 L 33.90625 84.777344 L 0.757812 75.585938 L 21.140625 2.085938 Z M 54.289062 11.28125 " clip-rule="nonzero"/></clipPath><clipPath id="140a7de9a9"><path d="M 54.289062 11.28125 L 33.90625 84.777344 L 0.757812 75.585938 L 21.140625 2.085938 Z M 54.289062 11.28125 " clip-rule="nonzero"/></clipPath><clipPath id="fcc2bf60cb"><rect x="0" width="55" y="0" height="87"/></clipPath><mask id="1317038225"><g filter="url(#82b71cf51a)"><rect x="-65.1" width="781.2" fill="#000000" y="-25.125" height="301.500001" fill-opacity="0.53"/></g></mask><clipPath id="0ea42d51bd"><path d="M 9 7 L 19 7 L 19 16 L 9 16 Z M 9 7 " clip-rule="nonzero"/></clipPath><clipPath id="d72401396e"><path d="M 0.417969 3.730469 L 25.625 0.410156 L 28.945312 25.613281 L 3.738281 28.9375 Z M 0.417969 3.730469 " clip-rule="nonzero"/></clipPath><clipPath id="7e5af9abfa"><path d="M 0.417969 3.730469 L 25.625 0.410156 L 28.945312 25.613281 L 3.738281 28.9375 Z M 0.417969 3.730469 " clip-rule="nonzero"/></clipPath><clipPath id="ba11c0db09"><path d="M 1 1 L 28 1 L 28 28 L 1 28 Z M 1 1 " clip-rule="nonzero"/></clipPath><clipPath id="dc02048a3b"><path d="M 0.417969 3.730469 L 25.625 0.410156 L 28.945312 25.613281 L 3.738281 28.9375 Z M 0.417969 3.730469 " clip-rule="nonzero"/></clipPath><clipPath id="0c60aee0c3"><path d="M 0.417969 3.730469 L 25.625 0.410156 L 28.945312 25.613281 L 3.738281 28.9375 Z M 0.417969 3.730469 " clip-rule="nonzero"/></clipPath><clipPath id="f673d02351"><rect x="0" width="29" y="0" height="29"/></clipPath><clipPath id="c8abe9ca99"><path d="M 604 0 L 650.03125 0 L 650.03125 57 L 604 57 Z M 604 0 " clip-rule="nonzero"/></clipPath><mask id="cc99c635df"><g filter="url(#82b71cf51a)"><rect x="-65.1" width="781.2" fill="#000000" y="-25.125" height="301.500001" fill-opacity="0.53"/></g></mask><clipPath id="90ef553c33"><path d="M 25 0 L 46.03125 0 L 46.03125 23 L 25 23 Z M 25 0 " clip-rule="nonzero"/></clipPath><clipPath id="8d76139eee"><path d="M 0.585938 -8.570312 L 65.824219 -17.171875 L 74.425781 48.066406 L 9.1875 56.667969 Z M 0.585938 -8.570312 " clip-rule="nonzero"/></clipPath><clipPath id="635ed926f3"><path d="M 0.585938 -8.570312 L 65.824219 -17.171875 L 74.425781 48.066406 L 9.1875 56.667969 Z M 0.585938 -8.570312 " clip-rule="nonzero"/></clipPath><clipPath id="c2d6fe7ece"><path d="M 4 0 L 46.03125 0 L 46.03125 53 L 4 53 Z M 4 0 " clip-rule="nonzero"/></clipPath><clipPath id="1182be93e3"><path d="M 0.585938 -8.570312 L 65.824219 -17.171875 L 74.425781 48.066406 L 9.1875 56.667969 Z M 0.585938 -8.570312 " clip-rule="nonzero"/></clipPath><clipPath id="82ecbf2f23"><path d="M 0.585938 -8.570312 L 65.824219 -17.171875 L 74.425781 48.066406 L 9.1875 56.667969 Z M 0.585938 -8.570312 " clip-rule="nonzero"/></clipPath><clipPath id="5903e643a3"><rect x="0" width="47" y="0" height="57"/></clipPath><mask id="18436114b2"><g filter="url(#82b71cf51a)"><rect x="-65.1" width="781.2" fill="#000000" y="-25.125" height="301.500001" fill-opacity="0.53"/></g></mask><clipPath id="5da35938a9"><path d="M 5 0 L 57 0 L 57 50 L 5 50 Z M 5 0 " clip-rule="nonzero"/></clipPath><clipPath id="effa732505"><path d="M 50.144531 -69.25 L 74.257812 40.292969 L 24.597656 51.222656 L 0.484375 -58.320312 Z M 50.144531 -69.25 " clip-rule="nonzero"/></clipPath><clipPath id="9282a20265"><path d="M 50.144531 -69.25 L 74.257812 40.292969 L 24.597656 51.222656 L 0.484375 -58.320312 Z M 50.144531 -69.25 " clip-rule="nonzero"/></clipPath><clipPath id="f9135d82b7"><rect x="0" width="76" y="0" height="54"/></clipPath><clipPath id="f28b581aa8"><path d="M 441 213 L 540 213 L 540 250.503906 L 441 250.503906 Z M 441 213 " clip-rule="nonzero"/></clipPath><mask id="e9639670bd"><g filter="url(#82b71cf51a)"><rect x="-65.1" width="781.2" fill="#000000" y="-25.125" height="301.500001" fill-opacity="0.53"/></g></mask><clipPath id="7b6e28506e"><path d="M 3 6 L 93 6 L 93 37.503906 L 3 37.503906 Z M 3 6 " clip-rule="nonzero"/></clipPath><clipPath id="ce0945499a"><path d="M 97.308594 38.65625 L 13.992188 65.355469 L 1.898438 27.613281 L 85.214844 0.914062 Z M 97.308594 38.65625 " clip-rule="nonzero"/></clipPath><clipPath id="91dec84299"><path d="M 97.308594 38.65625 L 13.992188 65.355469 L 1.898438 27.613281 L 85.214844 0.914062 Z M 97.308594 38.65625 " clip-rule="nonzero"/></clipPath><clipPath id="0a3abd8b21"><rect x="0" width="99" y="0" height="38"/></clipPath><mask id="26ac6560d3"><g filter="url(#82b71cf51a)"><rect x="-65.1" width="781.2" fill="#000000" y="-25.125" height="301.500001" fill-opacity="0.53"/></g></mask><clipPath id="0d6bdec6d1"><path d="M 31 23 L 61 23 L 61 53 L 31 53 Z M 31 23 " clip-rule="nonzero"/></clipPath><clipPath id="6a35734a6d"><path d="M 0.289062 11.597656 L 84.0625 0.554688 L 95.105469 84.328125 L 11.332031 95.371094 Z M 0.289062 11.597656 " clip-rule="nonzero"/></clipPath><clipPath id="0949a44e91"><path d="M 0.289062 11.597656 L 84.0625 0.554688 L 95.105469 84.328125 L 11.332031 95.371094 Z M 0.289062 11.597656 " clip-rule="nonzero"/></clipPath><clipPath id="19bfd784da"><path d="M 5 5 L 90 5 L 90 91 L 5 91 Z M 5 5 " clip-rule="nonzero"/></clipPath><clipPath id="29a9bc6d01"><path d="M 0.289062 11.597656 L 84.0625 0.554688 L 95.105469 84.328125 L 11.332031 95.371094 Z M 0.289062 11.597656 " clip-rule="nonzero"/></clipPath><clipPath id="063da7e030"><path d="M 0.289062 11.597656 L 84.0625 0.554688 L 95.105469 84.328125 L 11.332031 95.371094 Z M 0.289062 11.597656 " clip-rule="nonzero"/></clipPath><clipPath id="762bc97214"><rect x="0" width="95" y="0" height="96"/></clipPath><mask id="2878fb6472"><g filter="url(#82b71cf51a)"><rect x="-65.1" width="781.2" fill="#000000" y="-25.125" height="301.500001" fill-opacity="0.53"/></g></mask><clipPath id="518f4f1685"><path d="M 6 6 L 11 6 L 11 11 L 6 11 Z M 6 6 " clip-rule="nonzero"/></clipPath><clipPath id="e0583fad56"><path d="M 0.296875 7.753906 L 11.945312 1.007812 L 18.691406 12.65625 L 7.042969 19.402344 Z M 0.296875 7.753906 " clip-rule="nonzero"/></clipPath><clipPath id="0fd973375e"><path d="M 0.296875 7.753906 L 11.945312 1.007812 L 18.691406 12.65625 L 7.042969 19.402344 Z M 0.296875 7.753906 " clip-rule="nonzero"/></clipPath><clipPath id="6947abbfaa"><path d="M 2 3 L 16 3 L 16 17 L 2 17 Z M 2 3 " clip-rule="nonzero"/></clipPath><clipPath id="1560bd30a9"><path d="M 0.296875 7.753906 L 11.945312 1.007812 L 18.691406 12.65625 L 7.042969 19.402344 Z M 0.296875 7.753906 " clip-rule="nonzero"/></clipPath><clipPath id="7e2a0a3b09"><path d="M 0.296875 7.753906 L 11.945312 1.007812 L 18.691406 12.65625 L 7.042969 19.402344 Z M 0.296875 7.753906 " clip-rule="nonzero"/></clipPath><clipPath id="c43c7cdaf6"><rect x="0" width="19" y="0" height="20"/></clipPath><mask id="888bf30e96"><g filter="url(#82b71cf51a)"><rect x="-65.1" width="781.2" fill="#000000" y="-25.125" height="301.500001" fill-opacity="0.53"/></g></mask><clipPath id="220742331d"><path d="M 1 3 L 28 3 L 28 45 L 1 45 Z M 1 3 " clip-rule="nonzero"/></clipPath><clipPath id="4c3d6d1155"><path d="M 29.96875 6.625 L 18.777344 46.976562 L 0.761719 41.980469 L 11.953125 1.628906 Z M 29.96875 6.625 " clip-rule="nonzero"/></clipPath><clipPath id="8dccd7b437"><path d="M 29.96875 6.625 L 18.777344 46.976562 L 0.761719 41.980469 L 11.953125 1.628906 Z M 29.96875 6.625 " clip-rule="nonzero"/></clipPath><clipPath id="ce9e6c87e6"><rect x="0" width="31" y="0" height="48"/></clipPath><clipPath id="fe791b30a8"><path d="M 595 86 L 650.03125 86 L 650.03125 171 L 595 171 Z M 595 86 " clip-rule="nonzero"/></clipPath><mask id="5b473f0b65"><g filter="url(#82b71cf51a)"><rect x="-65.1" width="781.2" fill="#000000" y="-25.125" height="301.500001" fill-opacity="0.53"/></g></mask><clipPath id="3319008dc7"><path d="M 8 7 L 55.03125 7 L 55.03125 81 L 8 81 Z M 8 7 " clip-rule="nonzero"/></clipPath><clipPath id="1143427fcb"><path d="M 17.570312 1.496094 L 124.601562 35.042969 L 109.394531 83.5625 L 2.363281 50.015625 Z M 17.570312 1.496094 " clip-rule="nonzero"/></clipPath><clipPath id="f188a07aa1"><path d="M 17.570312 1.496094 L 124.601562 35.042969 L 109.394531 83.5625 L 2.363281 50.015625 Z M 17.570312 1.496094 " clip-rule="nonzero"/></clipPath><clipPath id="089a2de667"><rect x="0" width="56" y="0" height="85"/></clipPath><mask id="2214d36837"><g filter="url(#82b71cf51a)"><rect x="-65.1" width="781.2" fill="#000000" y="-25.125" height="301.500001" fill-opacity="0.53"/></g></mask><clipPath id="2182e7983a"><path d="M 6 0 L 91 0 L 91 15 L 6 15 Z M 6 0 " clip-rule="nonzero"/></clipPath><clipPath id="b59b18ab12"><path d="M 0.933594 -63.871094 L 84.703125 -74.914062 L 95.746094 8.859375 L 11.972656 19.902344 Z M 0.933594 -63.871094 " clip-rule="nonzero"/></clipPath><clipPath id="619362b693"><path d="M 0.933594 -63.871094 L 84.703125 -74.914062 L 95.746094 8.859375 L 11.972656 19.902344 Z M 0.933594 -63.871094 " clip-rule="nonzero"/></clipPath><clipPath id="1251189fea"><rect x="0" width="96" y="0" height="20"/></clipPath></defs><g mask="url(#32c1910eaf)"><g transform="matrix(1, 0, 0, 1, 314, 7)"><g clip-path="url(#151128d7ee)"><g clip-path="url(#e988fb229b)"><g clip-path="url(#8c02667d51)"><g clip-path="url(#8d6cf93e51)"><path fill="#ffffff" d="M 29.257812 23.230469 C 24.953125 25.722656 23.46875 31.25 25.957031 35.554688 C 28.457031 39.871094 33.992188 41.335938 38.296875 38.84375 C 42.597656 36.351562 44.085938 30.824219 41.585938 26.507812 C 39.09375 22.203125 33.558594 20.742188 29.257812 23.230469 Z M 29.257812 23.230469 " fill-opacity="1" fill-rule="nonzero"/></g></g></g><g clip-path="url(#11d07931fd)"><g clip-path="url(#a8cc6c28f9)"><g clip-path="url(#386c033335)"><path fill="#ffffff" d="M 23.820312 13.878906 C 11.265625 21.144531 6.949219 37.285156 14.226562 49.855469 C 18.273438 56.847656 25.078125 61.269531 32.46875 62.574219 C 32.46875 62.574219 32.46875 62.574219 32.476562 62.589844 C 38.371094 63.621094 44.640625 62.671875 50.203125 59.449219 C 58.140625 54.855469 63.050781 46.652344 63.347656 37.492188 C 63.519531 32.5625 62.300781 27.726562 59.828125 23.453125 C 57.355469 19.183594 53.757812 15.703125 49.410156 13.410156 C 41.3125 9.105469 31.753906 9.28125 23.820312 13.878906 Z M 59.847656 37.367188 C 59.792969 38.960938 59.542969 40.484375 59.179688 41.996094 C 54.121094 38.589844 47.382812 38.269531 41.953125 41.414062 L 38.703125 43.296875 C 34.929688 45.480469 32.242188 49.003906 31.125 53.203125 C 30.648438 54.941406 30.515625 56.742188 30.640625 58.539062 C 25.199219 56.960938 20.328125 53.386719 17.265625 48.09375 C 10.964844 37.210938 14.695312 23.21875 25.582031 16.917969 C 32.464844 12.929688 40.746094 12.785156 47.773438 16.511719 C 51.53125 18.515625 54.652344 21.519531 56.789062 25.214844 C 58.925781 28.90625 59.980469 33.109375 59.847656 37.367188 Z M 59.847656 37.367188 " fill-opacity="1" fill-rule="nonzero"/></g></g></g></g></g></g><g mask="url(#7e479f6aac)"><g transform="matrix(1, 0, 0, 1, 374, 79)"><g clip-path="url(#1293fa4e4c)"><g clip-path="url(#727392293d)"><g clip-path="url(#3c0151bc2c)"><g clip-path="url(#3d054e5897)"><path fill="#ffffff" d="M 28.847656 5.910156 L 15.207031 11.695312 C 13.476562 9.273438 10.238281 8.277344 7.382812 9.484375 C 4.085938 10.882812 2.542969 14.703125 3.941406 18 C 5.339844 21.296875 9.160156 22.84375 12.457031 21.445312 C 15.308594 20.234375 16.84375 17.214844 16.304688 14.285156 L 23.578125 11.199219 L 24.859375 14.21875 C 25.164062 14.933594 25.988281 15.269531 26.703125 14.964844 C 27.417969 14.664062 27.75 13.835938 27.449219 13.121094 L 26.167969 10.101562 L 28.652344 9.046875 L 29.933594 12.070312 C 30.238281 12.785156 31.0625 13.117188 31.777344 12.8125 C 32.492188 12.511719 32.824219 11.6875 32.523438 10.972656 L 30.691406 6.65625 C 30.390625 5.941406 29.5625 5.609375 28.847656 5.910156 Z M 11.359375 18.855469 C 9.488281 19.648438 7.324219 18.773438 6.53125 16.902344 C 5.738281 15.03125 6.613281 12.867188 8.480469 12.074219 C 10.351562 11.28125 12.519531 12.15625 13.308594 14.027344 C 14.101562 15.898438 13.226562 18.0625 11.359375 18.855469 Z M 11.359375 18.855469 " fill-opacity="1" fill-rule="nonzero"/></g></g></g></g></g></g><g clip-path="url(#bcea90d1c2)"><g mask="url(#fcadcdf14d)"><g transform="matrix(1, 0, 0, 1, 533, 160)"><g clip-path="url(#a445c6037e)"><g clip-path="url(#db9272c208)"><g clip-path="url(#8a38170a51)"><g clip-path="url(#5d398d669d)"><path fill="#ffffff" d="M 63.683594 50.902344 C 54.042969 56.484375 50.707031 68.878906 56.289062 78.519531 C 61.890625 88.195312 74.300781 91.476562 83.941406 85.894531 C 93.585938 80.3125 96.917969 67.917969 91.316406 58.242188 C 85.734375 48.597656 73.324219 45.320312 63.683594 50.902344 Z M 63.683594 50.902344 " fill-opacity="1" fill-rule="nonzero"/></g></g></g><g clip-path="url(#3e1f3caeed)"><g clip-path="url(#ea8dbef8bd)"><g clip-path="url(#399b8dfd82)"><path fill="#ffffff" d="M 51.496094 29.933594 C 23.355469 46.226562 13.679688 82.398438 29.992188 110.578125 C 39.066406 126.25 54.316406 136.164062 70.882812 139.085938 C 70.882812 139.085938 70.882812 139.085938 70.902344 139.121094 C 84.113281 141.433594 98.167969 139.300781 110.636719 132.082031 C 128.421875 121.785156 139.433594 103.398438 140.097656 82.863281 C 140.480469 71.8125 137.753906 60.972656 132.210938 51.398438 C 126.667969 41.824219 118.605469 34.027344 108.851562 28.890625 C 90.710938 19.242188 69.285156 19.636719 51.496094 29.933594 Z M 132.25 82.582031 C 132.132812 86.15625 131.566406 89.574219 130.75 92.960938 C 119.417969 85.328125 104.308594 84.613281 92.144531 91.65625 L 84.851562 95.875 C 76.402344 100.769531 70.378906 108.667969 67.867188 118.082031 C 66.800781 121.976562 66.5 126.015625 66.78125 130.039062 C 54.589844 126.5 43.671875 118.488281 36.808594 106.632812 C 22.683594 82.234375 31.046875 50.871094 55.441406 36.746094 C 70.878906 27.8125 89.433594 27.488281 105.1875 35.835938 C 113.609375 40.332031 120.601562 47.0625 125.394531 55.34375 C 130.1875 63.625 132.546875 73.039062 132.25 82.582031 Z M 132.25 82.582031 " fill-opacity="1" fill-rule="nonzero"/></g></g></g></g></g></g></g><g mask="url(#9d6c93e7fd)"><g transform="matrix(1, 0, 0, 1, 390, 129)"><g clip-path="url(#fcc2bf60cb)"><g clip-path="url(#7773c3527a)"><g clip-path="url(#8038f548e7)"><g clip-path="url(#140a7de9a9)"><path fill="#ffffff" d="M 21.855469 77.941406 L 32.296875 40.289062 C 40.136719 40.699219 47.507812 35.644531 49.691406 27.773438 C 52.214844 18.675781 46.863281 9.222656 37.765625 6.699219 C 28.667969 4.175781 19.214844 9.523438 16.691406 18.621094 C 14.507812 26.492188 18.222656 34.621094 25.152344 38.308594 L 19.585938 58.386719 L 11.25 56.074219 C 9.277344 55.527344 7.234375 56.683594 6.6875 58.65625 C 6.140625 60.628906 7.296875 62.671875 9.269531 63.21875 L 17.605469 65.53125 L 15.703125 72.386719 L 7.367188 70.078125 C 5.394531 69.527344 3.351562 70.6875 2.804688 72.65625 C 2.257812 74.628906 3.410156 76.671875 5.386719 77.222656 L 17.292969 80.523438 C 19.265625 81.070312 21.308594 79.914062 21.855469 77.941406 Z M 23.835938 20.605469 C 25.265625 15.445312 30.625 12.410156 35.785156 13.84375 C 40.945312 15.273438 43.976562 20.636719 42.546875 25.792969 C 41.117188 30.953125 35.753906 33.984375 30.597656 32.554688 C 25.4375 31.125 22.402344 25.761719 23.835938 20.605469 Z M 23.835938 20.605469 " fill-opacity="1" fill-rule="nonzero"/></g></g></g></g></g></g><g mask="url(#1317038225)"><g transform="matrix(1, 0, 0, 1, 436, 51)"><g clip-path="url(#f673d02351)"><g clip-path="url(#0ea42d51bd)"><g clip-path="url(#d72401396e)"><g clip-path="url(#7e5af9abfa)"><path fill="#ffffff" d="M 13.558594 7.214844 C 11.207031 7.523438 9.539062 9.6875 9.847656 12.039062 C 10.160156 14.402344 12.332031 16.058594 14.683594 15.75 C 17.035156 15.4375 18.699219 13.273438 18.390625 10.914062 C 18.078125 8.5625 15.910156 6.90625 13.558594 7.214844 Z M 13.558594 7.214844 " fill-opacity="1" fill-rule="nonzero"/></g></g></g><g clip-path="url(#ba11c0db09)"><g clip-path="url(#dc02048a3b)"><g clip-path="url(#0c60aee0c3)"><path fill="#ffffff" d="M 12.875 2.097656 C 6.011719 3.003906 1.15625 9.324219 2.058594 16.195312 C 2.5625 20.015625 4.753906 23.210938 7.769531 25.140625 C 7.769531 25.140625 7.769531 25.140625 7.769531 25.148438 C 10.179688 26.679688 13.117188 27.410156 16.15625 27.007812 C 20.496094 26.4375 24.160156 23.722656 25.96875 19.738281 C 26.945312 17.597656 27.296875 15.246094 26.988281 12.910156 C 26.679688 10.574219 25.730469 8.382812 24.234375 6.578125 C 21.457031 3.199219 17.210938 1.527344 12.875 2.097656 Z M 24.449219 19.042969 C 24.132812 19.734375 23.742188 20.363281 23.308594 20.960938 C 21.703125 18.535156 18.789062 17.160156 15.824219 17.550781 L 14.046875 17.785156 C 11.984375 18.058594 10.15625 19.117188 8.894531 20.765625 C 8.363281 21.441406 7.976562 22.210938 7.703125 23.027344 C 5.59375 21.335938 4.101562 18.867188 3.722656 15.976562 C 2.9375 10.027344 7.144531 4.542969 13.09375 3.757812 C 16.855469 3.261719 20.53125 4.714844 22.945312 7.644531 C 24.234375 9.214844 25.058594 11.109375 25.328125 13.128906 C 25.59375 15.148438 25.289062 17.191406 24.449219 19.042969 Z M 24.449219 19.042969 " fill-opacity="1" fill-rule="nonzero"/></g></g></g></g></g></g><g clip-path="url(#c8abe9ca99)"><g mask="url(#cc99c635df)"><g transform="matrix(1, 0, 0, 1, 604, -0.000000000000022503)"><g clip-path="url(#5903e643a3)"><g clip-path="url(#90ef553c33)"><g clip-path="url(#8d76139eee)"><g clip-path="url(#635ed926f3)"><path fill="#ffffff" d="M 34.957031 0.542969 C 28.804688 1.351562 24.445312 7.011719 25.253906 13.164062 C 26.066406 19.335938 31.746094 23.671875 37.898438 22.863281 C 44.050781 22.050781 48.410156 16.390625 47.597656 10.21875 C 46.789062 4.066406 41.109375 -0.269531 34.957031 0.542969 Z M 34.957031 0.542969 " fill-opacity="1" fill-rule="nonzero"/></g></g></g><g clip-path="url(#c2d6fe7ece)"><g clip-path="url(#1182be93e3)"><g clip-path="url(#82ecbf2f23)"><path fill="#ffffff" d="M 33.171875 -12.84375 C 15.21875 -10.476562 2.515625 6.054688 4.882812 24.03125 C 6.203125 34.027344 11.925781 42.382812 19.820312 47.425781 C 19.820312 47.425781 19.820312 47.425781 19.824219 47.445312 C 26.125 51.457031 33.804688 53.363281 41.757812 52.316406 C 53.105469 50.820312 62.695312 43.71875 67.425781 33.300781 C 69.980469 27.699219 70.894531 21.542969 70.089844 15.433594 C 69.285156 9.328125 66.804688 3.597656 62.886719 -1.128906 C 55.617188 -9.964844 44.515625 -14.339844 33.171875 -12.84375 Z M 63.445312 31.480469 C 62.625 33.292969 61.601562 34.929688 60.460938 36.496094 C 56.261719 30.148438 48.644531 26.554688 40.886719 27.578125 L 36.234375 28.191406 C 30.84375 28.902344 26.058594 31.675781 22.757812 35.980469 C 21.375 37.753906 20.359375 39.769531 19.644531 41.898438 C 14.128906 37.472656 10.226562 31.019531 9.230469 23.457031 C 7.179688 7.894531 18.179688 -6.445312 33.742188 -8.496094 C 43.589844 -9.796875 53.199219 -6 59.515625 1.660156 C 62.886719 5.769531 65.046875 10.726562 65.742188 16.007812 C 66.4375 21.289062 65.640625 26.636719 63.445312 31.480469 Z M 63.445312 31.480469 " fill-opacity="1" fill-rule="nonzero"/></g></g></g></g></g></g></g><g mask="url(#18436114b2)"><g transform="matrix(1, 0, 0, 1, 464, -0.000000000000022503)"><g clip-path="url(#f9135d82b7)"><g clip-path="url(#5da35938a9)"><g clip-path="url(#effa732505)"><g clip-path="url(#9282a20265)"><path fill="#ffffff" d="M 53.882812 39.46875 L 41.554688 -16.527344 C 52.003906 -21.382812 58.089844 -33 55.511719 -44.703125 C 52.535156 -58.234375 39.101562 -66.820312 25.570312 -63.839844 C 12.039062 -60.863281 3.457031 -47.429688 6.433594 -33.898438 C 9.011719 -22.195312 19.414062 -14.207031 30.929688 -14.1875 L 37.503906 15.671875 L 25.109375 18.398438 C 22.175781 19.046875 20.320312 21.949219 20.964844 24.882812 C 21.609375 27.816406 24.511719 29.671875 27.449219 29.023438 L 39.84375 26.296875 L 42.089844 36.496094 L 29.691406 39.226562 C 26.757812 39.871094 24.902344 42.773438 25.550781 45.707031 C 26.195312 48.640625 29.097656 50.496094 32.03125 49.851562 L 49.742188 45.953125 C 52.675781 45.304688 54.527344 42.402344 53.882812 39.46875 Z M 17.058594 -36.238281 C 15.371094 -43.910156 20.238281 -51.527344 27.910156 -53.214844 C 35.582031 -54.90625 43.199219 -50.035156 44.886719 -42.363281 C 46.578125 -34.695312 41.710938 -27.078125 34.035156 -25.386719 C 26.363281 -23.699219 18.746094 -28.566406 17.058594 -36.238281 Z M 17.058594 -36.238281 " fill-opacity="1" fill-rule="nonzero"/></g></g></g></g></g></g><g clip-path="url(#f28b581aa8)"><g mask="url(#e9639670bd)"><g transform="matrix(1, 0, 0, 1, 441, 213)"><g clip-path="url(#0a3abd8b21)"><g clip-path="url(#7b6e28506e)"><g clip-path="url(#ce0945499a)"><g clip-path="url(#91dec84299)"><path fill="#ffffff" d="M 13.398438 49.4375 L 55.863281 35.832031 C 60.378906 43.566406 69.816406 47.4375 78.691406 44.59375 C 88.953125 41.304688 94.625 30.28125 91.335938 20.019531 C 88.050781 9.761719 77.023438 4.085938 66.765625 7.375 C 57.886719 10.21875 52.457031 18.851562 53.28125 27.773438 L 30.636719 35.03125 L 27.625 25.628906 C 26.910156 23.40625 24.527344 22.179688 22.304688 22.890625 C 20.078125 23.605469 18.851562 25.988281 19.566406 28.210938 L 22.578125 37.613281 L 14.84375 40.089844 L 11.832031 30.691406 C 11.117188 28.464844 8.734375 27.238281 6.511719 27.953125 C 4.289062 28.664062 3.058594 31.046875 3.773438 33.273438 L 8.078125 46.703125 C 8.789062 48.925781 11.171875 50.152344 13.398438 49.4375 Z M 69.347656 15.433594 C 75.164062 13.566406 81.414062 16.785156 83.28125 22.601562 C 85.144531 28.421875 81.925781 34.671875 76.109375 36.535156 C 70.292969 38.398438 64.039062 35.183594 62.175781 29.367188 C 60.3125 23.546875 63.527344 17.296875 69.347656 15.433594 Z M 69.347656 15.433594 " fill-opacity="1" fill-rule="nonzero"/></g></g></g></g></g></g></g><g mask="url(#26ac6560d3)"><g transform="matrix(1, 0, 0, 1, 459, 99)"><g clip-path="url(#762bc97214)"><g clip-path="url(#0d6bdec6d1)"><g clip-path="url(#6a35734a6d)"><g clip-path="url(#0949a44e91)"><path fill="#ffffff" d="M 44.355469 23.28125 C 36.472656 24.320312 30.878906 31.578125 31.917969 39.464844 C 32.960938 47.378906 40.242188 52.941406 48.128906 51.902344 C 56.015625 50.859375 61.609375 43.601562 60.566406 35.6875 C 59.523438 27.804688 52.242188 22.242188 44.355469 23.28125 Z M 44.355469 23.28125 " fill-opacity="1" fill-rule="nonzero"/></g></g></g><g clip-path="url(#19bfd784da)"><g clip-path="url(#29a9bc6d01)"><g clip-path="url(#063da7e030)"><path fill="#ffffff" d="M 42.066406 6.121094 C 19.050781 9.152344 2.761719 30.351562 5.800781 53.398438 C 7.492188 66.214844 14.828125 76.929688 24.949219 83.390625 C 24.949219 83.390625 24.949219 83.390625 24.953125 83.417969 C 33.03125 88.5625 42.878906 91.007812 53.078125 89.664062 C 67.625 87.746094 79.917969 78.640625 85.984375 65.28125 C 89.261719 58.101562 90.433594 50.207031 89.398438 42.378906 C 88.367188 34.546875 85.1875 27.199219 80.164062 21.140625 C 70.847656 9.808594 56.613281 4.203125 42.066406 6.121094 Z M 80.886719 62.949219 C 79.828125 65.269531 78.519531 67.371094 77.054688 69.378906 C 71.671875 61.242188 61.90625 56.632812 51.960938 57.945312 L 45.996094 58.730469 C 39.085938 59.640625 32.949219 63.199219 28.714844 68.71875 C 26.945312 70.996094 25.640625 73.574219 24.726562 76.304688 C 17.65625 70.632812 12.652344 62.359375 11.375 52.664062 C 8.742188 32.710938 22.847656 14.324219 42.800781 11.691406 C 55.425781 10.027344 67.746094 14.898438 75.84375 24.714844 C 80.167969 29.988281 82.933594 36.339844 83.828125 43.113281 C 84.71875 49.882812 83.695312 56.738281 80.886719 62.949219 Z M 80.886719 62.949219 " fill-opacity="1" fill-rule="nonzero"/></g></g></g></g></g></g><g mask="url(#2878fb6472)"><g transform="matrix(1, 0, 0, 1, 444, 195)"><g clip-path="url(#c43c7cdaf6)"><g clip-path="url(#518f4f1685)"><g clip-path="url(#e0583fad56)"><g clip-path="url(#0fd973375e)"><path fill="#ffffff" d="M 7.328125 6.800781 C 6.257812 7.421875 5.886719 8.796875 6.507812 9.871094 C 7.128906 10.945312 8.507812 11.308594 9.578125 10.6875 C 10.648438 10.066406 11.019531 8.691406 10.398438 7.617188 C 9.777344 6.546875 8.398438 6.179688 7.328125 6.800781 Z M 7.328125 6.800781 " fill-opacity="1" fill-rule="nonzero"/></g></g></g><g clip-path="url(#6947abbfaa)"><g clip-path="url(#1560bd30a9)"><g clip-path="url(#7e2a0a3b09)"><path fill="#ffffff" d="M 5.972656 4.472656 C 2.847656 6.28125 1.773438 10.300781 3.585938 13.429688 C 4.59375 15.171875 6.289062 16.273438 8.128906 16.597656 C 8.128906 16.597656 8.128906 16.597656 8.128906 16.601562 C 9.597656 16.859375 11.160156 16.621094 12.542969 15.820312 C 14.519531 14.675781 15.742188 12.632812 15.816406 10.351562 C 15.859375 9.125 15.554688 7.917969 14.941406 6.855469 C 14.324219 5.792969 13.429688 4.925781 12.347656 4.355469 C 10.332031 3.285156 7.949219 3.328125 5.972656 4.472656 Z M 14.945312 10.320312 C 14.933594 10.71875 14.871094 11.097656 14.777344 11.472656 C 13.519531 10.625 11.839844 10.546875 10.488281 11.328125 L 9.679688 11.796875 C 8.742188 12.339844 8.070312 13.21875 7.792969 14.265625 C 7.675781 14.695312 7.640625 15.144531 7.671875 15.59375 C 6.316406 15.199219 5.105469 14.308594 4.34375 12.992188 C 2.773438 10.28125 3.703125 6.796875 6.414062 5.230469 C 8.128906 4.234375 10.1875 4.199219 11.9375 5.128906 C 12.875 5.625 13.652344 6.375 14.183594 7.292969 C 14.714844 8.214844 14.976562 9.261719 14.945312 10.320312 Z M 14.945312 10.320312 " fill-opacity="1" fill-rule="nonzero"/></g></g></g></g></g></g><g mask="url(#888bf30e96)"><g transform="matrix(1, 0, 0, 1, 562, 64)"><g clip-path="url(#ce9e6c87e6)"><g clip-path="url(#220742331d)"><g clip-path="url(#4c3d6d1155)"><g clip-path="url(#8dccd7b437)"><path fill="#ffffff" d="M 12.148438 43.257812 L 17.886719 22.566406 C 22.195312 22.792969 26.246094 20.015625 27.445312 15.691406 C 28.832031 10.691406 25.890625 5.496094 20.890625 4.109375 C 15.890625 2.722656 10.695312 5.660156 9.308594 10.660156 C 8.109375 14.984375 10.152344 19.453125 13.960938 21.476562 L 10.902344 32.511719 L 6.320312 31.238281 C 5.238281 30.9375 4.113281 31.574219 3.8125 32.660156 C 3.511719 33.742188 4.148438 34.863281 5.230469 35.164062 L 9.8125 36.4375 L 8.765625 40.203125 L 4.1875 38.933594 C 3.101562 38.632812 1.980469 39.269531 1.679688 40.351562 C 1.378906 41.4375 2.015625 42.558594 3.097656 42.859375 L 9.640625 44.675781 C 10.726562 44.976562 11.847656 44.339844 12.148438 43.257812 Z M 13.234375 11.75 C 14.023438 8.914062 16.96875 7.25 19.804688 8.035156 C 22.636719 8.820312 24.304688 11.765625 23.519531 14.601562 C 22.730469 17.4375 19.785156 19.101562 16.953125 18.316406 C 14.117188 17.53125 12.449219 14.585938 13.234375 11.75 Z M 13.234375 11.75 " fill-opacity="1" fill-rule="nonzero"/></g></g></g></g></g></g><g clip-path="url(#fe791b30a8)"><g mask="url(#5b473f0b65)"><g transform="matrix(1, 0, 0, 1, 595, 86)"><g clip-path="url(#089a2de667)"><g clip-path="url(#3319008dc7)"><g clip-path="url(#1143427fcb)"><g clip-path="url(#f188a07aa1)"><path fill="#ffffff" d="M 113.757812 52.3125 L 59.042969 35.164062 C 60.027344 23.683594 52.972656 12.628906 41.535156 9.042969 C 28.316406 4.898438 14.1875 12.285156 10.042969 25.503906 C 5.902344 38.726562 13.285156 52.855469 26.507812 56.996094 C 37.941406 60.582031 50.046875 55.527344 55.789062 45.542969 L 84.964844 54.6875 L 81.167969 66.800781 C 80.269531 69.667969 81.867188 72.71875 84.730469 73.617188 C 87.597656 74.515625 90.652344 72.921875 91.550781 70.054688 L 95.347656 57.941406 L 105.3125 61.066406 L 101.515625 73.175781 C 100.617188 76.046875 102.214844 79.097656 105.078125 79.996094 C 107.945312 80.894531 111 79.300781 111.898438 76.429688 L 117.320312 59.128906 C 118.21875 56.261719 116.621094 53.210938 113.757812 52.3125 Z M 29.761719 46.617188 C 22.265625 44.265625 18.078125 36.257812 20.425781 28.757812 C 22.777344 21.261719 30.789062 17.074219 38.28125 19.425781 C 45.777344 21.773438 49.964844 29.785156 47.617188 37.28125 C 45.265625 44.777344 37.253906 48.964844 29.761719 46.617188 Z M 29.761719 46.617188 " fill-opacity="1" fill-rule="nonzero"/></g></g></g></g></g></g></g><g mask="url(#2214d36837)"><g transform="matrix(1, 0, 0, 1, 380, -0.000000000000022503)"><g clip-path="url(#1251189fea)"><g clip-path="url(#2182e7983a)"><g clip-path="url(#b59b18ab12)"><g clip-path="url(#619362b693)"><path fill="#ffffff" d="M 42.707031 -69.351562 C 19.691406 -66.316406 3.402344 -45.117188 6.441406 -22.074219 C 8.132812 -9.253906 15.46875 1.460938 25.589844 7.921875 C 25.589844 7.921875 25.589844 7.921875 25.59375 7.949219 C 33.671875 13.09375 43.519531 15.539062 53.71875 14.195312 C 68.265625 12.277344 80.558594 3.171875 86.625 -10.1875 C 89.902344 -17.367188 91.074219 -25.261719 90.039062 -33.09375 C 89.007812 -40.921875 85.828125 -48.269531 80.804688 -54.328125 C 71.488281 -65.660156 57.253906 -71.269531 42.707031 -69.351562 Z M 81.527344 -12.519531 C 80.472656 -10.199219 79.160156 -8.097656 77.695312 -6.089844 C 72.3125 -14.226562 62.546875 -18.835938 52.601562 -17.523438 L 46.636719 -16.738281 C 39.726562 -15.828125 33.589844 -12.269531 29.355469 -6.75 C 27.585938 -4.476562 26.28125 -1.894531 25.367188 0.835938 C 18.296875 -4.839844 13.292969 -13.109375 12.015625 -22.808594 C 9.386719 -42.757812 23.488281 -61.148438 43.441406 -63.777344 C 56.066406 -65.441406 68.386719 -60.574219 76.484375 -50.753906 C 80.808594 -45.484375 83.574219 -39.128906 84.46875 -32.355469 C 85.359375 -25.585938 84.335938 -18.730469 81.527344 -12.519531 Z M 81.527344 -12.519531 " fill-opacity="1" fill-rule="nonzero"/></g></g></g></g></g></g></svg>